<?xml version="1.0" encoding="utf-8" standalone="no"?>
<!DOCTYPE svg PUBLIC "-//W3C//DTD SVG 1.1//EN"
  "http://www.w3.org/Graphics/SVG/1.1/DTD/svg11.dtd">
<svg xmlns:xlink="http://www.w3.org/1999/xlink" width="350.455573pt" height="197.398125pt" viewBox="0 0 350.455573 197.398125" xmlns="http://www.w3.org/2000/svg" version="1.1">
 <metadata>
  <rdf:RDF xmlns:dc="http://purl.org/dc/elements/1.1/" xmlns:cc="http://creativecommons.org/ns#" xmlns:rdf="http://www.w3.org/1999/02/22-rdf-syntax-ns#">
   <cc:Work>
    <dc:type rdf:resource="http://purl.org/dc/dcmitype/StillImage"/>
    <dc:date>2026-02-11T00:01:47.629671</dc:date>
    <dc:format>image/svg+xml</dc:format>
    <dc:creator>
     <cc:Agent>
      <dc:title>Matplotlib v3.9.1.post1, https://matplotlib.org/</dc:title>
     </cc:Agent>
    </dc:creator>
   </cc:Work>
  </rdf:RDF>
 </metadata>
 <defs>
  <style type="text/css">*{stroke-linejoin: round; stroke-linecap: butt}</style>
 </defs>
 <g id="figure_1">
  <g id="patch_1">
   <path d="M -0 197.398125 
L 350.455573 197.398125 
L 350.455573 0 
L -0 0 
z
" style="fill: #ffffff"/>
  </g>
  <g id="axes_1">
   <g id="patch_2">
    <path d="M 52.375 173.52 
L 331.375 173.52 
L 331.375 7.2 
L 52.375 7.2 
z
" style="fill: #ffffff"/>
   </g>
   <g id="PathCollection_1">
    <defs>
     <path id="m010535468b" d="M 0 3 
C 0.795609 3 1.55874 2.683901 2.12132 2.12132 
C 2.683901 1.55874 3 0.795609 3 0 
C 3 -0.795609 2.683901 -1.55874 2.12132 -2.12132 
C 1.55874 -2.683901 0.795609 -3 0 -3 
C -0.795609 -3 -1.55874 -2.683901 -2.12132 -2.12132 
C -2.683901 -1.55874 -3 -0.795609 -3 0 
C -3 0.795609 -2.683901 1.55874 -2.12132 2.12132 
C -1.55874 2.683901 -0.795609 3 0 3 
z
" style="stroke: #1f77b4"/>
    </defs>
    <g clip-path="url(#pfd20a4b2ac)">
     <use xlink:href="#m010535468b" x="103.602856" y="144.777618" style="fill: #1f77b4; stroke: #1f77b4"/>
     <use xlink:href="#m010535468b" x="103.740444" y="145.483039" style="fill: #1f77b4; stroke: #1f77b4"/>
     <use xlink:href="#m010535468b" x="103.301056" y="145.123705" style="fill: #1f77b4; stroke: #1f77b4"/>
     <use xlink:href="#m010535468b" x="104.793213" y="145.329039" style="fill: #1f77b4; stroke: #1f77b4"/>
     <use xlink:href="#m010535468b" x="104.276286" y="145.887083" style="fill: #1f77b4; stroke: #1f77b4"/>
     <use xlink:href="#m010535468b" x="104.133775" y="146.223234" style="fill: #1f77b4; stroke: #1f77b4"/>
     <use xlink:href="#m010535468b" x="105.29725" y="146.002997" style="fill: #1f77b4; stroke: #1f77b4"/>
     <use xlink:href="#m010535468b" x="105.380424" y="144.969705" style="fill: #1f77b4; stroke: #1f77b4"/>
     <use xlink:href="#m010535468b" x="105.125847" y="145.728115" style="fill: #1f77b4; stroke: #1f77b4"/>
     <use xlink:href="#m010535468b" x="105.264601" y="144.189768" style="fill: #1f77b4; stroke: #1f77b4"/>
     <use xlink:href="#m010535468b" x="106.673195" y="143.936413" style="fill: #1f77b4; stroke: #1f77b4"/>
     <use xlink:href="#m010535468b" x="107.454869" y="143.616821" style="fill: #1f77b4; stroke: #1f77b4"/>
     <use xlink:href="#m010535468b" x="107.336649" y="143.439638" style="fill: #1f77b4; stroke: #1f77b4"/>
     <use xlink:href="#m010535468b" x="107.567388" y="142.735873" style="fill: #1f77b4; stroke: #1f77b4"/>
     <use xlink:href="#m010535468b" x="107.953464" y="142.282152" style="fill: #1f77b4; stroke: #1f77b4"/>
     <use xlink:href="#m010535468b" x="108.523768" y="142.744153" style="fill: #1f77b4; stroke: #1f77b4"/>
     <use xlink:href="#m010535468b" x="110.27808" y="141.444258" style="fill: #1f77b4; stroke: #1f77b4"/>
     <use xlink:href="#m010535468b" x="110.863931" y="142.689507" style="fill: #1f77b4; stroke: #1f77b4"/>
     <use xlink:href="#m010535468b" x="109.522965" y="143.126669" style="fill: #1f77b4; stroke: #1f77b4"/>
     <use xlink:href="#m010535468b" x="110.181302" y="142.999164" style="fill: #1f77b4; stroke: #1f77b4"/>
     <use xlink:href="#m010535468b" x="112.057268" y="142.08013" style="fill: #1f77b4; stroke: #1f77b4"/>
     <use xlink:href="#m010535468b" x="113.092029" y="141.070021" style="fill: #1f77b4; stroke: #1f77b4"/>
     <use xlink:href="#m010535468b" x="113.869362" y="140.391095" style="fill: #1f77b4; stroke: #1f77b4"/>
     <use xlink:href="#m010535468b" x="114.993517" y="139.549889" style="fill: #1f77b4; stroke: #1f77b4"/>
     <use xlink:href="#m010535468b" x="115.530913" y="139.183932" style="fill: #1f77b4; stroke: #1f77b4"/>
     <use xlink:href="#m010535468b" x="115.805701" y="138.915673" style="fill: #1f77b4; stroke: #1f77b4"/>
     <use xlink:href="#m010535468b" x="115.778429" y="138.962039" style="fill: #1f77b4; stroke: #1f77b4"/>
     <use xlink:href="#m010535468b" x="116.228311" y="138.448704" style="fill: #1f77b4; stroke: #1f77b4"/>
     <use xlink:href="#m010535468b" x="114.975832" y="138.615952" style="fill: #1f77b4; stroke: #1f77b4"/>
     <use xlink:href="#m010535468b" x="115.118408" y="137.978424" style="fill: #1f77b4; stroke: #1f77b4"/>
     <use xlink:href="#m010535468b" x="115.879936" y="137.860854" style="fill: #1f77b4; stroke: #1f77b4"/>
     <use xlink:href="#m010535468b" x="116.546435" y="136.792788" style="fill: #1f77b4; stroke: #1f77b4"/>
     <use xlink:href="#m010535468b" x="118.097151" y="136.928573" style="fill: #1f77b4; stroke: #1f77b4"/>
     <use xlink:href="#m010535468b" x="119.33363" y="135.569065" style="fill: #1f77b4; stroke: #1f77b4"/>
     <use xlink:href="#m010535468b" x="120.094057" y="134.620225" style="fill: #1f77b4; stroke: #1f77b4"/>
     <use xlink:href="#m010535468b" x="121.484059" y="133.72603" style="fill: #1f77b4; stroke: #1f77b4"/>
     <use xlink:href="#m010535468b" x="123.114711" y="133.351793" style="fill: #1f77b4; stroke: #1f77b4"/>
     <use xlink:href="#m010535468b" x="124.339724" y="132.783813" style="fill: #1f77b4; stroke: #1f77b4"/>
     <use xlink:href="#m010535468b" x="124.701897" y="132.242328" style="fill: #1f77b4; stroke: #1f77b4"/>
     <use xlink:href="#m010535468b" x="125.510778" y="132.305253" style="fill: #1f77b4; stroke: #1f77b4"/>
     <use xlink:href="#m010535468b" x="125.376882" y="131.839941" style="fill: #1f77b4; stroke: #1f77b4"/>
     <use xlink:href="#m010535468b" x="125.474891" y="131.478951" style="fill: #1f77b4; stroke: #1f77b4"/>
     <use xlink:href="#m010535468b" x="127.057477" y="130.937466" style="fill: #1f77b4; stroke: #1f77b4"/>
     <use xlink:href="#m010535468b" x="127.38046" y="131.25209" style="fill: #1f77b4; stroke: #1f77b4"/>
     <use xlink:href="#m010535468b" x="127.747296" y="130.788433" style="fill: #1f77b4; stroke: #1f77b4"/>
     <use xlink:href="#m010535468b" x="129.001524" y="130.705638" style="fill: #1f77b4; stroke: #1f77b4"/>
     <use xlink:href="#m010535468b" x="129.232198" y="129.768389" style="fill: #1f77b4; stroke: #1f77b4"/>
     <use xlink:href="#m010535468b" x="130.051897" y="128.879161" style="fill: #1f77b4; stroke: #1f77b4"/>
     <use xlink:href="#m010535468b" x="130.370539" y="128.408881" style="fill: #1f77b4; stroke: #1f77b4"/>
     <use xlink:href="#m010535468b" x="131.491001" y="128.148902" style="fill: #1f77b4; stroke: #1f77b4"/>
     <use xlink:href="#m010535468b" x="131.239922" y="127.662063" style="fill: #1f77b4; stroke: #1f77b4"/>
     <use xlink:href="#m010535468b" x="131.7231" y="127.370621" style="fill: #1f77b4; stroke: #1f77b4"/>
     <use xlink:href="#m010535468b" x="133.006413" y="127.11561" style="fill: #1f77b4; stroke: #1f77b4"/>
     <use xlink:href="#m010535468b" x="132.842849" y="126.708254" style="fill: #1f77b4; stroke: #1f77b4"/>
     <use xlink:href="#m010535468b" x="134.142616" y="126.180017" style="fill: #1f77b4; stroke: #1f77b4"/>
     <use xlink:href="#m010535468b" x="134.083668" y="125.771006" style="fill: #1f77b4; stroke: #1f77b4"/>
     <use xlink:href="#m010535468b" x="132.506976" y="127.064277" style="fill: #1f77b4; stroke: #1f77b4"/>
     <use xlink:href="#m010535468b" x="133.609106" y="126.236318" style="fill: #1f77b4; stroke: #1f77b4"/>
     <use xlink:href="#m010535468b" x="135.297086" y="125.299069" style="fill: #1f77b4; stroke: #1f77b4"/>
     <use xlink:href="#m010535468b" x="136.314745" y="125.16494" style="fill: #1f77b4; stroke: #1f77b4"/>
     <use xlink:href="#m010535468b" x="138.862521" y="124.173046" style="fill: #1f77b4; stroke: #1f77b4"/>
     <use xlink:href="#m010535468b" x="139.155188" y="123.85511" style="fill: #1f77b4; stroke: #1f77b4"/>
     <use xlink:href="#m010535468b" x="139.958627" y="123.929626" style="fill: #1f77b4; stroke: #1f77b4"/>
     <use xlink:href="#m010535468b" x="140.783831" y="122.964227" style="fill: #1f77b4; stroke: #1f77b4"/>
     <use xlink:href="#m010535468b" x="141.17483" y="122.73571" style="fill: #1f77b4; stroke: #1f77b4"/>
     <use xlink:href="#m010535468b" x="143.00571" y="121.969021" style="fill: #1f77b4; stroke: #1f77b4"/>
     <use xlink:href="#m010535468b" x="142.889823" y="121.603063" style="fill: #1f77b4; stroke: #1f77b4"/>
     <use xlink:href="#m010535468b" x="144.364101" y="120.677406" style="fill: #1f77b4; stroke: #1f77b4"/>
     <use xlink:href="#m010535468b" x="145.648386" y="119.771619" style="fill: #1f77b4; stroke: #1f77b4"/>
     <use xlink:href="#m010535468b" x="145.867465" y="119.771619" style="fill: #1f77b4; stroke: #1f77b4"/>
     <use xlink:href="#m010535468b" x="147.342067" y="118.645596" style="fill: #1f77b4; stroke: #1f77b4"/>
     <use xlink:href="#m010535468b" x="148.493946" y="118.196842" style="fill: #1f77b4; stroke: #1f77b4"/>
     <use xlink:href="#m010535468b" x="151.303036" y="117.625551" style="fill: #1f77b4; stroke: #1f77b4"/>
     <use xlink:href="#m010535468b" x="151.696431" y="116.454818" style="fill: #1f77b4; stroke: #1f77b4"/>
     <use xlink:href="#m010535468b" x="153.81486" y="115.739462" style="fill: #1f77b4; stroke: #1f77b4"/>
     <use xlink:href="#m010535468b" x="155.564509" y="114.606815" style="fill: #1f77b4; stroke: #1f77b4"/>
     <use xlink:href="#m010535468b" x="157.373106" y="114.050427" style="fill: #1f77b4; stroke: #1f77b4"/>
     <use xlink:href="#m010535468b" x="157.930907" y="113.964319" style="fill: #1f77b4; stroke: #1f77b4"/>
     <use xlink:href="#m010535468b" x="158.793683" y="112.750532" style="fill: #1f77b4; stroke: #1f77b4"/>
     <use xlink:href="#m010535468b" x="159.703552" y="112.62137" style="fill: #1f77b4; stroke: #1f77b4"/>
     <use xlink:href="#m010535468b" x="160.132835" y="112.209047" style="fill: #1f77b4; stroke: #1f77b4"/>
     <use xlink:href="#m010535468b" x="162.524302" y="111.078056" style="fill: #1f77b4; stroke: #1f77b4"/>
     <use xlink:href="#m010535468b" x="162.343961" y="111.096271" style="fill: #1f77b4; stroke: #1f77b4"/>
     <use xlink:href="#m010535468b" x="163.286413" y="110.172269" style="fill: #1f77b4; stroke: #1f77b4"/>
     <use xlink:href="#m010535468b" x="162.514002" y="109.543021" style="fill: #1f77b4; stroke: #1f77b4"/>
     <use xlink:href="#m010535468b" x="165.671856" y="109.340999" style="fill: #1f77b4; stroke: #1f77b4"/>
     <use xlink:href="#m010535468b" x="166.702925" y="108.171922" style="fill: #1f77b4; stroke: #1f77b4"/>
     <use xlink:href="#m010535468b" x="167.70413" y="107.204867" style="fill: #1f77b4; stroke: #1f77b4"/>
     <use xlink:href="#m010535468b" x="169.214943" y="105.815552" style="fill: #1f77b4; stroke: #1f77b4"/>
     <use xlink:href="#m010535468b" x="168.369787" y="106.116929" style="fill: #1f77b4; stroke: #1f77b4"/>
     <use xlink:href="#m010535468b" x="170.737999" y="105.442971" style="fill: #1f77b4; stroke: #1f77b4"/>
     <use xlink:href="#m010535468b" x="171.716468" y="104.576927" style="fill: #1f77b4; stroke: #1f77b4"/>
     <use xlink:href="#m010535468b" x="172.477348" y="105.265788" style="fill: #1f77b4; stroke: #1f77b4"/>
     <use xlink:href="#m010535468b" x="170.291032" y="104.901486" style="fill: #1f77b4; stroke: #1f77b4"/>
     <use xlink:href="#m010535468b" x="173.67956" y="103.687699" style="fill: #1f77b4; stroke: #1f77b4"/>
     <use xlink:href="#m010535468b" x="174.878079" y="103.061763" style="fill: #1f77b4; stroke: #1f77b4"/>
     <use xlink:href="#m010535468b" x="177.870231" y="103.204172" style="fill: #1f77b4; stroke: #1f77b4"/>
     <use xlink:href="#m010535468b" x="178.838465" y="100.955437" style="fill: #1f77b4; stroke: #1f77b4"/>
     <use xlink:href="#m010535468b" x="182.291317" y="99.546251" style="fill: #1f77b4; stroke: #1f77b4"/>
     <use xlink:href="#m010535468b" x="183.950665" y="97.958227" style="fill: #1f77b4; stroke: #1f77b4"/>
     <use xlink:href="#m010535468b" x="187.681608" y="97.426678" style="fill: #1f77b4; stroke: #1f77b4"/>
     <use xlink:href="#m010535468b" x="190.275377" y="95.719428" style="fill: #1f77b4; stroke: #1f77b4"/>
     <use xlink:href="#m010535468b" x="192.292623" y="94.974265" style="fill: #1f77b4; stroke: #1f77b4"/>
     <use xlink:href="#m010535468b" x="197.361357" y="93.101423" style="fill: #1f77b4; stroke: #1f77b4"/>
     <use xlink:href="#m010535468b" x="199.255201" y="91.024904" style="fill: #1f77b4; stroke: #1f77b4"/>
     <use xlink:href="#m010535468b" x="203.274017" y="90.433741" style="fill: #1f77b4; stroke: #1f77b4"/>
     <use xlink:href="#m010535468b" x="205.872643" y="89.829332" style="fill: #1f77b4; stroke: #1f77b4"/>
     <use xlink:href="#m010535468b" x="209.765531" y="88.034318" style="fill: #1f77b4; stroke: #1f77b4"/>
     <use xlink:href="#m010535468b" x="213.280893" y="85.772336" style="fill: #1f77b4; stroke: #1f77b4"/>
     <use xlink:href="#m010535468b" x="210.663934" y="85.128184" style="fill: #1f77b4; stroke: #1f77b4"/>
     <use xlink:href="#m010535468b" x="215.849658" y="84.608226" style="fill: #1f77b4; stroke: #1f77b4"/>
     <use xlink:href="#m010535468b" x="216.005124" y="85.611712" style="fill: #1f77b4; stroke: #1f77b4"/>
     <use xlink:href="#m010535468b" x="219.7018" y="83.765364" style="fill: #1f77b4; stroke: #1f77b4"/>
     <use xlink:href="#m010535468b" x="221.537668" y="82.508524" style="fill: #1f77b4; stroke: #1f77b4"/>
     <use xlink:href="#m010535468b" x="225.067281" y="80.544606" style="fill: #1f77b4; stroke: #1f77b4"/>
     <use xlink:href="#m010535468b" x="227.093531" y="78.603872" style="fill: #1f77b4; stroke: #1f77b4"/>
     <use xlink:href="#m010535468b" x="228.933934" y="78.630366" style="fill: #1f77b4; stroke: #1f77b4"/>
     <use xlink:href="#m010535468b" x="233.120265" y="75.785501" style="fill: #1f77b4; stroke: #1f77b4"/>
     <use xlink:href="#m010535468b" x="230.555387" y="75.215866" style="fill: #1f77b4; stroke: #1f77b4"/>
     <use xlink:href="#m010535468b" x="235.570421" y="73.044959" style="fill: #1f77b4; stroke: #1f77b4"/>
     <use xlink:href="#m010535468b" x="234.194993" y="73.193992" style="fill: #1f77b4; stroke: #1f77b4"/>
     <use xlink:href="#m010535468b" x="236.262507" y="73.775218" style="fill: #1f77b4; stroke: #1f77b4"/>
     <use xlink:href="#m010535468b" x="236.299884" y="72.308076" style="fill: #1f77b4; stroke: #1f77b4"/>
     <use xlink:href="#m010535468b" x="238.869361" y="71.667236" style="fill: #1f77b4; stroke: #1f77b4"/>
     <use xlink:href="#m010535468b" x="243.221458" y="70.854181" style="fill: #1f77b4; stroke: #1f77b4"/>
     <use xlink:href="#m010535468b" x="244.46733" y="69.625491" style="fill: #1f77b4; stroke: #1f77b4"/>
     <use xlink:href="#m010535468b" x="244.410584" y="68.832307" style="fill: #1f77b4; stroke: #1f77b4"/>
     <use xlink:href="#m010535468b" x="246.925324" y="68.595511" style="fill: #1f77b4; stroke: #1f77b4"/>
     <use xlink:href="#m010535468b" x="247.27778" y="66.926347" style="fill: #1f77b4; stroke: #1f77b4"/>
     <use xlink:href="#m010535468b" x="253.489519" y="66.93297" style="fill: #1f77b4; stroke: #1f77b4"/>
     <use xlink:href="#m010535468b" x="250.972123" y="66.432883" style="fill: #1f77b4; stroke: #1f77b4"/>
     <use xlink:href="#m010535468b" x="255.572449" y="66.186152" style="fill: #1f77b4; stroke: #1f77b4"/>
     <use xlink:href="#m010535468b" x="255.857277" y="65.457548" style="fill: #1f77b4; stroke: #1f77b4"/>
     <use xlink:href="#m010535468b" x="257.98633" y="65.641355" style="fill: #1f77b4; stroke: #1f77b4"/>
     <use xlink:href="#m010535468b" x="257.207765" y="63.763546" style="fill: #1f77b4; stroke: #1f77b4"/>
     <use xlink:href="#m010535468b" x="258.578917" y="62.708727" style="fill: #1f77b4; stroke: #1f77b4"/>
     <use xlink:href="#m010535468b" x="263.888172" y="62.034768" style="fill: #1f77b4; stroke: #1f77b4"/>
     <use xlink:href="#m010535468b" x="267.27074" y="61.5678" style="fill: #1f77b4; stroke: #1f77b4"/>
     <use xlink:href="#m010535468b" x="267.366222" y="62.102661" style="fill: #1f77b4; stroke: #1f77b4"/>
     <use xlink:href="#m010535468b" x="268.644806" y="62.286468" style="fill: #1f77b4; stroke: #1f77b4"/>
     <use xlink:href="#m010535468b" x="271.95424" y="64.543482" style="fill: #1f77b4; stroke: #1f77b4"/>
     <use xlink:href="#m010535468b" x="268.950363" y="64.647805" style="fill: #1f77b4; stroke: #1f77b4"/>
     <use xlink:href="#m010535468b" x="267.069669" y="64.868042" style="fill: #1f77b4; stroke: #1f77b4"/>
     <use xlink:href="#m010535468b" x="262.449845" y="65.214129" style="fill: #1f77b4; stroke: #1f77b4"/>
     <use xlink:href="#m010535468b" x="260.970708" y="63.346254" style="fill: #1f77b4; stroke: #1f77b4"/>
     <use xlink:href="#m010535468b" x="261.145997" y="62.062919" style="fill: #1f77b4; stroke: #1f77b4"/>
     <use xlink:href="#m010535468b" x="270.813309" y="60.261282" style="fill: #1f77b4; stroke: #1f77b4"/>
     <use xlink:href="#m010535468b" x="267.284019" y="59.38199" style="fill: #1f77b4; stroke: #1f77b4"/>
     <use xlink:href="#m010535468b" x="267.221379" y="57.82874" style="fill: #1f77b4; stroke: #1f77b4"/>
     <use xlink:href="#m010535468b" x="275.026393" y="56.715964" style="fill: #1f77b4; stroke: #1f77b4"/>
     <use xlink:href="#m010535468b" x="275.836375" y="56.353318" style="fill: #1f77b4; stroke: #1f77b4"/>
     <use xlink:href="#m010535468b" x="279.718315" y="54.366218" style="fill: #1f77b4; stroke: #1f77b4"/>
     <use xlink:href="#m010535468b" x="280.053864" y="53.16071" style="fill: #1f77b4; stroke: #1f77b4"/>
     <use xlink:href="#m010535468b" x="281.313857" y="51.723375" style="fill: #1f77b4; stroke: #1f77b4"/>
     <use xlink:href="#m010535468b" x="280.559325" y="49.265994" style="fill: #1f77b4; stroke: #1f77b4"/>
     <use xlink:href="#m010535468b" x="282.636944" y="47.817067" style="fill: #1f77b4; stroke: #1f77b4"/>
     <use xlink:href="#m010535468b" x="284.443467" y="47.467668" style="fill: #1f77b4; stroke: #1f77b4"/>
     <use xlink:href="#m010535468b" x="284.468601" y="46.041924" style="fill: #1f77b4; stroke: #1f77b4"/>
     <use xlink:href="#m010535468b" x="282.894047" y="43.859426" style="fill: #1f77b4; stroke: #1f77b4"/>
     <use xlink:href="#m010535468b" x="284.558254" y="43.808092" style="fill: #1f77b4; stroke: #1f77b4"/>
     <use xlink:href="#m010535468b" x="287.861274" y="42.73009" style="fill: #1f77b4; stroke: #1f77b4"/>
     <use xlink:href="#m010535468b" x="289.304524" y="40.534345" style="fill: #1f77b4; stroke: #1f77b4"/>
     <use xlink:href="#m010535468b" x="291.118886" y="38.99103" style="fill: #1f77b4; stroke: #1f77b4"/>
     <use xlink:href="#m010535468b" x="292.787368" y="37.436124" style="fill: #1f77b4; stroke: #1f77b4"/>
     <use xlink:href="#m010535468b" x="295.529543" y="36.457478" style="fill: #1f77b4; stroke: #1f77b4"/>
     <use xlink:href="#m010535468b" x="298.428091" y="34.551517" style="fill: #1f77b4; stroke: #1f77b4"/>
     <use xlink:href="#m010535468b" x="304.810454" y="33.731839" style="fill: #1f77b4; stroke: #1f77b4"/>
     <use xlink:href="#m010535468b" x="308.026608" y="32.019621" style="fill: #1f77b4; stroke: #1f77b4"/>
     <use xlink:href="#m010535468b" x="313.089512" y="30.886974" style="fill: #1f77b4; stroke: #1f77b4"/>
     <use xlink:href="#m010535468b" x="311.606424" y="29.082024" style="fill: #1f77b4; stroke: #1f77b4"/>
     <use xlink:href="#m010535468b" x="311.774134" y="29.808972" style="fill: #1f77b4; stroke: #1f77b4"/>
     <use xlink:href="#m010535468b" x="314.537232" y="28.795551" style="fill: #1f77b4; stroke: #1f77b4"/>
     <use xlink:href="#m010535468b" x="316.746544" y="26.710751" style="fill: #1f77b4; stroke: #1f77b4"/>
     <use xlink:href="#m010535468b" x="310.462254" y="28.565378" style="fill: #1f77b4; stroke: #1f77b4"/>
     <use xlink:href="#m010535468b" x="314.182638" y="28.57697" style="fill: #1f77b4; stroke: #1f77b4"/>
     <use xlink:href="#m010535468b" x="312.206267" y="29.035659" style="fill: #1f77b4; stroke: #1f77b4"/>
     <use xlink:href="#m010535468b" x="307.978348" y="32.395514" style="fill: #1f77b4; stroke: #1f77b4"/>
     <use xlink:href="#m010535468b" x="310.670838" y="30.025897" style="fill: #1f77b4; stroke: #1f77b4"/>
     <use xlink:href="#m010535468b" x="309.685632" y="30.059015" style="fill: #1f77b4; stroke: #1f77b4"/>
     <use xlink:href="#m010535468b" x="308.972623" y="29.219465" style="fill: #1f77b4; stroke: #1f77b4"/>
     <use xlink:href="#m010535468b" x="308.999376" y="29.204562" style="fill: #1f77b4; stroke: #1f77b4"/>
     <use xlink:href="#m010535468b" x="314.400227" y="29.075401" style="fill: #1f77b4; stroke: #1f77b4"/>
     <use xlink:href="#m010535468b" x="314.299432" y="28.259034" style="fill: #1f77b4; stroke: #1f77b4"/>
     <use xlink:href="#m010535468b" x="312.537022" y="28.167958" style="fill: #1f77b4; stroke: #1f77b4"/>
     <use xlink:href="#m010535468b" x="314.517669" y="27.503936" style="fill: #1f77b4; stroke: #1f77b4"/>
     <use xlink:href="#m010535468b" x="315.859023" y="26.783612" style="fill: #1f77b4; stroke: #1f77b4"/>
     <use xlink:href="#m010535468b" x="313.017026" y="26.30174" style="fill: #1f77b4; stroke: #1f77b4"/>
     <use xlink:href="#m010535468b" x="310.931375" y="25.442319" style="fill: #1f77b4; stroke: #1f77b4"/>
     <use xlink:href="#m010535468b" x="314.319837" y="23.287971" style="fill: #1f77b4; stroke: #1f77b4"/>
     <use xlink:href="#m010535468b" x="315.108313" y="22.774637" style="fill: #1f77b4; stroke: #1f77b4"/>
     <use xlink:href="#m010535468b" x="315.187407" y="22.320916" style="fill: #1f77b4; stroke: #1f77b4"/>
     <use xlink:href="#m010535468b" x="316.566073" y="20.997839" style="fill: #1f77b4; stroke: #1f77b4"/>
     <use xlink:href="#m010535468b" x="318.693182" y="21.284312" style="fill: #1f77b4; stroke: #1f77b4"/>
     <use xlink:href="#m010535468b" x="318.241097" y="20.607042" style="fill: #1f77b4; stroke: #1f77b4"/>
     <use xlink:href="#m010535468b" x="316.550073" y="19.681385" style="fill: #1f77b4; stroke: #1f77b4"/>
     <use xlink:href="#m010535468b" x="318.063801" y="19.671449" style="fill: #1f77b4; stroke: #1f77b4"/>
     <use xlink:href="#m010535468b" x="318.585197" y="17.798607" style="fill: #1f77b4; stroke: #1f77b4"/>
     <use xlink:href="#m010535468b" x="317.368087" y="17.57837" style="fill: #1f77b4; stroke: #1f77b4"/>
     <use xlink:href="#m010535468b" x="316.577474" y="16.834864" style="fill: #1f77b4; stroke: #1f77b4"/>
     <use xlink:href="#m010535468b" x="316.915614" y="14.76" style="fill: #1f77b4; stroke: #1f77b4"/>
    </g>
   </g>
   <g id="matplotlib.axis_1">
    <g id="xtick_1">
     <g id="line2d_1">
      <defs>
       <path id="m25037df8ab" d="M 0 0 
L 0 3.5 
" style="stroke: #000000; stroke-width: 0.8"/>
      </defs>
      <g>
       <use xlink:href="#m25037df8ab" x="65.056818" y="173.52" style="stroke: #000000; stroke-width: 0.8"/>
      </g>
     </g>
     <g id="text_1">
      <!-- 0 -->
      <g transform="translate(61.875568 188.118438) scale(0.1 -0.1)">
       <defs>
        <path id="DejaVuSans-30" d="M 2034 4250 
Q 1547 4250 1301 3770 
Q 1056 3291 1056 2328 
Q 1056 1369 1301 889 
Q 1547 409 2034 409 
Q 2525 409 2770 889 
Q 3016 1369 3016 2328 
Q 3016 3291 2770 3770 
Q 2525 4250 2034 4250 
z
M 2034 4750 
Q 2819 4750 3233 4129 
Q 3647 3509 3647 2328 
Q 3647 1150 3233 529 
Q 2819 -91 2034 -91 
Q 1250 -91 836 529 
Q 422 1150 422 2328 
Q 422 3509 836 4129 
Q 1250 4750 2034 4750 
z
" transform="scale(0.015625)"/>
       </defs>
       <use xlink:href="#DejaVuSans-30"/>
      </g>
     </g>
    </g>
    <g id="xtick_2">
     <g id="line2d_2">
      <g>
       <use xlink:href="#m25037df8ab" x="97.445725" y="173.52" style="stroke: #000000; stroke-width: 0.8"/>
      </g>
     </g>
     <g id="text_2">
      <!-- 50000 -->
      <g transform="translate(81.539475 188.118438) scale(0.1 -0.1)">
       <defs>
        <path id="DejaVuSans-35" d="M 691 4666 
L 3169 4666 
L 3169 4134 
L 1269 4134 
L 1269 2991 
Q 1406 3038 1543 3061 
Q 1681 3084 1819 3084 
Q 2600 3084 3056 2656 
Q 3513 2228 3513 1497 
Q 3513 744 3044 326 
Q 2575 -91 1722 -91 
Q 1428 -91 1123 -41 
Q 819 9 494 109 
L 494 744 
Q 775 591 1075 516 
Q 1375 441 1709 441 
Q 2250 441 2565 725 
Q 2881 1009 2881 1497 
Q 2881 1984 2565 2268 
Q 2250 2553 1709 2553 
Q 1456 2553 1204 2497 
Q 953 2441 691 2322 
L 691 4666 
z
" transform="scale(0.015625)"/>
       </defs>
       <use xlink:href="#DejaVuSans-35"/>
       <use xlink:href="#DejaVuSans-30" x="63.623047"/>
       <use xlink:href="#DejaVuSans-30" x="127.246094"/>
       <use xlink:href="#DejaVuSans-30" x="190.869141"/>
       <use xlink:href="#DejaVuSans-30" x="254.492188"/>
      </g>
     </g>
    </g>
    <g id="xtick_3">
     <g id="line2d_3">
      <g>
       <use xlink:href="#m25037df8ab" x="129.834632" y="173.52" style="stroke: #000000; stroke-width: 0.8"/>
      </g>
     </g>
     <g id="text_3">
      <!-- 100000 -->
      <g transform="translate(110.747132 188.118438) scale(0.1 -0.1)">
       <defs>
        <path id="DejaVuSans-31" d="M 794 531 
L 1825 531 
L 1825 4091 
L 703 3866 
L 703 4441 
L 1819 4666 
L 2450 4666 
L 2450 531 
L 3481 531 
L 3481 0 
L 794 0 
L 794 531 
z
" transform="scale(0.015625)"/>
       </defs>
       <use xlink:href="#DejaVuSans-31"/>
       <use xlink:href="#DejaVuSans-30" x="63.623047"/>
       <use xlink:href="#DejaVuSans-30" x="127.246094"/>
       <use xlink:href="#DejaVuSans-30" x="190.869141"/>
       <use xlink:href="#DejaVuSans-30" x="254.492188"/>
       <use xlink:href="#DejaVuSans-30" x="318.115234"/>
      </g>
     </g>
    </g>
    <g id="xtick_4">
     <g id="line2d_4">
      <g>
       <use xlink:href="#m25037df8ab" x="162.223539" y="173.52" style="stroke: #000000; stroke-width: 0.8"/>
      </g>
     </g>
     <g id="text_4">
      <!-- 150000 -->
      <g transform="translate(143.136039 188.118438) scale(0.1 -0.1)">
       <use xlink:href="#DejaVuSans-31"/>
       <use xlink:href="#DejaVuSans-35" x="63.623047"/>
       <use xlink:href="#DejaVuSans-30" x="127.246094"/>
       <use xlink:href="#DejaVuSans-30" x="190.869141"/>
       <use xlink:href="#DejaVuSans-30" x="254.492188"/>
       <use xlink:href="#DejaVuSans-30" x="318.115234"/>
      </g>
     </g>
    </g>
    <g id="xtick_5">
     <g id="line2d_5">
      <g>
       <use xlink:href="#m25037df8ab" x="194.612446" y="173.52" style="stroke: #000000; stroke-width: 0.8"/>
      </g>
     </g>
     <g id="text_5">
      <!-- 200000 -->
      <g transform="translate(175.524946 188.118438) scale(0.1 -0.1)">
       <defs>
        <path id="DejaVuSans-32" d="M 1228 531 
L 3431 531 
L 3431 0 
L 469 0 
L 469 531 
Q 828 903 1448 1529 
Q 2069 2156 2228 2338 
Q 2531 2678 2651 2914 
Q 2772 3150 2772 3378 
Q 2772 3750 2511 3984 
Q 2250 4219 1831 4219 
Q 1534 4219 1204 4116 
Q 875 4013 500 3803 
L 500 4441 
Q 881 4594 1212 4672 
Q 1544 4750 1819 4750 
Q 2544 4750 2975 4387 
Q 3406 4025 3406 3419 
Q 3406 3131 3298 2873 
Q 3191 2616 2906 2266 
Q 2828 2175 2409 1742 
Q 1991 1309 1228 531 
z
" transform="scale(0.015625)"/>
       </defs>
       <use xlink:href="#DejaVuSans-32"/>
       <use xlink:href="#DejaVuSans-30" x="63.623047"/>
       <use xlink:href="#DejaVuSans-30" x="127.246094"/>
       <use xlink:href="#DejaVuSans-30" x="190.869141"/>
       <use xlink:href="#DejaVuSans-30" x="254.492188"/>
       <use xlink:href="#DejaVuSans-30" x="318.115234"/>
      </g>
     </g>
    </g>
    <g id="xtick_6">
     <g id="line2d_6">
      <g>
       <use xlink:href="#m25037df8ab" x="227.001352" y="173.52" style="stroke: #000000; stroke-width: 0.8"/>
      </g>
     </g>
     <g id="text_6">
      <!-- 250000 -->
      <g transform="translate(207.913852 188.118438) scale(0.1 -0.1)">
       <use xlink:href="#DejaVuSans-32"/>
       <use xlink:href="#DejaVuSans-35" x="63.623047"/>
       <use xlink:href="#DejaVuSans-30" x="127.246094"/>
       <use xlink:href="#DejaVuSans-30" x="190.869141"/>
       <use xlink:href="#DejaVuSans-30" x="254.492188"/>
       <use xlink:href="#DejaVuSans-30" x="318.115234"/>
      </g>
     </g>
    </g>
    <g id="xtick_7">
     <g id="line2d_7">
      <g>
       <use xlink:href="#m25037df8ab" x="259.390259" y="173.52" style="stroke: #000000; stroke-width: 0.8"/>
      </g>
     </g>
     <g id="text_7">
      <!-- 300000 -->
      <g transform="translate(240.302759 188.118438) scale(0.1 -0.1)">
       <defs>
        <path id="DejaVuSans-33" d="M 2597 2516 
Q 3050 2419 3304 2112 
Q 3559 1806 3559 1356 
Q 3559 666 3084 287 
Q 2609 -91 1734 -91 
Q 1441 -91 1130 -33 
Q 819 25 488 141 
L 488 750 
Q 750 597 1062 519 
Q 1375 441 1716 441 
Q 2309 441 2620 675 
Q 2931 909 2931 1356 
Q 2931 1769 2642 2001 
Q 2353 2234 1838 2234 
L 1294 2234 
L 1294 2753 
L 1863 2753 
Q 2328 2753 2575 2939 
Q 2822 3125 2822 3475 
Q 2822 3834 2567 4026 
Q 2313 4219 1838 4219 
Q 1578 4219 1281 4162 
Q 984 4106 628 3988 
L 628 4550 
Q 988 4650 1302 4700 
Q 1616 4750 1894 4750 
Q 2613 4750 3031 4423 
Q 3450 4097 3450 3541 
Q 3450 3153 3228 2886 
Q 3006 2619 2597 2516 
z
" transform="scale(0.015625)"/>
       </defs>
       <use xlink:href="#DejaVuSans-33"/>
       <use xlink:href="#DejaVuSans-30" x="63.623047"/>
       <use xlink:href="#DejaVuSans-30" x="127.246094"/>
       <use xlink:href="#DejaVuSans-30" x="190.869141"/>
       <use xlink:href="#DejaVuSans-30" x="254.492188"/>
       <use xlink:href="#DejaVuSans-30" x="318.115234"/>
      </g>
     </g>
    </g>
    <g id="xtick_8">
     <g id="line2d_8">
      <g>
       <use xlink:href="#m25037df8ab" x="291.779166" y="173.52" style="stroke: #000000; stroke-width: 0.8"/>
      </g>
     </g>
     <g id="text_8">
      <!-- 350000 -->
      <g transform="translate(272.691666 188.118438) scale(0.1 -0.1)">
       <use xlink:href="#DejaVuSans-33"/>
       <use xlink:href="#DejaVuSans-35" x="63.623047"/>
       <use xlink:href="#DejaVuSans-30" x="127.246094"/>
       <use xlink:href="#DejaVuSans-30" x="190.869141"/>
       <use xlink:href="#DejaVuSans-30" x="254.492188"/>
       <use xlink:href="#DejaVuSans-30" x="318.115234"/>
      </g>
     </g>
    </g>
    <g id="xtick_9">
     <g id="line2d_9">
      <g>
       <use xlink:href="#m25037df8ab" x="324.168073" y="173.52" style="stroke: #000000; stroke-width: 0.8"/>
      </g>
     </g>
     <g id="text_9">
      <!-- 400000 -->
      <g transform="translate(305.080573 188.118438) scale(0.1 -0.1)">
       <defs>
        <path id="DejaVuSans-34" d="M 2419 4116 
L 825 1625 
L 2419 1625 
L 2419 4116 
z
M 2253 4666 
L 3047 4666 
L 3047 1625 
L 3713 1625 
L 3713 1100 
L 3047 1100 
L 3047 0 
L 2419 0 
L 2419 1100 
L 313 1100 
L 313 1709 
L 2253 4666 
z
" transform="scale(0.015625)"/>
       </defs>
       <use xlink:href="#DejaVuSans-34"/>
       <use xlink:href="#DejaVuSans-30" x="63.623047"/>
       <use xlink:href="#DejaVuSans-30" x="127.246094"/>
       <use xlink:href="#DejaVuSans-30" x="190.869141"/>
       <use xlink:href="#DejaVuSans-30" x="254.492188"/>
       <use xlink:href="#DejaVuSans-30" x="318.115234"/>
      </g>
     </g>
    </g>
   </g>
   <g id="matplotlib.axis_2">
    <g id="ytick_1">
     <g id="line2d_10">
      <defs>
       <path id="ma854bd836b" d="M 0 0 
L -3.5 0 
" style="stroke: #000000; stroke-width: 0.8"/>
      </defs>
      <g>
       <use xlink:href="#ma854bd836b" x="52.375" y="168.443981" style="stroke: #000000; stroke-width: 0.8"/>
      </g>
     </g>
     <g id="text_10">
      <!-- 0 -->
      <g transform="translate(39.0125 172.2432) scale(0.1 -0.1)">
       <use xlink:href="#DejaVuSans-30"/>
      </g>
     </g>
    </g>
    <g id="ytick_2">
     <g id="line2d_11">
      <g>
       <use xlink:href="#ma854bd836b" x="52.375" y="127.046061" style="stroke: #000000; stroke-width: 0.8"/>
      </g>
     </g>
     <g id="text_11">
      <!-- 100000 -->
      <g transform="translate(7.2 130.84528) scale(0.1 -0.1)">
       <use xlink:href="#DejaVuSans-31"/>
       <use xlink:href="#DejaVuSans-30" x="63.623047"/>
       <use xlink:href="#DejaVuSans-30" x="127.246094"/>
       <use xlink:href="#DejaVuSans-30" x="190.869141"/>
       <use xlink:href="#DejaVuSans-30" x="254.492188"/>
       <use xlink:href="#DejaVuSans-30" x="318.115234"/>
      </g>
     </g>
    </g>
    <g id="ytick_3">
     <g id="line2d_12">
      <g>
       <use xlink:href="#ma854bd836b" x="52.375" y="85.648142" style="stroke: #000000; stroke-width: 0.8"/>
      </g>
     </g>
     <g id="text_12">
      <!-- 200000 -->
      <g transform="translate(7.2 89.447361) scale(0.1 -0.1)">
       <use xlink:href="#DejaVuSans-32"/>
       <use xlink:href="#DejaVuSans-30" x="63.623047"/>
       <use xlink:href="#DejaVuSans-30" x="127.246094"/>
       <use xlink:href="#DejaVuSans-30" x="190.869141"/>
       <use xlink:href="#DejaVuSans-30" x="254.492188"/>
       <use xlink:href="#DejaVuSans-30" x="318.115234"/>
      </g>
     </g>
    </g>
    <g id="ytick_4">
     <g id="line2d_13">
      <g>
       <use xlink:href="#ma854bd836b" x="52.375" y="44.250222" style="stroke: #000000; stroke-width: 0.8"/>
      </g>
     </g>
     <g id="text_13">
      <!-- 300000 -->
      <g transform="translate(7.2 48.049441) scale(0.1 -0.1)">
       <use xlink:href="#DejaVuSans-33"/>
       <use xlink:href="#DejaVuSans-30" x="63.623047"/>
       <use xlink:href="#DejaVuSans-30" x="127.246094"/>
       <use xlink:href="#DejaVuSans-30" x="190.869141"/>
       <use xlink:href="#DejaVuSans-30" x="254.492188"/>
       <use xlink:href="#DejaVuSans-30" x="318.115234"/>
      </g>
     </g>
    </g>
   </g>
   <g id="line2d_14">
    <path d="M 52.375 172.944486 
L 331.375 19.285801 
" clip-path="url(#pfd20a4b2ac)" style="fill: none; stroke: #000000; stroke-width: 0.5; stroke-linecap: square"/>
   </g>
   <g id="patch_3">
    <path d="M 52.375 173.52 
L 52.375 7.2 
" style="fill: none; stroke: #000000; stroke-width: 0.8; stroke-linejoin: miter; stroke-linecap: square"/>
   </g>
   <g id="patch_4">
    <path d="M 331.375 173.52 
L 331.375 7.2 
" style="fill: none; stroke: #000000; stroke-width: 0.8; stroke-linejoin: miter; stroke-linecap: square"/>
   </g>
   <g id="patch_5">
    <path d="M 52.375 173.52 
L 331.375 173.52 
" style="fill: none; stroke: #000000; stroke-width: 0.8; stroke-linejoin: miter; stroke-linecap: square"/>
   </g>
   <g id="patch_6">
    <path d="M 52.375 7.2 
L 331.375 7.2 
" style="fill: none; stroke: #000000; stroke-width: 0.8; stroke-linejoin: miter; stroke-linecap: square"/>
   </g>
  </g>
 </g>
 <defs>
  <clipPath id="pfd20a4b2ac">
   <rect x="52.375" y="7.2" width="279" height="166.32"/>
  </clipPath>
 </defs>
</svg>
