<?xml version="1.0" encoding="utf-8" standalone="no"?>
<!DOCTYPE svg PUBLIC "-//W3C//DTD SVG 1.1//EN"
  "http://www.w3.org/Graphics/SVG/1.1/DTD/svg11.dtd">
<svg xmlns:xlink="http://www.w3.org/1999/xlink" width="313.149191pt" height="198.929344pt" viewBox="0 0 313.149191 198.929344" xmlns="http://www.w3.org/2000/svg" version="1.1">
 <metadata>
  <rdf:RDF xmlns:dc="http://purl.org/dc/elements/1.1/" xmlns:cc="http://creativecommons.org/ns#" xmlns:rdf="http://www.w3.org/1999/02/22-rdf-syntax-ns#">
   <cc:Work>
    <dc:type rdf:resource="http://purl.org/dc/dcmitype/StillImage"/>
    <dc:date>2026-02-10T23:35:23.847105</dc:date>
    <dc:format>image/svg+xml</dc:format>
    <dc:creator>
     <cc:Agent>
      <dc:title>Matplotlib v3.10.8, https://matplotlib.org/</dc:title>
     </cc:Agent>
    </dc:creator>
   </cc:Work>
  </rdf:RDF>
 </metadata>
 <defs>
  <style type="text/css">*{stroke-linejoin: round; stroke-linecap: butt}</style>
 </defs>
 <g id="figure_1">
  <g id="patch_1">
   <path d="M 0 198.929344 
L 313.149191 198.929344 
L 313.149191 0 
L 0 0 
z
" style="fill: #ffffff"/>
  </g>
  <g id="axes_1">
   <g id="patch_2">
    <path d="M 26.925 175.051219 
L 305.925 175.051219 
L 305.925 8.731219 
L 26.925 8.731219 
z
" style="fill: #ffffff"/>
   </g>
   <g id="matplotlib.axis_1">
    <g id="xtick_1">
     <g id="line2d_1">
      <defs>
       <path id="m7b437a8ca8" d="M 0 0 
L 0 3.5 
" style="stroke: #000000; stroke-width: 0.8"/>
      </defs>
      <g>
       <use xlink:href="#m7b437a8ca8" x="39.606818" y="175.051219" style="stroke: #000000; stroke-width: 0.8"/>
      </g>
     </g>
     <g id="text_1">
      <!-- 0 -->
      <g transform="translate(36.425568 189.649656) scale(0.1 -0.1)">
       <defs>
        <path id="DejaVuSans-30" d="M 2034 4250 
Q 1547 4250 1301 3770 
Q 1056 3291 1056 2328 
Q 1056 1369 1301 889 
Q 1547 409 2034 409 
Q 2525 409 2770 889 
Q 3016 1369 3016 2328 
Q 3016 3291 2770 3770 
Q 2525 4250 2034 4250 
z
M 2034 4750 
Q 2819 4750 3233 4129 
Q 3647 3509 3647 2328 
Q 3647 1150 3233 529 
Q 2819 -91 2034 -91 
Q 1250 -91 836 529 
Q 422 1150 422 2328 
Q 422 3509 836 4129 
Q 1250 4750 2034 4750 
z
" transform="scale(0.015625)"/>
       </defs>
       <use xlink:href="#DejaVuSans-30"/>
      </g>
     </g>
    </g>
    <g id="xtick_2">
     <g id="line2d_2">
      <g>
       <use xlink:href="#m7b437a8ca8" x="91.602793" y="175.051219" style="stroke: #000000; stroke-width: 0.8"/>
      </g>
     </g>
     <g id="text_2">
      <!-- 5 -->
      <g transform="translate(88.421543 189.649656) scale(0.1 -0.1)">
       <defs>
        <path id="DejaVuSans-35" d="M 691 4666 
L 3169 4666 
L 3169 4134 
L 1269 4134 
L 1269 2991 
Q 1406 3038 1543 3061 
Q 1681 3084 1819 3084 
Q 2600 3084 3056 2656 
Q 3513 2228 3513 1497 
Q 3513 744 3044 326 
Q 2575 -91 1722 -91 
Q 1428 -91 1123 -41 
Q 819 9 494 109 
L 494 744 
Q 775 591 1075 516 
Q 1375 441 1709 441 
Q 2250 441 2565 725 
Q 2881 1009 2881 1497 
Q 2881 1984 2565 2268 
Q 2250 2553 1709 2553 
Q 1456 2553 1204 2497 
Q 953 2441 691 2322 
L 691 4666 
z
" transform="scale(0.015625)"/>
       </defs>
       <use xlink:href="#DejaVuSans-35"/>
      </g>
     </g>
    </g>
    <g id="xtick_3">
     <g id="line2d_3">
      <g>
       <use xlink:href="#m7b437a8ca8" x="143.598767" y="175.051219" style="stroke: #000000; stroke-width: 0.8"/>
      </g>
     </g>
     <g id="text_3">
      <!-- 10 -->
      <g transform="translate(137.236267 189.649656) scale(0.1 -0.1)">
       <defs>
        <path id="DejaVuSans-31" d="M 794 531 
L 1825 531 
L 1825 4091 
L 703 3866 
L 703 4441 
L 1819 4666 
L 2450 4666 
L 2450 531 
L 3481 531 
L 3481 0 
L 794 0 
L 794 531 
z
" transform="scale(0.015625)"/>
       </defs>
       <use xlink:href="#DejaVuSans-31"/>
       <use xlink:href="#DejaVuSans-30" transform="translate(63.623047 0)"/>
      </g>
     </g>
    </g>
    <g id="xtick_4">
     <g id="line2d_4">
      <g>
       <use xlink:href="#m7b437a8ca8" x="195.594742" y="175.051219" style="stroke: #000000; stroke-width: 0.8"/>
      </g>
     </g>
     <g id="text_4">
      <!-- 15 -->
      <g transform="translate(189.232242 189.649656) scale(0.1 -0.1)">
       <use xlink:href="#DejaVuSans-31"/>
       <use xlink:href="#DejaVuSans-35" transform="translate(63.623047 0)"/>
      </g>
     </g>
    </g>
    <g id="xtick_5">
     <g id="line2d_5">
      <g>
       <use xlink:href="#m7b437a8ca8" x="247.590716" y="175.051219" style="stroke: #000000; stroke-width: 0.8"/>
      </g>
     </g>
     <g id="text_5">
      <!-- 20 -->
      <g transform="translate(241.228216 189.649656) scale(0.1 -0.1)">
       <defs>
        <path id="DejaVuSans-32" d="M 1228 531 
L 3431 531 
L 3431 0 
L 469 0 
L 469 531 
Q 828 903 1448 1529 
Q 2069 2156 2228 2338 
Q 2531 2678 2651 2914 
Q 2772 3150 2772 3378 
Q 2772 3750 2511 3984 
Q 2250 4219 1831 4219 
Q 1534 4219 1204 4116 
Q 875 4013 500 3803 
L 500 4441 
Q 881 4594 1212 4672 
Q 1544 4750 1819 4750 
Q 2544 4750 2975 4387 
Q 3406 4025 3406 3419 
Q 3406 3131 3298 2873 
Q 3191 2616 2906 2266 
Q 2828 2175 2409 1742 
Q 1991 1309 1228 531 
z
" transform="scale(0.015625)"/>
       </defs>
       <use xlink:href="#DejaVuSans-32"/>
       <use xlink:href="#DejaVuSans-30" transform="translate(63.623047 0)"/>
      </g>
     </g>
    </g>
    <g id="xtick_6">
     <g id="line2d_6">
      <g>
       <use xlink:href="#m7b437a8ca8" x="299.586691" y="175.051219" style="stroke: #000000; stroke-width: 0.8"/>
      </g>
     </g>
     <g id="text_6">
      <!-- 25 -->
      <g transform="translate(293.224191 189.649656) scale(0.1 -0.1)">
       <use xlink:href="#DejaVuSans-32"/>
       <use xlink:href="#DejaVuSans-35" transform="translate(63.623047 0)"/>
      </g>
     </g>
    </g>
   </g>
   <g id="matplotlib.axis_2">
    <g id="ytick_1">
     <g id="line2d_7">
      <defs>
       <path id="m3db09840ca" d="M 0 0 
L -3.5 0 
" style="stroke: #000000; stroke-width: 0.8"/>
      </defs>
      <g>
       <use xlink:href="#m3db09840ca" x="26.925" y="162.199219" style="stroke: #000000; stroke-width: 0.8"/>
      </g>
     </g>
     <g id="text_7">
      <!-- 10 -->
      <g transform="translate(7.2 165.998437) scale(0.1 -0.1)">
       <use xlink:href="#DejaVuSans-31"/>
       <use xlink:href="#DejaVuSans-30" transform="translate(63.623047 0)"/>
      </g>
     </g>
    </g>
    <g id="ytick_2">
     <g id="line2d_8">
      <g>
       <use xlink:href="#m3db09840ca" x="26.925" y="124.399219" style="stroke: #000000; stroke-width: 0.8"/>
      </g>
     </g>
     <g id="text_8">
      <!-- 20 -->
      <g transform="translate(7.2 128.198437) scale(0.1 -0.1)">
       <use xlink:href="#DejaVuSans-32"/>
       <use xlink:href="#DejaVuSans-30" transform="translate(63.623047 0)"/>
      </g>
     </g>
    </g>
    <g id="ytick_3">
     <g id="line2d_9">
      <g>
       <use xlink:href="#m3db09840ca" x="26.925" y="86.599219" style="stroke: #000000; stroke-width: 0.8"/>
      </g>
     </g>
     <g id="text_9">
      <!-- 30 -->
      <g transform="translate(7.2 90.398437) scale(0.1 -0.1)">
       <defs>
        <path id="DejaVuSans-33" d="M 2597 2516 
Q 3050 2419 3304 2112 
Q 3559 1806 3559 1356 
Q 3559 666 3084 287 
Q 2609 -91 1734 -91 
Q 1441 -91 1130 -33 
Q 819 25 488 141 
L 488 750 
Q 750 597 1062 519 
Q 1375 441 1716 441 
Q 2309 441 2620 675 
Q 2931 909 2931 1356 
Q 2931 1769 2642 2001 
Q 2353 2234 1838 2234 
L 1294 2234 
L 1294 2753 
L 1863 2753 
Q 2328 2753 2575 2939 
Q 2822 3125 2822 3475 
Q 2822 3834 2567 4026 
Q 2313 4219 1838 4219 
Q 1578 4219 1281 4162 
Q 984 4106 628 3988 
L 628 4550 
Q 988 4650 1302 4700 
Q 1616 4750 1894 4750 
Q 2613 4750 3031 4423 
Q 3450 4097 3450 3541 
Q 3450 3153 3228 2886 
Q 3006 2619 2597 2516 
z
" transform="scale(0.015625)"/>
       </defs>
       <use xlink:href="#DejaVuSans-33"/>
       <use xlink:href="#DejaVuSans-30" transform="translate(63.623047 0)"/>
      </g>
     </g>
    </g>
    <g id="ytick_4">
     <g id="line2d_10">
      <g>
       <use xlink:href="#m3db09840ca" x="26.925" y="48.799219" style="stroke: #000000; stroke-width: 0.8"/>
      </g>
     </g>
     <g id="text_10">
      <!-- 40 -->
      <g transform="translate(7.2 52.598437) scale(0.1 -0.1)">
       <defs>
        <path id="DejaVuSans-34" d="M 2419 4116 
L 825 1625 
L 2419 1625 
L 2419 4116 
z
M 2253 4666 
L 3047 4666 
L 3047 1625 
L 3713 1625 
L 3713 1100 
L 3047 1100 
L 3047 0 
L 2419 0 
L 2419 1100 
L 313 1100 
L 313 1709 
L 2253 4666 
z
" transform="scale(0.015625)"/>
       </defs>
       <use xlink:href="#DejaVuSans-34"/>
       <use xlink:href="#DejaVuSans-30" transform="translate(63.623047 0)"/>
      </g>
     </g>
    </g>
    <g id="ytick_5">
     <g id="line2d_11">
      <g>
       <use xlink:href="#m3db09840ca" x="26.925" y="10.999219" style="stroke: #000000; stroke-width: 0.8"/>
      </g>
     </g>
     <g id="text_11">
      <!-- 50 -->
      <g transform="translate(7.2 14.798437) scale(0.1 -0.1)">
       <use xlink:href="#DejaVuSans-35"/>
       <use xlink:href="#DejaVuSans-30" transform="translate(63.623047 0)"/>
      </g>
     </g>
    </g>
   </g>
   <g id="line2d_12">
    <defs>
     <path id="mf1a40c113a" d="M 0 3 
C 0.795609 3 1.55874 2.683901 2.12132 2.12132 
C 2.683901 1.55874 3 0.795609 3 0 
C 3 -0.795609 2.683901 -1.55874 2.12132 -2.12132 
C 1.55874 -2.683901 0.795609 -3 0 -3 
C -0.795609 -3 -1.55874 -2.683901 -2.12132 -2.12132 
C -2.683901 -1.55874 -3 -0.795609 -3 0 
C -3 0.795609 -2.683901 1.55874 -2.12132 2.12132 
C -1.55874 2.683901 -0.795609 3 0 3 
z
" style="stroke: #1f77b4"/>
    </defs>
    <g clip-path="url(#pcc1e19a4b1)">
     <use xlink:href="#mf1a40c113a" x="90.250897" y="47.287219" style="fill: #ffffff; stroke: #1f77b4"/>
     <use xlink:href="#mf1a40c113a" x="78.915775" y="54.469219" style="fill: #ffffff; stroke: #1f77b4"/>
     <use xlink:href="#mf1a40c113a" x="140.375017" y="134.983219" style="fill: #ffffff; stroke: #1f77b4"/>
     <use xlink:href="#mf1a40c113a" x="78.603799" y="16.291219" style="fill: #ffffff; stroke: #1f77b4"/>
     <use xlink:href="#mf1a40c113a" x="105.121746" y="64.675219" style="fill: #ffffff; stroke: #1f77b4"/>
     <use xlink:href="#mf1a40c113a" x="174.276392" y="97.939219" style="fill: #ffffff; stroke: #1f77b4"/>
     <use xlink:href="#mf1a40c113a" x="137.047274" y="98.317219" style="fill: #ffffff; stroke: #1f77b4"/>
     <use xlink:href="#mf1a40c113a" x="119.472635" y="107.767219" style="fill: #ffffff; stroke: #1f77b4"/>
     <use xlink:href="#mf1a40c113a" x="140.167033" y="127.801219" style="fill: #ffffff; stroke: #1f77b4"/>
     <use xlink:href="#mf1a40c113a" x="169.596754" y="148.591219" style="fill: #ffffff; stroke: #1f77b4"/>
     <use xlink:href="#mf1a40c113a" x="181.971796" y="155.017219" style="fill: #ffffff; stroke: #1f77b4"/>
     <use xlink:href="#mf1a40c113a" x="178.540062" y="124.777219" style="fill: #ffffff; stroke: #1f77b4"/>
     <use xlink:href="#mf1a40c113a" x="182.491756" y="124.399219" style="fill: #ffffff; stroke: #1f77b4"/>
     <use xlink:href="#mf1a40c113a" x="160.965423" y="157.663219" style="fill: #ffffff; stroke: #1f77b4"/>
     <use xlink:href="#mf1a40c113a" x="232.095916" y="143.677219" style="fill: #ffffff; stroke: #1f77b4"/>
     <use xlink:href="#mf1a40c113a" x="234.279747" y="141.787219" style="fill: #ffffff; stroke: #1f77b4"/>
     <use xlink:href="#mf1a40c113a" x="203.186154" y="152.749219" style="fill: #ffffff; stroke: #1f77b4"/>
     <use xlink:href="#mf1a40c113a" x="198.506516" y="149.725219" style="fill: #ffffff; stroke: #1f77b4"/>
     <use xlink:href="#mf1a40c113a" x="212.753413" y="147.835219" style="fill: #ffffff; stroke: #1f77b4"/>
     <use xlink:href="#mf1a40c113a" x="94.410575" y="58.249219" style="fill: #ffffff; stroke: #1f77b4"/>
     <use xlink:href="#mf1a40c113a" x="215.145228" y="154.261219" style="fill: #ffffff; stroke: #1f77b4"/>
     <use xlink:href="#mf1a40c113a" x="155.453849" y="145.567219" style="fill: #ffffff; stroke: #1f77b4"/>
     <use xlink:href="#mf1a40c113a" x="165.957036" y="145.189219" style="fill: #ffffff; stroke: #1f77b4"/>
     <use xlink:href="#mf1a40c113a" x="131.223725" y="100.585219" style="fill: #ffffff; stroke: #1f77b4"/>
     <use xlink:href="#mf1a40c113a" x="209.009703" y="150.481219" style="fill: #ffffff; stroke: #1f77b4"/>
     <use xlink:href="#mf1a40c113a" x="113.441102" y="91.891219" style="fill: #ffffff; stroke: #1f77b4"/>
     <use xlink:href="#mf1a40c113a" x="213.481357" y="134.983219" style="fill: #ffffff; stroke: #1f77b4"/>
     <use xlink:href="#mf1a40c113a" x="140.998968" y="113.437219" style="fill: #ffffff; stroke: #1f77b4"/>
     <use xlink:href="#mf1a40c113a" x="149.734292" y="114.193219" style="fill: #ffffff; stroke: #1f77b4"/>
     <use xlink:href="#mf1a40c113a" x="113.545094" y="65.809219" style="fill: #ffffff; stroke: #1f77b4"/>
     <use xlink:href="#mf1a40c113a" x="144.638687" y="143.677219" style="fill: #ffffff; stroke: #1f77b4"/>
     <use xlink:href="#mf1a40c113a" x="148.694373" y="155.395219" style="fill: #ffffff; stroke: #1f77b4"/>
     <use xlink:href="#mf1a40c113a" x="208.697727" y="153.883219" style="fill: #ffffff; stroke: #1f77b4"/>
     <use xlink:href="#mf1a40c113a" x="119.576627" y="94.537219" style="fill: #ffffff; stroke: #1f77b4"/>
     <use xlink:href="#mf1a40c113a" x="123.008361" y="130.069219" style="fill: #ffffff; stroke: #1f77b4"/>
     <use xlink:href="#mf1a40c113a" x="143.806751" y="120.241219" style="fill: #ffffff; stroke: #1f77b4"/>
     <use xlink:href="#mf1a40c113a" x="95.762471" y="52.579219" style="fill: #ffffff; stroke: #1f77b4"/>
     <use xlink:href="#mf1a40c113a" x="125.816144" y="111.169219" style="fill: #ffffff; stroke: #1f77b4"/>
     <use xlink:href="#mf1a40c113a" x="248.422652" y="157.285219" style="fill: #ffffff; stroke: #1f77b4"/>
     <use xlink:href="#mf1a40c113a" x="227.416278" y="152.371219" style="fill: #ffffff; stroke: #1f77b4"/>
     <use xlink:href="#mf1a40c113a" x="244.158982" y="158.419219" style="fill: #ffffff; stroke: #1f77b4"/>
     <use xlink:href="#mf1a40c113a" x="238.751401" y="156.529219" style="fill: #ffffff; stroke: #1f77b4"/>
     <use xlink:href="#mf1a40c113a" x="235.839626" y="153.883219" style="fill: #ffffff; stroke: #1f77b4"/>
     <use xlink:href="#mf1a40c113a" x="157.63768" y="163.711219" style="fill: #ffffff; stroke: #1f77b4"/>
     <use xlink:href="#mf1a40c113a" x="155.141874" y="136.873219" style="fill: #ffffff; stroke: #1f77b4"/>
     <use xlink:href="#mf1a40c113a" x="164.293165" y="146.701219" style="fill: #ffffff; stroke: #1f77b4"/>
     <use xlink:href="#mf1a40c113a" x="215.76918" y="167.113219" style="fill: #ffffff; stroke: #1f77b4"/>
     <use xlink:href="#mf1a40c113a" x="221.592729" y="156.907219" style="fill: #ffffff; stroke: #1f77b4"/>
     <use xlink:href="#mf1a40c113a" x="144.846671" y="167.491219" style="fill: #ffffff; stroke: #1f77b4"/>
     <use xlink:href="#mf1a40c113a" x="163.253246" y="166.357219" style="fill: #ffffff; stroke: #1f77b4"/>
     <use xlink:href="#mf1a40c113a" x="137.35925" y="112.681219" style="fill: #ffffff; stroke: #1f77b4"/>
     <use xlink:href="#mf1a40c113a" x="174.276392" y="165.223219" style="fill: #ffffff; stroke: #1f77b4"/>
     <use xlink:href="#mf1a40c113a" x="175.732279" y="165.223219" style="fill: #ffffff; stroke: #1f77b4"/>
     <use xlink:href="#mf1a40c113a" x="135.383403" y="155.017219" style="fill: #ffffff; stroke: #1f77b4"/>
     <use xlink:href="#mf1a40c113a" x="153.685986" y="131.203219" style="fill: #ffffff; stroke: #1f77b4"/>
     <use xlink:href="#mf1a40c113a" x="121.86445" y="159.553219" style="fill: #ffffff; stroke: #1f77b4"/>
     <use xlink:href="#mf1a40c113a" x="186.131474" y="161.065219" style="fill: #ffffff; stroke: #1f77b4"/>
     <use xlink:href="#mf1a40c113a" x="147.446469" y="150.481219" style="fill: #ffffff; stroke: #1f77b4"/>
     <use xlink:href="#mf1a40c113a" x="166.373004" y="159.553219" style="fill: #ffffff; stroke: #1f77b4"/>
     <use xlink:href="#mf1a40c113a" x="162.005342" y="164.089219" style="fill: #ffffff; stroke: #1f77b4"/>
     <use xlink:href="#mf1a40c113a" x="193.410911" y="158.041219" style="fill: #ffffff; stroke: #1f77b4"/>
     <use xlink:href="#mf1a40c113a" x="199.130468" y="151.993219" style="fill: #ffffff; stroke: #1f77b4"/>
     <use xlink:href="#mf1a40c113a" x="235.111682" y="155.773219" style="fill: #ffffff; stroke: #1f77b4"/>
     <use xlink:href="#mf1a40c113a" x="175.004336" y="155.773219" style="fill: #ffffff; stroke: #1f77b4"/>
     <use xlink:href="#mf1a40c113a" x="228.768173" y="150.481219" style="fill: #ffffff; stroke: #1f77b4"/>
     <use xlink:href="#mf1a40c113a" x="293.243182" y="159.175219" style="fill: #ffffff; stroke: #1f77b4"/>
     <use xlink:href="#mf1a40c113a" x="176.044255" y="153.127219" style="fill: #ffffff; stroke: #1f77b4"/>
     <use xlink:href="#mf1a40c113a" x="168.868811" y="153.883219" style="fill: #ffffff; stroke: #1f77b4"/>
     <use xlink:href="#mf1a40c113a" x="184.155627" y="140.653219" style="fill: #ffffff; stroke: #1f77b4"/>
     <use xlink:href="#mf1a40c113a" x="163.357238" y="138.007219" style="fill: #ffffff; stroke: #1f77b4"/>
     <use xlink:href="#mf1a40c113a" x="99.298197" y="92.269219" style="fill: #ffffff; stroke: #1f77b4"/>
     <use xlink:href="#mf1a40c113a" x="173.548449" y="153.883219" style="fill: #ffffff; stroke: #1f77b4"/>
     <use xlink:href="#mf1a40c113a" x="209.321679" y="164.845219" style="fill: #ffffff; stroke: #1f77b4"/>
     <use xlink:href="#mf1a40c113a" x="156.077801" y="138.007219" style="fill: #ffffff; stroke: #1f77b4"/>
     <use xlink:href="#mf1a40c113a" x="231.991924" y="128.557219" style="fill: #ffffff; stroke: #1f77b4"/>
     <use xlink:href="#mf1a40c113a" x="129.663846" y="98.695219" style="fill: #ffffff; stroke: #1f77b4"/>
     <use xlink:href="#mf1a40c113a" x="150.774212" y="139.897219" style="fill: #ffffff; stroke: #1f77b4"/>
     <use xlink:href="#mf1a40c113a" x="154.41393" y="143.677219" style="fill: #ffffff; stroke: #1f77b4"/>
     <use xlink:href="#mf1a40c113a" x="154.725906" y="156.529219" style="fill: #ffffff; stroke: #1f77b4"/>
     <use xlink:href="#mf1a40c113a" x="161.797358" y="144.433219" style="fill: #ffffff; stroke: #1f77b4"/>
     <use xlink:href="#mf1a40c113a" x="202.354218" y="146.701219" style="fill: #ffffff; stroke: #1f77b4"/>
     <use xlink:href="#mf1a40c113a" x="182.17978" y="160.687219" style="fill: #ffffff; stroke: #1f77b4"/>
     <use xlink:href="#mf1a40c113a" x="145.36663" y="151.615219" style="fill: #ffffff; stroke: #1f77b4"/>
     <use xlink:href="#mf1a40c113a" x="187.171394" y="151.993219" style="fill: #ffffff; stroke: #1f77b4"/>
    </g>
   </g>
   <g id="line2d_13">
    <path d="M 26.925 62.729389 
L 247.569166 175.051219 
" clip-path="url(#pcc1e19a4b1)" style="fill: none; stroke: #1f77b4; stroke-width: 1.5; stroke-linecap: square"/>
   </g>
   <g id="line2d_14">
    <path d="M 26.925 99.717961 
L 286.88824 175.051219 
" clip-path="url(#pcc1e19a4b1)" style="fill: none; stroke-dasharray: 1.5,2.475; stroke-dashoffset: 0; stroke: #1f77b4; stroke-width: 1.5"/>
   </g>
   <g id="patch_3">
    <path d="M 26.925 175.051219 
L 26.925 8.731219 
" style="fill: none; stroke: #000000; stroke-width: 0.8; stroke-linejoin: miter; stroke-linecap: square"/>
   </g>
   <g id="patch_4">
    <path d="M 305.925 175.051219 
L 305.925 8.731219 
" style="fill: none; stroke: #000000; stroke-width: 0.8; stroke-linejoin: miter; stroke-linecap: square"/>
   </g>
   <g id="patch_5">
    <path d="M 26.925 175.051219 
L 305.925 175.051219 
" style="fill: none; stroke: #000000; stroke-width: 0.8; stroke-linejoin: miter; stroke-linecap: square"/>
   </g>
   <g id="patch_6">
    <path d="M 26.925 8.731219 
L 305.925 8.731219 
" style="fill: none; stroke: #000000; stroke-width: 0.8; stroke-linejoin: miter; stroke-linecap: square"/>
   </g>
  </g>
 </g>
 <defs>
  <clipPath id="pcc1e19a4b1">
   <rect x="26.925" y="8.731219" width="279" height="166.32"/>
  </clipPath>
 </defs>
</svg>
