<?xml version="1.0" encoding="utf-8" standalone="no"?>
<!DOCTYPE svg PUBLIC "-//W3C//DTD SVG 1.1//EN"
  "http://www.w3.org/Graphics/SVG/1.1/DTD/svg11.dtd">
<svg xmlns:xlink="http://www.w3.org/1999/xlink" width="322.665625pt" height="197.398125pt" viewBox="0 0 322.665625 197.398125" xmlns="http://www.w3.org/2000/svg" version="1.1">
 <metadata>
  <rdf:RDF xmlns:dc="http://purl.org/dc/elements/1.1/" xmlns:cc="http://creativecommons.org/ns#" xmlns:rdf="http://www.w3.org/1999/02/22-rdf-syntax-ns#">
   <cc:Work>
    <dc:type rdf:resource="http://purl.org/dc/dcmitype/StillImage"/>
    <dc:date>2026-02-11T11:45:30.692970</dc:date>
    <dc:format>image/svg+xml</dc:format>
    <dc:creator>
     <cc:Agent>
      <dc:title>Matplotlib v3.9.1.post1, https://matplotlib.org/</dc:title>
     </cc:Agent>
    </dc:creator>
   </cc:Work>
  </rdf:RDF>
 </metadata>
 <defs>
  <style type="text/css">*{stroke-linejoin: round; stroke-linecap: butt}</style>
 </defs>
 <g id="figure_1">
  <g id="patch_1">
   <path d="M 0 197.398125 
L 322.665625 197.398125 
L 322.665625 0 
L 0 0 
z
" style="fill: #ffffff"/>
  </g>
  <g id="axes_1">
   <g id="patch_2">
    <path d="M 36.465625 173.52 
L 315.465625 173.52 
L 315.465625 7.2 
L 36.465625 7.2 
z
" style="fill: #ffffff"/>
   </g>
   <g id="PathCollection_1">
    <defs>
     <path id="m6e3fae4e61" d="M 0 3 
C 0.795609 3 1.55874 2.683901 2.12132 2.12132 
C 2.683901 1.55874 3 0.795609 3 0 
C 3 -0.795609 2.683901 -1.55874 2.12132 -2.12132 
C 1.55874 -2.683901 0.795609 -3 0 -3 
C -0.795609 -3 -1.55874 -2.683901 -2.12132 -2.12132 
C -2.683901 -1.55874 -3 -0.795609 -3 0 
C -3 0.795609 -2.683901 1.55874 -2.12132 2.12132 
C -1.55874 2.683901 -0.795609 3 0 3 
z
" style="stroke: #000000"/>
    </defs>
    <g clip-path="url(#pc264bc6356)">
     <use xlink:href="#m6e3fae4e61" x="192.045125" y="125.648981" style="fill: #ffffff; stroke: #000000"/>
     <use xlink:href="#m6e3fae4e61" x="118.880884" y="112.882399" style="fill: #ffffff; stroke: #000000"/>
     <use xlink:href="#m6e3fae4e61" x="206.516504" y="97.289999" style="fill: #ffffff; stroke: #000000"/>
     <use xlink:href="#m6e3fae4e61" x="153.55345" y="90.529091" style="fill: #ffffff; stroke: #000000"/>
     <use xlink:href="#m6e3fae4e61" x="145.686369" y="90.529091" style="fill: #ffffff; stroke: #000000"/>
     <use xlink:href="#m6e3fae4e61" x="153.55345" y="87.075125" style="fill: #ffffff; stroke: #000000"/>
     <use xlink:href="#m6e3fae4e61" x="169.709981" y="71.975678" style="fill: #ffffff; stroke: #000000"/>
     <use xlink:href="#m6e3fae4e61" x="185.079728" y="67.735546" style="fill: #ffffff; stroke: #000000"/>
     <use xlink:href="#m6e3fae4e61" x="215.488257" y="66.429609" style="fill: #ffffff; stroke: #000000"/>
     <use xlink:href="#m6e3fae4e61" x="52.517936" y="159.980017" style="fill: #ffffff; stroke: #000000"/>
     <use xlink:href="#m6e3fae4e61" x="112.036175" y="137.626709" style="fill: #ffffff; stroke: #000000"/>
     <use xlink:href="#m6e3fae4e61" x="127.405922" y="128.474799" style="fill: #ffffff; stroke: #000000"/>
     <use xlink:href="#m6e3fae4e61" x="169.356607" y="114.468197" style="fill: #ffffff; stroke: #000000"/>
     <use xlink:href="#m6e3fae4e61" x="149.125309" y="133.630355" style="fill: #ffffff; stroke: #000000"/>
     <use xlink:href="#m6e3fae4e61" x="116.645105" y="121.156317" style="fill: #ffffff; stroke: #000000"/>
     <use xlink:href="#m6e3fae4e61" x="162.423381" y="120.460998" style="fill: #ffffff; stroke: #000000"/>
     <use xlink:href="#m6e3fae4e61" x="178.093802" y="89.360626" style="fill: #ffffff; stroke: #000000"/>
     <use xlink:href="#m6e3fae4e61" x="141.68807" y="89.942662" style="fill: #ffffff; stroke: #000000"/>
     <use xlink:href="#m6e3fae4e61" x="162.924061" y="85.9571" style="fill: #ffffff; stroke: #000000"/>
     <use xlink:href="#m6e3fae4e61" x="79.555972" y="122.034309" style="fill: #ffffff; stroke: #000000"/>
     <use xlink:href="#m6e3fae4e61" x="119.982386" y="123.820627" style="fill: #ffffff; stroke: #000000"/>
     <use xlink:href="#m6e3fae4e61" x="129.103745" y="104.978802" style="fill: #ffffff; stroke: #000000"/>
     <use xlink:href="#m6e3fae4e61" x="150.248732" y="62.228509" style="fill: #ffffff; stroke: #000000"/>
     <use xlink:href="#m6e3fae4e61" x="138.166739" y="133.425608" style="fill: #ffffff; stroke: #000000"/>
     <use xlink:href="#m6e3fae4e61" x="91.451502" y="165.202233" style="fill: #ffffff; stroke: #000000"/>
     <use xlink:href="#m6e3fae4e61" x="216.425217" y="103.295672" style="fill: #ffffff; stroke: #000000"/>
     <use xlink:href="#m6e3fae4e61" x="159.886125" y="138.71346" style="fill: #ffffff; stroke: #000000"/>
     <use xlink:href="#m6e3fae4e61" x="91.451502" y="151.793354" style="fill: #ffffff; stroke: #000000"/>
     <use xlink:href="#m6e3fae4e61" x="170.179434" y="106.12149" style="fill: #ffffff; stroke: #000000"/>
     <use xlink:href="#m6e3fae4e61" x="185.079728" y="97.934828" style="fill: #ffffff; stroke: #000000"/>
     <use xlink:href="#m6e3fae4e61" x="175.218543" y="97.934828" style="fill: #ffffff; stroke: #000000"/>
     <use xlink:href="#m6e3fae4e61" x="151.775411" y="85.9571" style="fill: #ffffff; stroke: #000000"/>
     <use xlink:href="#m6e3fae4e61" x="122.153667" y="110.562781" style="fill: #ffffff; stroke: #000000"/>
     <use xlink:href="#m6e3fae4e61" x="94.925719" y="142.067999" style="fill: #ffffff; stroke: #000000"/>
     <use xlink:href="#m6e3fae4e61" x="124.283978" y="139.815626" style="fill: #ffffff; stroke: #000000"/>
     <use xlink:href="#m6e3fae4e61" x="123.223847" y="137.626709" style="fill: #ffffff; stroke: #000000"/>
     <use xlink:href="#m6e3fae4e61" x="49.147443" y="120.288136" style="fill: #ffffff; stroke: #000000"/>
     <use xlink:href="#m6e3fae4e61" x="155.70405" y="112.101473" style="fill: #ffffff; stroke: #000000"/>
     <use xlink:href="#m6e3fae4e61" x="138.787087" y="112.101473" style="fill: #ffffff; stroke: #000000"/>
     <use xlink:href="#m6e3fae4e61" x="125.334247" y="123.820627" style="fill: #ffffff; stroke: #000000"/>
     <use xlink:href="#m6e3fae4e61" x="203.592726" y="101.92039" style="fill: #ffffff; stroke: #000000"/>
     <use xlink:href="#m6e3fae4e61" x="122.153667" y="77.548749" style="fill: #ffffff; stroke: #000000"/>
     <use xlink:href="#m6e3fae4e61" x="196.027008" y="116.909281" style="fill: #ffffff; stroke: #000000"/>
     <use xlink:href="#m6e3fae4e61" x="234.228496" y="39.061566" style="fill: #ffffff; stroke: #000000"/>
     <use xlink:href="#m6e3fae4e61" x="228.087236" y="41.842431" style="fill: #ffffff; stroke: #000000"/>
     <use xlink:href="#m6e3fae4e61" x="230.858004" y="106.265515" style="fill: #ffffff; stroke: #000000"/>
     <use xlink:href="#m6e3fae4e61" x="230.858004" y="98.064438" style="fill: #ffffff; stroke: #000000"/>
     <use xlink:href="#m6e3fae4e61" x="162.423381" y="101.92039" style="fill: #ffffff; stroke: #000000"/>
     <use xlink:href="#m6e3fae4e61" x="127.405922" y="76.558909" style="fill: #ffffff; stroke: #000000"/>
     <use xlink:href="#m6e3fae4e61" x="157.81445" y="40.904374" style="fill: #ffffff; stroke: #000000"/>
     <use xlink:href="#m6e3fae4e61" x="174.138122" y="100.569027" style="fill: #ffffff; stroke: #000000"/>
     <use xlink:href="#m6e3fae4e61" x="139.711265" y="99.902058" style="fill: #ffffff; stroke: #000000"/>
     <use xlink:href="#m6e3fae4e61" x="116.645105" y="82.696421" style="fill: #ffffff; stroke: #000000"/>
     <use xlink:href="#m6e3fae4e61" x="176.022127" y="123.820627" style="fill: #ffffff; stroke: #000000"/>
     <use xlink:href="#m6e3fae4e61" x="174.318912" y="64.721817" style="fill: #ffffff; stroke: #000000"/>
     <use xlink:href="#m6e3fae4e61" x="142.139383" y="63.881793" style="fill: #ffffff; stroke: #000000"/>
     <use xlink:href="#m6e3fae4e61" x="149.125309" y="62.638544" style="fill: #ffffff; stroke: #000000"/>
     <use xlink:href="#m6e3fae4e61" x="157.290537" y="53.349715" style="fill: #ffffff; stroke: #000000"/>
     <use xlink:href="#m6e3fae4e61" x="170.646942" y="98.585053" style="fill: #ffffff; stroke: #000000"/>
     <use xlink:href="#m6e3fae4e61" x="194.148377" y="46.043531" style="fill: #ffffff; stroke: #000000"/>
     <use xlink:href="#m6e3fae4e61" x="238.144604" y="42.474153" style="fill: #ffffff; stroke: #000000"/>
     <use xlink:href="#m6e3fae4e61" x="163.918808" y="41.842431" style="fill: #ffffff; stroke: #000000"/>
     <use xlink:href="#m6e3fae4e61" x="164.904868" y="39.670992" style="fill: #ffffff; stroke: #000000"/>
     <use xlink:href="#m6e3fae4e61" x="144.810015" y="121.156317" style="fill: #ffffff; stroke: #000000"/>
     <use xlink:href="#m6e3fae4e61" x="172.037963" y="112.257032" style="fill: #ffffff; stroke: #000000"/>
     <use xlink:href="#m6e3fae4e61" x="144.810015" y="111.328318" style="fill: #ffffff; stroke: #000000"/>
     <use xlink:href="#m6e3fae4e61" x="142.139383" y="91.715395" style="fill: #ffffff; stroke: #000000"/>
     <use xlink:href="#m6e3fae4e61" x="159.113695" y="118.580344" style="fill: #ffffff; stroke: #000000"/>
     <use xlink:href="#m6e3fae4e61" x="141.838708" y="123.820627" style="fill: #ffffff; stroke: #000000"/>
     <use xlink:href="#m6e3fae4e61" x="116.645105" y="103.295672" style="fill: #ffffff; stroke: #000000"/>
     <use xlink:href="#m6e3fae4e61" x="102.639174" y="129.440046" style="fill: #ffffff; stroke: #000000"/>
     <use xlink:href="#m6e3fae4e61" x="162.423381" y="101.580339" style="fill: #ffffff; stroke: #000000"/>
     <use xlink:href="#m6e3fae4e61" x="80.337311" y="96.650477" style="fill: #ffffff; stroke: #000000"/>
     <use xlink:href="#m6e3fae4e61" x="162.423381" y="95.387012" style="fill: #ffffff; stroke: #000000"/>
     <use xlink:href="#m6e3fae4e61" x="132.424665" y="98.064438" style="fill: #ffffff; stroke: #000000"/>
     <use xlink:href="#m6e3fae4e61" x="116.645105" y="138.71346" style="fill: #ffffff; stroke: #000000"/>
     <use xlink:href="#m6e3fae4e61" x="137.229778" y="125.648981" style="fill: #ffffff; stroke: #000000"/>
     <use xlink:href="#m6e3fae4e61" x="141.838708" y="115.273401" style="fill: #ffffff; stroke: #000000"/>
     <use xlink:href="#m6e3fae4e61" x="114.862288" y="97.934828" style="fill: #ffffff; stroke: #000000"/>
     <use xlink:href="#m6e3fae4e61" x="148.218451" y="94.143762" style="fill: #ffffff; stroke: #000000"/>
     <use xlink:href="#m6e3fae4e61" x="122.582957" y="93.041596" style="fill: #ffffff; stroke: #000000"/>
     <use xlink:href="#m6e3fae4e61" x="113.206166" y="165.96" style="fill: #ffffff; stroke: #000000"/>
     <use xlink:href="#m6e3fae4e61" x="78.241601" y="112.101473" style="fill: #ffffff; stroke: #000000"/>
     <use xlink:href="#m6e3fae4e61" x="121.073246" y="107.720641" style="fill: #ffffff; stroke: #000000"/>
     <use xlink:href="#m6e3fae4e61" x="151.222641" y="95.387012" style="fill: #ffffff; stroke: #000000"/>
     <use xlink:href="#m6e3fae4e61" x="131.107995" y="82.166034" style="fill: #ffffff; stroke: #000000"/>
     <use xlink:href="#m6e3fae4e61" x="108.855595" y="133.425608" style="fill: #ffffff; stroke: #000000"/>
     <use xlink:href="#m6e3fae4e61" x="120.347179" y="115.273401" style="fill: #ffffff; stroke: #000000"/>
     <use xlink:href="#m6e3fae4e61" x="68.00837" y="146.778619" style="fill: #ffffff; stroke: #000000"/>
     <use xlink:href="#m6e3fae4e61" x="92.854044" y="133.425608" style="fill: #ffffff; stroke: #000000"/>
     <use xlink:href="#m6e3fae4e61" x="157.81445" y="118.580344" style="fill: #ffffff; stroke: #000000"/>
     <use xlink:href="#m6e3fae4e61" x="117.991878" y="112.101473" style="fill: #ffffff; stroke: #000000"/>
     <use xlink:href="#m6e3fae4e61" x="138.166739" y="101.241771" style="fill: #ffffff; stroke: #000000"/>
     <use xlink:href="#m6e3fae4e61" x="123.223847" y="81.115999" style="fill: #ffffff; stroke: #000000"/>
     <use xlink:href="#m6e3fae4e61" x="148.842698" y="112.101473" style="fill: #ffffff; stroke: #000000"/>
     <use xlink:href="#m6e3fae4e61" x="158.335944" y="100.569027" style="fill: #ffffff; stroke: #000000"/>
     <use xlink:href="#m6e3fae4e61" x="134.371318" y="93.041596" style="fill: #ffffff; stroke: #000000"/>
     <use xlink:href="#m6e3fae4e61" x="184.977042" y="120.80788" style="fill: #ffffff; stroke: #000000"/>
     <use xlink:href="#m6e3fae4e61" x="218.947266" y="112.101473" style="fill: #ffffff; stroke: #000000"/>
     <use xlink:href="#m6e3fae4e61" x="138.166739" y="89.360626" style="fill: #ffffff; stroke: #000000"/>
     <use xlink:href="#m6e3fae4e61" x="133.402187" y="125.648981" style="fill: #ffffff; stroke: #000000"/>
     <use xlink:href="#m6e3fae4e61" x="132.751447" y="101.241771" style="fill: #ffffff; stroke: #000000"/>
     <use xlink:href="#m6e3fae4e61" x="147.990594" y="129.440046" style="fill: #ffffff; stroke: #000000"/>
     <use xlink:href="#m6e3fae4e61" x="158.59579" y="128.474799" style="fill: #ffffff; stroke: #000000"/>
     <use xlink:href="#m6e3fae4e61" x="136.284976" y="109.053968" style="fill: #ffffff; stroke: #000000"/>
     <use xlink:href="#m6e3fae4e61" x="137.229778" y="107.573896" style="fill: #ffffff; stroke: #000000"/>
     <use xlink:href="#m6e3fae4e61" x="133.402187" y="112.101473" style="fill: #ffffff; stroke: #000000"/>
     <use xlink:href="#m6e3fae4e61" x="87.866975" y="97.934828" style="fill: #ffffff; stroke: #000000"/>
     <use xlink:href="#m6e3fae4e61" x="147.990594" y="64.30067" style="fill: #ffffff; stroke: #000000"/>
     <use xlink:href="#m6e3fae4e61" x="104.749575" y="115.435447" style="fill: #ffffff; stroke: #000000"/>
     <use xlink:href="#m6e3fae4e61" x="123.223847" y="109.053968" style="fill: #ffffff; stroke: #000000"/>
     <use xlink:href="#m6e3fae4e61" x="122.153667" y="125.648981" style="fill: #ffffff; stroke: #000000"/>
     <use xlink:href="#m6e3fae4e61" x="134.371318" y="92.315409" style="fill: #ffffff; stroke: #000000"/>
     <use xlink:href="#m6e3fae4e61" x="121.073246" y="118.580344" style="fill: #ffffff; stroke: #000000"/>
     <use xlink:href="#m6e3fae4e61" x="154.63387" y="85.846177" style="fill: #ffffff; stroke: #000000"/>
     <use xlink:href="#m6e3fae4e61" x="108.855595" y="85.074119" style="fill: #ffffff; stroke: #000000"/>
     <use xlink:href="#m6e3fae4e61" x="200.787864" y="88.209473" style="fill: #ffffff; stroke: #000000"/>
     <use xlink:href="#m6e3fae4e61" x="138.787087" y="76.558909" style="fill: #ffffff; stroke: #000000"/>
     <use xlink:href="#m6e3fae4e61" x="144.810015" y="165.96" style="fill: #ffffff; stroke: #000000"/>
     <use xlink:href="#m6e3fae4e61" x="169.002122" y="85.9571" style="fill: #ffffff; stroke: #000000"/>
     <use xlink:href="#m6e3fae4e61" x="148.275344" y="145.573922" style="fill: #ffffff; stroke: #000000"/>
     <use xlink:href="#m6e3fae4e61" x="205.920708" y="125.648981" style="fill: #ffffff; stroke: #000000"/>
     <use xlink:href="#m6e3fae4e61" x="132.424665" y="120.288136" style="fill: #ffffff; stroke: #000000"/>
     <use xlink:href="#m6e3fae4e61" x="132.424665" y="114.468197" style="fill: #ffffff; stroke: #000000"/>
     <use xlink:href="#m6e3fae4e61" x="164.904868" y="97.934828" style="fill: #ffffff; stroke: #000000"/>
     <use xlink:href="#m6e3fae4e61" x="132.424665" y="92.315409" style="fill: #ffffff; stroke: #000000"/>
     <use xlink:href="#m6e3fae4e61" x="138.477339" y="97.934828" style="fill: #ffffff; stroke: #000000"/>
     <use xlink:href="#m6e3fae4e61" x="138.477339" y="91.715395" style="fill: #ffffff; stroke: #000000"/>
     <use xlink:href="#m6e3fae4e61" x="188.715563" y="90.529091" style="fill: #ffffff; stroke: #000000"/>
     <use xlink:href="#m6e3fae4e61" x="200.412146" y="85.9571" style="fill: #ffffff; stroke: #000000"/>
     <use xlink:href="#m6e3fae4e61" x="149.125309" y="91.119979" style="fill: #ffffff; stroke: #000000"/>
     <use xlink:href="#m6e3fae4e61" x="147.990594" y="101.92039" style="fill: #ffffff; stroke: #000000"/>
     <use xlink:href="#m6e3fae4e61" x="194.148377" y="109.053968" style="fill: #ffffff; stroke: #000000"/>
     <use xlink:href="#m6e3fae4e61" x="151.913182" y="66.429609" style="fill: #ffffff; stroke: #000000"/>
     <use xlink:href="#m6e3fae4e61" x="240.68186" y="120.288136" style="fill: #ffffff; stroke: #000000"/>
     <use xlink:href="#m6e3fae4e61" x="98.296211" y="91.715395" style="fill: #ffffff; stroke: #000000"/>
     <use xlink:href="#m6e3fae4e61" x="214.733049" y="104.695736" style="fill: #ffffff; stroke: #000000"/>
     <use xlink:href="#m6e3fae4e61" x="149.125309" y="133.425608" style="fill: #ffffff; stroke: #000000"/>
     <use xlink:href="#m6e3fae4e61" x="149.125309" y="131.407276" style="fill: #ffffff; stroke: #000000"/>
     <use xlink:href="#m6e3fae4e61" x="121.073246" y="112.101473" style="fill: #ffffff; stroke: #000000"/>
     <use xlink:href="#m6e3fae4e61" x="228.507211" y="103.295672" style="fill: #ffffff; stroke: #000000"/>
     <use xlink:href="#m6e3fae4e61" x="151.361087" y="98.585053" style="fill: #ffffff; stroke: #000000"/>
     <use xlink:href="#m6e3fae4e61" x="191.075993" y="97.934828" style="fill: #ffffff; stroke: #000000"/>
     <use xlink:href="#m6e3fae4e61" x="183.008053" y="101.241771" style="fill: #ffffff; stroke: #000000"/>
     <use xlink:href="#m6e3fae4e61" x="116.645105" y="85.9571" style="fill: #ffffff; stroke: #000000"/>
     <use xlink:href="#m6e3fae4e61" x="185.079728" y="80.596255" style="fill: #ffffff; stroke: #000000"/>
     <use xlink:href="#m6e3fae4e61" x="203.068812" y="78.652339" style="fill: #ffffff; stroke: #000000"/>
     <use xlink:href="#m6e3fae4e61" x="174.318912" y="75.58152" style="fill: #ffffff; stroke: #000000"/>
     <use xlink:href="#m6e3fae4e61" x="174.318912" y="73.662868" style="fill: #ffffff; stroke: #000000"/>
     <use xlink:href="#m6e3fae4e61" x="178.747053" y="72.721021" style="fill: #ffffff; stroke: #000000"/>
     <use xlink:href="#m6e3fae4e61" x="185.079728" y="71.883011" style="fill: #ffffff; stroke: #000000"/>
     <use xlink:href="#m6e3fae4e61" x="201.304665" y="67.735546" style="fill: #ffffff; stroke: #000000"/>
     <use xlink:href="#m6e3fae4e61" x="230.858004" y="63.881793" style="fill: #ffffff; stroke: #000000"/>
     <use xlink:href="#m6e3fae4e61" x="194.903584" y="59.812726" style="fill: #ffffff; stroke: #000000"/>
     <use xlink:href="#m6e3fae4e61" x="223.068493" y="59.417298" style="fill: #ffffff; stroke: #000000"/>
     <use xlink:href="#m6e3fae4e61" x="239.166359" y="59.023872" style="fill: #ffffff; stroke: #000000"/>
     <use xlink:href="#m6e3fae4e61" x="203.592726" y="50.837209" style="fill: #ffffff; stroke: #000000"/>
     <use xlink:href="#m6e3fae4e61" x="212.307677" y="47.085173" style="fill: #ffffff; stroke: #000000"/>
     <use xlink:href="#m6e3fae4e61" x="239.102769" y="44.076301" style="fill: #ffffff; stroke: #000000"/>
     <use xlink:href="#m6e3fae4e61" x="214.780398" y="41.528485" style="fill: #ffffff; stroke: #000000"/>
     <use xlink:href="#m6e3fae4e61" x="212.307677" y="97.934828" style="fill: #ffffff; stroke: #000000"/>
     <use xlink:href="#m6e3fae4e61" x="219.19033" y="53.715369" style="fill: #ffffff; stroke: #000000"/>
     <use xlink:href="#m6e3fae4e61" x="220.097187" y="24.189912" style="fill: #ffffff; stroke: #000000"/>
     <use xlink:href="#m6e3fae4e61" x="146.266849" y="94.7629" style="fill: #ffffff; stroke: #000000"/>
     <use xlink:href="#m6e3fae4e61" x="115.510391" y="85.9571" style="fill: #ffffff; stroke: #000000"/>
     <use xlink:href="#m6e3fae4e61" x="116.645105" y="82.696421" style="fill: #ffffff; stroke: #000000"/>
     <use xlink:href="#m6e3fae4e61" x="185.079728" y="75.58152" style="fill: #ffffff; stroke: #000000"/>
     <use xlink:href="#m6e3fae4e61" x="162.423381" y="68.175782" style="fill: #ffffff; stroke: #000000"/>
     <use xlink:href="#m6e3fae4e61" x="144.810015" y="113.671253" style="fill: #ffffff; stroke: #000000"/>
     <use xlink:href="#m6e3fae4e61" x="152.736294" y="109.053968" style="fill: #ffffff; stroke: #000000"/>
     <use xlink:href="#m6e3fae4e61" x="150.416286" y="98.585053" style="fill: #ffffff; stroke: #000000"/>
     <use xlink:href="#m6e3fae4e61" x="151.333411" y="97.934828" style="fill: #ffffff; stroke: #000000"/>
     <use xlink:href="#m6e3fae4e61" x="149.125309" y="92.920092" style="fill: #ffffff; stroke: #000000"/>
     <use xlink:href="#m6e3fae4e61" x="250.985578" y="92.315409" style="fill: #ffffff; stroke: #000000"/>
     <use xlink:href="#m6e3fae4e61" x="212.307677" y="87.640229" style="fill: #ffffff; stroke: #000000"/>
     <use xlink:href="#m6e3fae4e61" x="227.101176" y="77.052253" style="fill: #ffffff; stroke: #000000"/>
     <use xlink:href="#m6e3fae4e61" x="255.574354" y="80.596255" style="fill: #ffffff; stroke: #000000"/>
     <use xlink:href="#m6e3fae4e61" x="196.769794" y="77.548749" style="fill: #ffffff; stroke: #000000"/>
     <use xlink:href="#m6e3fae4e61" x="202.542457" y="62.228509" style="fill: #ffffff; stroke: #000000"/>
     <use xlink:href="#m6e3fae4e61" x="205.664401" y="52.985773" style="fill: #ffffff; stroke: #000000"/>
     <use xlink:href="#m6e3fae4e61" x="252.124872" y="14.76" style="fill: #ffffff; stroke: #000000"/>
     <use xlink:href="#m6e3fae4e61" x="260.216263" y="83.768182" style="fill: #ffffff; stroke: #000000"/>
     <use xlink:href="#m6e3fae4e61" x="302.783807" y="70.962367" style="fill: #ffffff; stroke: #000000"/>
     <use xlink:href="#m6e3fae4e61" x="196.769794" y="76.558909" style="fill: #ffffff; stroke: #000000"/>
     <use xlink:href="#m6e3fae4e61" x="201.482326" y="73.662868" style="fill: #ffffff; stroke: #000000"/>
     <use xlink:href="#m6e3fae4e61" x="202.542457" y="70.8709" style="fill: #ffffff; stroke: #000000"/>
     <use xlink:href="#m6e3fae4e61" x="202.542457" y="39.977507" style="fill: #ffffff; stroke: #000000"/>
     <use xlink:href="#m6e3fae4e61" x="190.098471" y="32.098573" style="fill: #ffffff; stroke: #000000"/>
     <use xlink:href="#m6e3fae4e61" x="214.859268" y="71.790454" style="fill: #ffffff; stroke: #000000"/>
     <use xlink:href="#m6e3fae4e61" x="149.125309" y="60.609671" style="fill: #ffffff; stroke: #000000"/>
     <use xlink:href="#m6e3fae4e61" x="204.805818" y="49.091036" style="fill: #ffffff; stroke: #000000"/>
     <use xlink:href="#m6e3fae4e61" x="283.92288" y="32.098573" style="fill: #ffffff; stroke: #000000"/>
     <use xlink:href="#m6e3fae4e61" x="213.670386" y="80.907684" style="fill: #ffffff; stroke: #000000"/>
     <use xlink:href="#m6e3fae4e61" x="210.683143" y="76.657327" style="fill: #ffffff; stroke: #000000"/>
     <use xlink:href="#m6e3fae4e61" x="267.963559" y="71.883011" style="fill: #ffffff; stroke: #000000"/>
     <use xlink:href="#m6e3fae4e61" x="212.629797" y="70.8709" style="fill: #ffffff; stroke: #000000"/>
     <use xlink:href="#m6e3fae4e61" x="204.633315" y="70.8709" style="fill: #ffffff; stroke: #000000"/>
     <use xlink:href="#m6e3fae4e61" x="227.383788" y="69.962101" style="fill: #ffffff; stroke: #000000"/>
     <use xlink:href="#m6e3fae4e61" x="248.20343" y="69.153172" style="fill: #ffffff; stroke: #000000"/>
     <use xlink:href="#m6e3fae4e61" x="258.085952" y="62.638544" style="fill: #ffffff; stroke: #000000"/>
     <use xlink:href="#m6e3fae4e61" x="174.769623" y="61.414874" style="fill: #ffffff; stroke: #000000"/>
     <use xlink:href="#m6e3fae4e61" x="219.19033" y="53.715369" style="fill: #ffffff; stroke: #000000"/>
     <use xlink:href="#m6e3fae4e61" x="205.664401" y="83.768182" style="fill: #ffffff; stroke: #000000"/>
     <use xlink:href="#m6e3fae4e61" x="215.488257" y="81.115999" style="fill: #ffffff; stroke: #000000"/>
     <use xlink:href="#m6e3fae4e61" x="207.530611" y="78.551362" style="fill: #ffffff; stroke: #000000"/>
     <use xlink:href="#m6e3fae4e61" x="212.307677" y="72.814694" style="fill: #ffffff; stroke: #000000"/>
     <use xlink:href="#m6e3fae4e61" x="215.973324" y="70.8709" style="fill: #ffffff; stroke: #000000"/>
     <use xlink:href="#m6e3fae4e61" x="218.734155" y="64.30067" style="fill: #ffffff; stroke: #000000"/>
     <use xlink:href="#m6e3fae4e61" x="224.525328" y="79.567082" style="fill: #ffffff; stroke: #000000"/>
     <use xlink:href="#m6e3fae4e61" x="209.449217" y="78.048439" style="fill: #ffffff; stroke: #000000"/>
     <use xlink:href="#m6e3fae4e61" x="201.482326" y="75.58152" style="fill: #ffffff; stroke: #000000"/>
     <use xlink:href="#m6e3fae4e61" x="210.683143" y="69.962101" style="fill: #ffffff; stroke: #000000"/>
     <use xlink:href="#m6e3fae4e61" x="205.664401" y="69.063808" style="fill: #ffffff; stroke: #000000"/>
     <use xlink:href="#m6e3fae4e61" x="202.542457" y="68.618527" style="fill: #ffffff; stroke: #000000"/>
     <use xlink:href="#m6e3fae4e61" x="205.664401" y="67.297791" style="fill: #ffffff; stroke: #000000"/>
     <use xlink:href="#m6e3fae4e61" x="205.664401" y="66.515992" style="fill: #ffffff; stroke: #000000"/>
     <use xlink:href="#m6e3fae4e61" x="240.68186" y="66.429609" style="fill: #ffffff; stroke: #000000"/>
     <use xlink:href="#m6e3fae4e61" x="203.940656" y="62.228509" style="fill: #ffffff; stroke: #000000"/>
     <use xlink:href="#m6e3fae4e61" x="201.482326" y="49.437146" style="fill: #ffffff; stroke: #000000"/>
     <use xlink:href="#m6e3fae4e61" x="180.897653" y="147.021816" style="fill: #ffffff; stroke: #000000"/>
     <use xlink:href="#m6e3fae4e61" x="110.853932" y="109.053968" style="fill: #ffffff; stroke: #000000"/>
     <use xlink:href="#m6e3fae4e61" x="202.190185" y="66.429609" style="fill: #ffffff; stroke: #000000"/>
     <use xlink:href="#m6e3fae4e61" x="265.120255" y="58.242947" style="fill: #ffffff; stroke: #000000"/>
     <use xlink:href="#m6e3fae4e61" x="194.903584" y="62.47427" style="fill: #ffffff; stroke: #000000"/>
     <use xlink:href="#m6e3fae4e61" x="177.348854" y="75.58152" style="fill: #ffffff; stroke: #000000"/>
     <use xlink:href="#m6e3fae4e61" x="130.776415" y="96.523202" style="fill: #ffffff; stroke: #000000"/>
     <use xlink:href="#m6e3fae4e61" x="112.036175" y="94.267196" style="fill: #ffffff; stroke: #000000"/>
     <use xlink:href="#m6e3fae4e61" x="144.516378" y="91.119979" style="fill: #ffffff; stroke: #000000"/>
     <use xlink:href="#m6e3fae4e61" x="137.229778" y="99.835674" style="fill: #ffffff; stroke: #000000"/>
     <use xlink:href="#m6e3fae4e61" x="181.322901" y="91.715395" style="fill: #ffffff; stroke: #000000"/>
     <use xlink:href="#m6e3fae4e61" x="195.653774" y="87.075125" style="fill: #ffffff; stroke: #000000"/>
     <use xlink:href="#m6e3fae4e61" x="232.892349" y="80.596255" style="fill: #ffffff; stroke: #000000"/>
     <use xlink:href="#m6e3fae4e61" x="224.525328" y="36.670564" style="fill: #ffffff; stroke: #000000"/>
     <use xlink:href="#m6e3fae4e61" x="134.692522" y="97.934828" style="fill: #ffffff; stroke: #000000"/>
     <use xlink:href="#m6e3fae4e61" x="182.168621" y="91.715395" style="fill: #ffffff; stroke: #000000"/>
     <use xlink:href="#m6e3fae4e61" x="210.05964" y="87.075125" style="fill: #ffffff; stroke: #000000"/>
     <use xlink:href="#m6e3fae4e61" x="134.692522" y="109.203538" style="fill: #ffffff; stroke: #000000"/>
     <use xlink:href="#m6e3fae4e61" x="134.692522" y="91.715395" style="fill: #ffffff; stroke: #000000"/>
     <use xlink:href="#m6e3fae4e61" x="219.825894" y="47.45084" style="fill: #ffffff; stroke: #000000"/>
     <use xlink:href="#m6e3fae4e61" x="157.81445" y="100.569027" style="fill: #ffffff; stroke: #000000"/>
     <use xlink:href="#m6e3fae4e61" x="157.81445" y="89.360626" style="fill: #ffffff; stroke: #000000"/>
     <use xlink:href="#m6e3fae4e61" x="196.769794" y="82.696421" style="fill: #ffffff; stroke: #000000"/>
     <use xlink:href="#m6e3fae4e61" x="227.101176" y="82.166034" style="fill: #ffffff; stroke: #000000"/>
     <use xlink:href="#m6e3fae4e61" x="195.840545" y="80.699926" style="fill: #ffffff; stroke: #000000"/>
     <use xlink:href="#m6e3fae4e61" x="143.334136" y="80.596255" style="fill: #ffffff; stroke: #000000"/>
     <use xlink:href="#m6e3fae4e61" x="194.903584" y="43.495715" style="fill: #ffffff; stroke: #000000"/>
     <use xlink:href="#m6e3fae4e61" x="91.357377" y="121.060341" style="fill: #ffffff; stroke: #000000"/>
     <use xlink:href="#m6e3fae4e61" x="78.769187" y="116.909281" style="fill: #ffffff; stroke: #000000"/>
     <use xlink:href="#m6e3fae4e61" x="78.769187" y="115.923626" style="fill: #ffffff; stroke: #000000"/>
     <use xlink:href="#m6e3fae4e61" x="78.769187" y="113.671253" style="fill: #ffffff; stroke: #000000"/>
     <use xlink:href="#m6e3fae4e61" x="100.921984" y="113.671253" style="fill: #ffffff; stroke: #000000"/>
     <use xlink:href="#m6e3fae4e61" x="68.00837" y="113.671253" style="fill: #ffffff; stroke: #000000"/>
     <use xlink:href="#m6e3fae4e61" x="78.769187" y="112.882399" style="fill: #ffffff; stroke: #000000"/>
     <use xlink:href="#m6e3fae4e61" x="85.412463" y="109.053968" style="fill: #ffffff; stroke: #000000"/>
     <use xlink:href="#m6e3fae4e61" x="111.091373" y="106.12149" style="fill: #ffffff; stroke: #000000"/>
     <use xlink:href="#m6e3fae4e61" x="71.710444" y="104.695736" style="fill: #ffffff; stroke: #000000"/>
     <use xlink:href="#m6e3fae4e61" x="78.769187" y="97.934828" style="fill: #ffffff; stroke: #000000"/>
     <use xlink:href="#m6e3fae4e61" x="108.330181" y="97.289999" style="fill: #ffffff; stroke: #000000"/>
     <use xlink:href="#m6e3fae4e61" x="246.786218" y="112.101473" style="fill: #ffffff; stroke: #000000"/>
     <use xlink:href="#m6e3fae4e61" x="206.855552" y="63.881793" style="fill: #ffffff; stroke: #000000"/>
     <use xlink:href="#m6e3fae4e61" x="185.079728" y="67.735546" style="fill: #ffffff; stroke: #000000"/>
     <use xlink:href="#m6e3fae4e61" x="185.079728" y="67.297791" style="fill: #ffffff; stroke: #000000"/>
     <use xlink:href="#m6e3fae4e61" x="189.112411" y="62.228509" style="fill: #ffffff; stroke: #000000"/>
     <use xlink:href="#m6e3fae4e61" x="171.576191" y="94.267196" style="fill: #ffffff; stroke: #000000"/>
     <use xlink:href="#m6e3fae4e61" x="192.622636" y="116.909281" style="fill: #ffffff; stroke: #000000"/>
     <use xlink:href="#m6e3fae4e61" x="281.711732" y="112.101473" style="fill: #ffffff; stroke: #000000"/>
     <use xlink:href="#m6e3fae4e61" x="195.279302" y="107.573896" style="fill: #ffffff; stroke: #000000"/>
     <use xlink:href="#m6e3fae4e61" x="194.620973" y="99.240765" style="fill: #ffffff; stroke: #000000"/>
     <use xlink:href="#m6e3fae4e61" x="162.423381" y="97.934828" style="fill: #ffffff; stroke: #000000"/>
     <use xlink:href="#m6e3fae4e61" x="172.497854" y="94.267196" style="fill: #ffffff; stroke: #000000"/>
     <use xlink:href="#m6e3fae4e61" x="230.858004" y="92.920092" style="fill: #ffffff; stroke: #000000"/>
     <use xlink:href="#m6e3fae4e61" x="207.698746" y="85.9571" style="fill: #ffffff; stroke: #000000"/>
     <use xlink:href="#m6e3fae4e61" x="193.920826" y="85.404062" style="fill: #ffffff; stroke: #000000"/>
     <use xlink:href="#m6e3fae4e61" x="229.481119" y="84.309658" style="fill: #ffffff; stroke: #000000"/>
     <use xlink:href="#m6e3fae4e61" x="234.493839" y="80.596255" style="fill: #ffffff; stroke: #000000"/>
     <use xlink:href="#m6e3fae4e61" x="232.515377" y="69.063808" style="fill: #ffffff; stroke: #000000"/>
     <use xlink:href="#m6e3fae4e61" x="150.248732" y="92.920092" style="fill: #ffffff; stroke: #000000"/>
     <use xlink:href="#m6e3fae4e61" x="166.028291" y="85.9571" style="fill: #ffffff; stroke: #000000"/>
     <use xlink:href="#m6e3fae4e61" x="174.544492" y="90.529091" style="fill: #ffffff; stroke: #000000"/>
     <use xlink:href="#m6e3fae4e61" x="194.903584" y="62.228509" style="fill: #ffffff; stroke: #000000"/>
     <use xlink:href="#m6e3fae4e61" x="194.903584" y="56.704254" style="fill: #ffffff; stroke: #000000"/>
     <use xlink:href="#m6e3fae4e61" x="219.720215" y="44.076301" style="fill: #ffffff; stroke: #000000"/>
     <use xlink:href="#m6e3fae4e61" x="177.656193" y="54.451881" style="fill: #ffffff; stroke: #000000"/>
     <use xlink:href="#m6e3fae4e61" x="200.859288" y="53.715369" style="fill: #ffffff; stroke: #000000"/>
     <use xlink:href="#m6e3fae4e61" x="194.903584" y="52.623528" style="fill: #ffffff; stroke: #000000"/>
     <use xlink:href="#m6e3fae4e61" x="194.903584" y="52.262964" style="fill: #ffffff; stroke: #000000"/>
     <use xlink:href="#m6e3fae4e61" x="194.903584" y="48.232448" style="fill: #ffffff; stroke: #000000"/>
     <use xlink:href="#m6e3fae4e61" x="212.307677" y="44.076301" style="fill: #ffffff; stroke: #000000"/>
     <use xlink:href="#m6e3fae4e61" x="281.327291" y="85.9571" style="fill: #ffffff; stroke: #000000"/>
     <use xlink:href="#m6e3fae4e61" x="222.863028" y="84.854933" style="fill: #ffffff; stroke: #000000"/>
     <use xlink:href="#m6e3fae4e61" x="174.318912" y="73.662868" style="fill: #ffffff; stroke: #000000"/>
     <use xlink:href="#m6e3fae4e61" x="191.075993" y="73.662868" style="fill: #ffffff; stroke: #000000"/>
     <use xlink:href="#m6e3fae4e61" x="194.903584" y="73.190518" style="fill: #ffffff; stroke: #000000"/>
     <use xlink:href="#m6e3fae4e61" x="169.709981" y="72.721021" style="fill: #ffffff; stroke: #000000"/>
     <use xlink:href="#m6e3fae4e61" x="203.940656" y="71.790454" style="fill: #ffffff; stroke: #000000"/>
     <use xlink:href="#m6e3fae4e61" x="204.374065" y="70.8709" style="fill: #ffffff; stroke: #000000"/>
     <use xlink:href="#m6e3fae4e61" x="169.709981" y="65.145259" style="fill: #ffffff; stroke: #000000"/>
     <use xlink:href="#m6e3fae4e61" x="194.903584" y="63.050754" style="fill: #ffffff; stroke: #000000"/>
     <use xlink:href="#m6e3fae4e61" x="194.903584" y="55.946185" style="fill: #ffffff; stroke: #000000"/>
     <use xlink:href="#m6e3fae4e61" x="194.903584" y="54.451881" style="fill: #ffffff; stroke: #000000"/>
     <use xlink:href="#m6e3fae4e61" x="194.903584" y="54.451881" style="fill: #ffffff; stroke: #000000"/>
    </g>
   </g>
   <g id="matplotlib.axis_1">
    <g id="xtick_1">
     <g id="line2d_1">
      <defs>
       <path id="m97da01659b" d="M 0 0 
L 0 3.5 
" style="stroke: #000000; stroke-width: 0.8"/>
      </defs>
      <g>
       <use xlink:href="#m97da01659b" x="59.474627" y="173.52" style="stroke: #000000; stroke-width: 0.8"/>
      </g>
     </g>
     <g id="text_1">
      <!-- 7.5 -->
      <g transform="translate(51.523065 188.118438) scale(0.1 -0.1)">
       <defs>
        <path id="DejaVuSans-37" d="M 525 4666 
L 3525 4666 
L 3525 4397 
L 1831 0 
L 1172 0 
L 2766 4134 
L 525 4134 
L 525 4666 
z
" transform="scale(0.015625)"/>
        <path id="DejaVuSans-2e" d="M 684 794 
L 1344 794 
L 1344 0 
L 684 0 
L 684 794 
z
" transform="scale(0.015625)"/>
        <path id="DejaVuSans-35" d="M 691 4666 
L 3169 4666 
L 3169 4134 
L 1269 4134 
L 1269 2991 
Q 1406 3038 1543 3061 
Q 1681 3084 1819 3084 
Q 2600 3084 3056 2656 
Q 3513 2228 3513 1497 
Q 3513 744 3044 326 
Q 2575 -91 1722 -91 
Q 1428 -91 1123 -41 
Q 819 9 494 109 
L 494 744 
Q 775 591 1075 516 
Q 1375 441 1709 441 
Q 2250 441 2565 725 
Q 2881 1009 2881 1497 
Q 2881 1984 2565 2268 
Q 2250 2553 1709 2553 
Q 1456 2553 1204 2497 
Q 953 2441 691 2322 
L 691 4666 
z
" transform="scale(0.015625)"/>
       </defs>
       <use xlink:href="#DejaVuSans-37"/>
       <use xlink:href="#DejaVuSans-2e" x="63.623047"/>
       <use xlink:href="#DejaVuSans-35" x="95.410156"/>
      </g>
     </g>
    </g>
    <g id="xtick_2">
     <g id="line2d_2">
      <g>
       <use xlink:href="#m97da01659b" x="115.926187" y="173.52" style="stroke: #000000; stroke-width: 0.8"/>
      </g>
     </g>
     <g id="text_2">
      <!-- 8.0 -->
      <g transform="translate(107.974625 188.118438) scale(0.1 -0.1)">
       <defs>
        <path id="DejaVuSans-38" d="M 2034 2216 
Q 1584 2216 1326 1975 
Q 1069 1734 1069 1313 
Q 1069 891 1326 650 
Q 1584 409 2034 409 
Q 2484 409 2743 651 
Q 3003 894 3003 1313 
Q 3003 1734 2745 1975 
Q 2488 2216 2034 2216 
z
M 1403 2484 
Q 997 2584 770 2862 
Q 544 3141 544 3541 
Q 544 4100 942 4425 
Q 1341 4750 2034 4750 
Q 2731 4750 3128 4425 
Q 3525 4100 3525 3541 
Q 3525 3141 3298 2862 
Q 3072 2584 2669 2484 
Q 3125 2378 3379 2068 
Q 3634 1759 3634 1313 
Q 3634 634 3220 271 
Q 2806 -91 2034 -91 
Q 1263 -91 848 271 
Q 434 634 434 1313 
Q 434 1759 690 2068 
Q 947 2378 1403 2484 
z
M 1172 3481 
Q 1172 3119 1398 2916 
Q 1625 2713 2034 2713 
Q 2441 2713 2670 2916 
Q 2900 3119 2900 3481 
Q 2900 3844 2670 4047 
Q 2441 4250 2034 4250 
Q 1625 4250 1398 4047 
Q 1172 3844 1172 3481 
z
" transform="scale(0.015625)"/>
        <path id="DejaVuSans-30" d="M 2034 4250 
Q 1547 4250 1301 3770 
Q 1056 3291 1056 2328 
Q 1056 1369 1301 889 
Q 1547 409 2034 409 
Q 2525 409 2770 889 
Q 3016 1369 3016 2328 
Q 3016 3291 2770 3770 
Q 2525 4250 2034 4250 
z
M 2034 4750 
Q 2819 4750 3233 4129 
Q 3647 3509 3647 2328 
Q 3647 1150 3233 529 
Q 2819 -91 2034 -91 
Q 1250 -91 836 529 
Q 422 1150 422 2328 
Q 422 3509 836 4129 
Q 1250 4750 2034 4750 
z
" transform="scale(0.015625)"/>
       </defs>
       <use xlink:href="#DejaVuSans-38"/>
       <use xlink:href="#DejaVuSans-2e" x="63.623047"/>
       <use xlink:href="#DejaVuSans-30" x="95.410156"/>
      </g>
     </g>
    </g>
    <g id="xtick_3">
     <g id="line2d_3">
      <g>
       <use xlink:href="#m97da01659b" x="172.377747" y="173.52" style="stroke: #000000; stroke-width: 0.8"/>
      </g>
     </g>
     <g id="text_3">
      <!-- 8.5 -->
      <g transform="translate(164.426184 188.118438) scale(0.1 -0.1)">
       <use xlink:href="#DejaVuSans-38"/>
       <use xlink:href="#DejaVuSans-2e" x="63.623047"/>
       <use xlink:href="#DejaVuSans-35" x="95.410156"/>
      </g>
     </g>
    </g>
    <g id="xtick_4">
     <g id="line2d_4">
      <g>
       <use xlink:href="#m97da01659b" x="228.829306" y="173.52" style="stroke: #000000; stroke-width: 0.8"/>
      </g>
     </g>
     <g id="text_4">
      <!-- 9.0 -->
      <g transform="translate(220.877744 188.118438) scale(0.1 -0.1)">
       <defs>
        <path id="DejaVuSans-39" d="M 703 97 
L 703 672 
Q 941 559 1184 500 
Q 1428 441 1663 441 
Q 2288 441 2617 861 
Q 2947 1281 2994 2138 
Q 2813 1869 2534 1725 
Q 2256 1581 1919 1581 
Q 1219 1581 811 2004 
Q 403 2428 403 3163 
Q 403 3881 828 4315 
Q 1253 4750 1959 4750 
Q 2769 4750 3195 4129 
Q 3622 3509 3622 2328 
Q 3622 1225 3098 567 
Q 2575 -91 1691 -91 
Q 1453 -91 1209 -44 
Q 966 3 703 97 
z
M 1959 2075 
Q 2384 2075 2632 2365 
Q 2881 2656 2881 3163 
Q 2881 3666 2632 3958 
Q 2384 4250 1959 4250 
Q 1534 4250 1286 3958 
Q 1038 3666 1038 3163 
Q 1038 2656 1286 2365 
Q 1534 2075 1959 2075 
z
" transform="scale(0.015625)"/>
       </defs>
       <use xlink:href="#DejaVuSans-39"/>
       <use xlink:href="#DejaVuSans-2e" x="63.623047"/>
       <use xlink:href="#DejaVuSans-30" x="95.410156"/>
      </g>
     </g>
    </g>
    <g id="xtick_5">
     <g id="line2d_5">
      <g>
       <use xlink:href="#m97da01659b" x="285.280866" y="173.52" style="stroke: #000000; stroke-width: 0.8"/>
      </g>
     </g>
     <g id="text_5">
      <!-- 9.5 -->
      <g transform="translate(277.329304 188.118438) scale(0.1 -0.1)">
       <use xlink:href="#DejaVuSans-39"/>
       <use xlink:href="#DejaVuSans-2e" x="63.623047"/>
       <use xlink:href="#DejaVuSans-35" x="95.410156"/>
      </g>
     </g>
    </g>
   </g>
   <g id="matplotlib.axis_2">
    <g id="ytick_1">
     <g id="line2d_6">
      <defs>
       <path id="mc6d1ad5ff5" d="M 0 0 
L -3.5 0 
" style="stroke: #000000; stroke-width: 0.8"/>
      </defs>
      <g>
       <use xlink:href="#mc6d1ad5ff5" x="36.465625" y="136.948703" style="stroke: #000000; stroke-width: 0.8"/>
      </g>
     </g>
     <g id="text_6">
      <!-- 10.5 -->
      <g transform="translate(7.2 140.747922) scale(0.1 -0.1)">
       <defs>
        <path id="DejaVuSans-31" d="M 794 531 
L 1825 531 
L 1825 4091 
L 703 3866 
L 703 4441 
L 1819 4666 
L 2450 4666 
L 2450 531 
L 3481 531 
L 3481 0 
L 794 0 
L 794 531 
z
" transform="scale(0.015625)"/>
       </defs>
       <use xlink:href="#DejaVuSans-31"/>
       <use xlink:href="#DejaVuSans-30" x="63.623047"/>
       <use xlink:href="#DejaVuSans-2e" x="127.246094"/>
       <use xlink:href="#DejaVuSans-35" x="159.033203"/>
      </g>
     </g>
    </g>
    <g id="ytick_2">
     <g id="line2d_7">
      <g>
       <use xlink:href="#mc6d1ad5ff5" x="36.465625" y="98.097988" style="stroke: #000000; stroke-width: 0.8"/>
      </g>
     </g>
     <g id="text_7">
      <!-- 11.0 -->
      <g transform="translate(7.2 101.897207) scale(0.1 -0.1)">
       <use xlink:href="#DejaVuSans-31"/>
       <use xlink:href="#DejaVuSans-31" x="63.623047"/>
       <use xlink:href="#DejaVuSans-2e" x="127.246094"/>
       <use xlink:href="#DejaVuSans-30" x="159.033203"/>
      </g>
     </g>
    </g>
    <g id="ytick_3">
     <g id="line2d_8">
      <g>
       <use xlink:href="#mc6d1ad5ff5" x="36.465625" y="59.247274" style="stroke: #000000; stroke-width: 0.8"/>
      </g>
     </g>
     <g id="text_8">
      <!-- 11.5 -->
      <g transform="translate(7.2 63.046492) scale(0.1 -0.1)">
       <use xlink:href="#DejaVuSans-31"/>
       <use xlink:href="#DejaVuSans-31" x="63.623047"/>
       <use xlink:href="#DejaVuSans-2e" x="127.246094"/>
       <use xlink:href="#DejaVuSans-35" x="159.033203"/>
      </g>
     </g>
    </g>
    <g id="ytick_4">
     <g id="line2d_9">
      <g>
       <use xlink:href="#mc6d1ad5ff5" x="36.465625" y="20.396559" style="stroke: #000000; stroke-width: 0.8"/>
      </g>
     </g>
     <g id="text_9">
      <!-- 12.0 -->
      <g transform="translate(7.2 24.195778) scale(0.1 -0.1)">
       <defs>
        <path id="DejaVuSans-32" d="M 1228 531 
L 3431 531 
L 3431 0 
L 469 0 
L 469 531 
Q 828 903 1448 1529 
Q 2069 2156 2228 2338 
Q 2531 2678 2651 2914 
Q 2772 3150 2772 3378 
Q 2772 3750 2511 3984 
Q 2250 4219 1831 4219 
Q 1534 4219 1204 4116 
Q 875 4013 500 3803 
L 500 4441 
Q 881 4594 1212 4672 
Q 1544 4750 1819 4750 
Q 2544 4750 2975 4387 
Q 3406 4025 3406 3419 
Q 3406 3131 3298 2873 
Q 3191 2616 2906 2266 
Q 2828 2175 2409 1742 
Q 1991 1309 1228 531 
z
" transform="scale(0.015625)"/>
       </defs>
       <use xlink:href="#DejaVuSans-31"/>
       <use xlink:href="#DejaVuSans-32" x="63.623047"/>
       <use xlink:href="#DejaVuSans-2e" x="127.246094"/>
       <use xlink:href="#DejaVuSans-30" x="159.033203"/>
      </g>
     </g>
    </g>
   </g>
   <g id="line2d_10">
    <path d="M 49.147443 143.056195 
L 52.517936 141.109424 
L 71.710444 130.459787 
L 85.412463 123.310345 
L 94.925719 118.568782 
L 104.749575 113.863591 
L 116.645105 108.426177 
L 116.645105 108.426177 
L 127.405922 103.752797 
L 127.405922 103.752797 
L 138.787087 99.063616 
L 138.787087 99.063616 
L 149.125309 95.030118 
L 149.125309 95.030118 
L 159.886125 91.060237 
L 172.037963 86.857392 
L 183.008053 83.31854 
L 194.620973 79.83625 
L 204.805818 77.005614 
L 215.488257 74.261023 
L 215.488257 74.261023 
L 224.525328 72.118515 
L 224.525328 72.118515 
L 234.493839 69.945851 
L 246.786218 67.542084 
L 258.085952 65.600717 
L 267.963559 64.114201 
L 283.92288 62.127404 
L 302.783807 60.440324 
L 302.783807 60.440324 
" clip-path="url(#pc264bc6356)" style="fill: none; stroke: #1f77b4; stroke-width: 1.5; stroke-linecap: square"/>
   </g>
   <g id="line2d_11">
    <path d="M 49.147443 130.876465 
L 302.783807 44.484635 
L 302.783807 44.484635 
" clip-path="url(#pc264bc6356)" style="fill: none; stroke-dasharray: 5.55,2.4; stroke-dashoffset: 0; stroke: #ff7f0e; stroke-width: 1.5"/>
   </g>
   <g id="patch_3">
    <path d="M 36.465625 173.52 
L 36.465625 7.2 
" style="fill: none; stroke: #000000; stroke-width: 0.8; stroke-linejoin: miter; stroke-linecap: square"/>
   </g>
   <g id="patch_4">
    <path d="M 315.465625 173.52 
L 315.465625 7.2 
" style="fill: none; stroke: #000000; stroke-width: 0.8; stroke-linejoin: miter; stroke-linecap: square"/>
   </g>
   <g id="patch_5">
    <path d="M 36.465625 173.52 
L 315.465625 173.52 
" style="fill: none; stroke: #000000; stroke-width: 0.8; stroke-linejoin: miter; stroke-linecap: square"/>
   </g>
   <g id="patch_6">
    <path d="M 36.465625 7.2 
L 315.465625 7.2 
" style="fill: none; stroke: #000000; stroke-width: 0.8; stroke-linejoin: miter; stroke-linecap: square"/>
   </g>
  </g>
 </g>
 <defs>
  <clipPath id="pc264bc6356">
   <rect x="36.465625" y="7.2" width="279" height="166.32"/>
  </clipPath>
 </defs>
</svg>
