<?xml version="1.0" encoding="utf-8" standalone="no"?>
<!DOCTYPE svg PUBLIC "-//W3C//DTD SVG 1.1//EN"
  "http://www.w3.org/Graphics/SVG/1.1/DTD/svg11.dtd">
<svg xmlns:xlink="http://www.w3.org/1999/xlink" width="314.301718pt" height="198.929344pt" viewBox="0 0 314.301718 198.929344" xmlns="http://www.w3.org/2000/svg" version="1.1">
 <metadata>
  <rdf:RDF xmlns:dc="http://purl.org/dc/elements/1.1/" xmlns:cc="http://creativecommons.org/ns#" xmlns:rdf="http://www.w3.org/1999/02/22-rdf-syntax-ns#">
   <cc:Work>
    <dc:type rdf:resource="http://purl.org/dc/dcmitype/StillImage"/>
    <dc:date>2026-02-11T00:16:29.493103</dc:date>
    <dc:format>image/svg+xml</dc:format>
    <dc:creator>
     <cc:Agent>
      <dc:title>Matplotlib v3.9.1.post1, https://matplotlib.org/</dc:title>
     </cc:Agent>
    </dc:creator>
   </cc:Work>
  </rdf:RDF>
 </metadata>
 <defs>
  <style type="text/css">*{stroke-linejoin: round; stroke-linecap: butt}</style>
 </defs>
 <g id="figure_1">
  <g id="patch_1">
   <path d="M 0 198.929344 
L 314.301718 198.929344 
L 314.301718 0 
L 0 0 
z
" style="fill: #ffffff"/>
  </g>
  <g id="axes_1">
   <g id="patch_2">
    <path d="M 26.925 175.051219 
L 305.925 175.051219 
L 305.925 8.731219 
L 26.925 8.731219 
z
" style="fill: #ffffff"/>
   </g>
   <g id="matplotlib.axis_1">
    <g id="xtick_1">
     <g id="line2d_1">
      <defs>
       <path id="m777ef3c026" d="M 0 0 
L 0 3.5 
" style="stroke: #000000; stroke-width: 0.8"/>
      </defs>
      <g>
       <use xlink:href="#m777ef3c026" x="54.967548" y="175.051219" style="stroke: #000000; stroke-width: 0.8"/>
      </g>
     </g>
     <g id="text_1">
      <!-- 5 -->
      <g transform="translate(51.786298 189.649656) scale(0.1 -0.1)">
       <defs>
        <path id="DejaVuSans-35" d="M 691 4666 
L 3169 4666 
L 3169 4134 
L 1269 4134 
L 1269 2991 
Q 1406 3038 1543 3061 
Q 1681 3084 1819 3084 
Q 2600 3084 3056 2656 
Q 3513 2228 3513 1497 
Q 3513 744 3044 326 
Q 2575 -91 1722 -91 
Q 1428 -91 1123 -41 
Q 819 9 494 109 
L 494 744 
Q 775 591 1075 516 
Q 1375 441 1709 441 
Q 2250 441 2565 725 
Q 2881 1009 2881 1497 
Q 2881 1984 2565 2268 
Q 2250 2553 1709 2553 
Q 1456 2553 1204 2497 
Q 953 2441 691 2322 
L 691 4666 
z
" transform="scale(0.015625)"/>
       </defs>
       <use xlink:href="#DejaVuSans-35"/>
      </g>
     </g>
    </g>
    <g id="xtick_2">
     <g id="line2d_2">
      <g>
       <use xlink:href="#m777ef3c026" x="116.410465" y="175.051219" style="stroke: #000000; stroke-width: 0.8"/>
      </g>
     </g>
     <g id="text_2">
      <!-- 10 -->
      <g transform="translate(110.047965 189.649656) scale(0.1 -0.1)">
       <defs>
        <path id="DejaVuSans-31" d="M 794 531 
L 1825 531 
L 1825 4091 
L 703 3866 
L 703 4441 
L 1819 4666 
L 2450 4666 
L 2450 531 
L 3481 531 
L 3481 0 
L 794 0 
L 794 531 
z
" transform="scale(0.015625)"/>
        <path id="DejaVuSans-30" d="M 2034 4250 
Q 1547 4250 1301 3770 
Q 1056 3291 1056 2328 
Q 1056 1369 1301 889 
Q 1547 409 2034 409 
Q 2525 409 2770 889 
Q 3016 1369 3016 2328 
Q 3016 3291 2770 3770 
Q 2525 4250 2034 4250 
z
M 2034 4750 
Q 2819 4750 3233 4129 
Q 3647 3509 3647 2328 
Q 3647 1150 3233 529 
Q 2819 -91 2034 -91 
Q 1250 -91 836 529 
Q 422 1150 422 2328 
Q 422 3509 836 4129 
Q 1250 4750 2034 4750 
z
" transform="scale(0.015625)"/>
       </defs>
       <use xlink:href="#DejaVuSans-31"/>
       <use xlink:href="#DejaVuSans-30" x="63.623047"/>
      </g>
     </g>
    </g>
    <g id="xtick_3">
     <g id="line2d_3">
      <g>
       <use xlink:href="#m777ef3c026" x="177.853383" y="175.051219" style="stroke: #000000; stroke-width: 0.8"/>
      </g>
     </g>
     <g id="text_3">
      <!-- 15 -->
      <g transform="translate(171.490883 189.649656) scale(0.1 -0.1)">
       <use xlink:href="#DejaVuSans-31"/>
       <use xlink:href="#DejaVuSans-35" x="63.623047"/>
      </g>
     </g>
    </g>
    <g id="xtick_4">
     <g id="line2d_4">
      <g>
       <use xlink:href="#m777ef3c026" x="239.2963" y="175.051219" style="stroke: #000000; stroke-width: 0.8"/>
      </g>
     </g>
     <g id="text_4">
      <!-- 20 -->
      <g transform="translate(232.9338 189.649656) scale(0.1 -0.1)">
       <defs>
        <path id="DejaVuSans-32" d="M 1228 531 
L 3431 531 
L 3431 0 
L 469 0 
L 469 531 
Q 828 903 1448 1529 
Q 2069 2156 2228 2338 
Q 2531 2678 2651 2914 
Q 2772 3150 2772 3378 
Q 2772 3750 2511 3984 
Q 2250 4219 1831 4219 
Q 1534 4219 1204 4116 
Q 875 4013 500 3803 
L 500 4441 
Q 881 4594 1212 4672 
Q 1544 4750 1819 4750 
Q 2544 4750 2975 4387 
Q 3406 4025 3406 3419 
Q 3406 3131 3298 2873 
Q 3191 2616 2906 2266 
Q 2828 2175 2409 1742 
Q 1991 1309 1228 531 
z
" transform="scale(0.015625)"/>
       </defs>
       <use xlink:href="#DejaVuSans-32"/>
       <use xlink:href="#DejaVuSans-30" x="63.623047"/>
      </g>
     </g>
    </g>
    <g id="xtick_5">
     <g id="line2d_5">
      <g>
       <use xlink:href="#m777ef3c026" x="300.739218" y="175.051219" style="stroke: #000000; stroke-width: 0.8"/>
      </g>
     </g>
     <g id="text_5">
      <!-- 25 -->
      <g transform="translate(294.376718 189.649656) scale(0.1 -0.1)">
       <use xlink:href="#DejaVuSans-32"/>
       <use xlink:href="#DejaVuSans-35" x="63.623047"/>
      </g>
     </g>
    </g>
   </g>
   <g id="matplotlib.axis_2">
    <g id="ytick_1">
     <g id="line2d_6">
      <defs>
       <path id="m4f1f949bd1" d="M 0 0 
L -3.5 0 
" style="stroke: #000000; stroke-width: 0.8"/>
      </defs>
      <g>
       <use xlink:href="#m4f1f949bd1" x="26.925" y="162.199219" style="stroke: #000000; stroke-width: 0.8"/>
      </g>
     </g>
     <g id="text_6">
      <!-- 10 -->
      <g transform="translate(7.2 165.998437) scale(0.1 -0.1)">
       <use xlink:href="#DejaVuSans-31"/>
       <use xlink:href="#DejaVuSans-30" x="63.623047"/>
      </g>
     </g>
    </g>
    <g id="ytick_2">
     <g id="line2d_7">
      <g>
       <use xlink:href="#m4f1f949bd1" x="26.925" y="124.399219" style="stroke: #000000; stroke-width: 0.8"/>
      </g>
     </g>
     <g id="text_7">
      <!-- 20 -->
      <g transform="translate(7.2 128.198437) scale(0.1 -0.1)">
       <use xlink:href="#DejaVuSans-32"/>
       <use xlink:href="#DejaVuSans-30" x="63.623047"/>
      </g>
     </g>
    </g>
    <g id="ytick_3">
     <g id="line2d_8">
      <g>
       <use xlink:href="#m4f1f949bd1" x="26.925" y="86.599219" style="stroke: #000000; stroke-width: 0.8"/>
      </g>
     </g>
     <g id="text_8">
      <!-- 30 -->
      <g transform="translate(7.2 90.398437) scale(0.1 -0.1)">
       <defs>
        <path id="DejaVuSans-33" d="M 2597 2516 
Q 3050 2419 3304 2112 
Q 3559 1806 3559 1356 
Q 3559 666 3084 287 
Q 2609 -91 1734 -91 
Q 1441 -91 1130 -33 
Q 819 25 488 141 
L 488 750 
Q 750 597 1062 519 
Q 1375 441 1716 441 
Q 2309 441 2620 675 
Q 2931 909 2931 1356 
Q 2931 1769 2642 2001 
Q 2353 2234 1838 2234 
L 1294 2234 
L 1294 2753 
L 1863 2753 
Q 2328 2753 2575 2939 
Q 2822 3125 2822 3475 
Q 2822 3834 2567 4026 
Q 2313 4219 1838 4219 
Q 1578 4219 1281 4162 
Q 984 4106 628 3988 
L 628 4550 
Q 988 4650 1302 4700 
Q 1616 4750 1894 4750 
Q 2613 4750 3031 4423 
Q 3450 4097 3450 3541 
Q 3450 3153 3228 2886 
Q 3006 2619 2597 2516 
z
" transform="scale(0.015625)"/>
       </defs>
       <use xlink:href="#DejaVuSans-33"/>
       <use xlink:href="#DejaVuSans-30" x="63.623047"/>
      </g>
     </g>
    </g>
    <g id="ytick_4">
     <g id="line2d_9">
      <g>
       <use xlink:href="#m4f1f949bd1" x="26.925" y="48.799219" style="stroke: #000000; stroke-width: 0.8"/>
      </g>
     </g>
     <g id="text_9">
      <!-- 40 -->
      <g transform="translate(7.2 52.598437) scale(0.1 -0.1)">
       <defs>
        <path id="DejaVuSans-34" d="M 2419 4116 
L 825 1625 
L 2419 1625 
L 2419 4116 
z
M 2253 4666 
L 3047 4666 
L 3047 1625 
L 3713 1625 
L 3713 1100 
L 3047 1100 
L 3047 0 
L 2419 0 
L 2419 1100 
L 313 1100 
L 313 1709 
L 2253 4666 
z
" transform="scale(0.015625)"/>
       </defs>
       <use xlink:href="#DejaVuSans-34"/>
       <use xlink:href="#DejaVuSans-30" x="63.623047"/>
      </g>
     </g>
    </g>
    <g id="ytick_5">
     <g id="line2d_10">
      <g>
       <use xlink:href="#m4f1f949bd1" x="26.925" y="10.999219" style="stroke: #000000; stroke-width: 0.8"/>
      </g>
     </g>
     <g id="text_10">
      <!-- 50 -->
      <g transform="translate(7.2 14.798437) scale(0.1 -0.1)">
       <use xlink:href="#DejaVuSans-35"/>
       <use xlink:href="#DejaVuSans-30" x="63.623047"/>
      </g>
     </g>
    </g>
   </g>
   <g id="line2d_11">
    <defs>
     <path id="m694fdc3b96" d="M 0 3 
C 0.795609 3 1.55874 2.683901 2.12132 2.12132 
C 2.683901 1.55874 3 0.795609 3 0 
C 3 -0.795609 2.683901 -1.55874 2.12132 -2.12132 
C 1.55874 -2.683901 0.795609 -3 0 -3 
C -0.795609 -3 -1.55874 -2.683901 -2.12132 -2.12132 
C -2.683901 -1.55874 -3 -0.795609 -3 0 
C -3 0.795609 -2.683901 1.55874 -2.12132 2.12132 
C -1.55874 2.683901 -0.795609 3 0 3 
z
" style="stroke: #1f77b4"/>
    </defs>
    <g clip-path="url(#p9fbd4737b2)">
     <use xlink:href="#m694fdc3b96" x="53.370032" y="47.287219" style="fill: #ffffff; stroke: #1f77b4"/>
     <use xlink:href="#m694fdc3b96" x="39.975476" y="54.469219" style="fill: #ffffff; stroke: #1f77b4"/>
     <use xlink:href="#m694fdc3b96" x="112.601004" y="134.983219" style="fill: #ffffff; stroke: #1f77b4"/>
     <use xlink:href="#m694fdc3b96" x="39.606818" y="16.291219" style="fill: #ffffff; stroke: #1f77b4"/>
     <use xlink:href="#m694fdc3b96" x="70.942706" y="64.675219" style="fill: #ffffff; stroke: #1f77b4"/>
     <use xlink:href="#m694fdc3b96" x="152.661786" y="97.939219" style="fill: #ffffff; stroke: #1f77b4"/>
     <use xlink:href="#m694fdc3b96" x="108.668658" y="98.317219" style="fill: #ffffff; stroke: #1f77b4"/>
     <use xlink:href="#m694fdc3b96" x="87.900951" y="107.767219" style="fill: #ffffff; stroke: #1f77b4"/>
     <use xlink:href="#m694fdc3b96" x="112.355233" y="127.801219" style="fill: #ffffff; stroke: #1f77b4"/>
     <use xlink:href="#m694fdc3b96" x="147.131924" y="148.591219" style="fill: #ffffff; stroke: #1f77b4"/>
     <use xlink:href="#m694fdc3b96" x="161.755338" y="155.017219" style="fill: #ffffff; stroke: #1f77b4"/>
     <use xlink:href="#m694fdc3b96" x="157.700106" y="124.777219" style="fill: #ffffff; stroke: #1f77b4"/>
     <use xlink:href="#m694fdc3b96" x="162.369767" y="124.399219" style="fill: #ffffff; stroke: #1f77b4"/>
     <use xlink:href="#m694fdc3b96" x="136.9324" y="157.663219" style="fill: #ffffff; stroke: #1f77b4"/>
     <use xlink:href="#m694fdc3b96" x="220.986311" y="143.677219" style="fill: #ffffff; stroke: #1f77b4"/>
     <use xlink:href="#m694fdc3b96" x="223.566913" y="141.787219" style="fill: #ffffff; stroke: #1f77b4"/>
     <use xlink:href="#m694fdc3b96" x="186.824049" y="152.749219" style="fill: #ffffff; stroke: #1f77b4"/>
     <use xlink:href="#m694fdc3b96" x="181.294186" y="149.725219" style="fill: #ffffff; stroke: #1f77b4"/>
     <use xlink:href="#m694fdc3b96" x="198.129545" y="147.835219" style="fill: #ffffff; stroke: #1f77b4"/>
     <use xlink:href="#m694fdc3b96" x="58.285465" y="58.249219" style="fill: #ffffff; stroke: #1f77b4"/>
     <use xlink:href="#m694fdc3b96" x="200.95592" y="154.261219" style="fill: #ffffff; stroke: #1f77b4"/>
     <use xlink:href="#m694fdc3b96" x="130.41945" y="145.567219" style="fill: #ffffff; stroke: #1f77b4"/>
     <use xlink:href="#m694fdc3b96" x="142.83092" y="145.189219" style="fill: #ffffff; stroke: #1f77b4"/>
     <use xlink:href="#m694fdc3b96" x="101.787051" y="100.585219" style="fill: #ffffff; stroke: #1f77b4"/>
     <use xlink:href="#m694fdc3b96" x="193.705655" y="150.481219" style="fill: #ffffff; stroke: #1f77b4"/>
     <use xlink:href="#m694fdc3b96" x="80.773573" y="91.891219" style="fill: #ffffff; stroke: #1f77b4"/>
     <use xlink:href="#m694fdc3b96" x="198.989746" y="134.983219" style="fill: #ffffff; stroke: #1f77b4"/>
     <use xlink:href="#m694fdc3b96" x="113.338319" y="113.437219" style="fill: #ffffff; stroke: #1f77b4"/>
     <use xlink:href="#m694fdc3b96" x="123.660729" y="114.193219" style="fill: #ffffff; stroke: #1f77b4"/>
     <use xlink:href="#m694fdc3b96" x="80.896459" y="65.809219" style="fill: #ffffff; stroke: #1f77b4"/>
     <use xlink:href="#m694fdc3b96" x="117.639323" y="143.677219" style="fill: #ffffff; stroke: #1f77b4"/>
     <use xlink:href="#m694fdc3b96" x="122.431871" y="155.395219" style="fill: #ffffff; stroke: #1f77b4"/>
     <use xlink:href="#m694fdc3b96" x="193.336998" y="153.883219" style="fill: #ffffff; stroke: #1f77b4"/>
     <use xlink:href="#m694fdc3b96" x="88.023837" y="94.537219" style="fill: #ffffff; stroke: #1f77b4"/>
     <use xlink:href="#m694fdc3b96" x="92.07907" y="130.069219" style="fill: #ffffff; stroke: #1f77b4"/>
     <use xlink:href="#m694fdc3b96" x="116.656237" y="120.241219" style="fill: #ffffff; stroke: #1f77b4"/>
     <use xlink:href="#m694fdc3b96" x="59.882981" y="52.579219" style="fill: #ffffff; stroke: #1f77b4"/>
     <use xlink:href="#m694fdc3b96" x="95.396987" y="111.169219" style="fill: #ffffff; stroke: #1f77b4"/>
     <use xlink:href="#m694fdc3b96" x="240.279387" y="157.285219" style="fill: #ffffff; stroke: #1f77b4"/>
     <use xlink:href="#m694fdc3b96" x="215.456448" y="152.371219" style="fill: #ffffff; stroke: #1f77b4"/>
     <use xlink:href="#m694fdc3b96" x="235.241068" y="158.419219" style="fill: #ffffff; stroke: #1f77b4"/>
     <use xlink:href="#m694fdc3b96" x="228.851004" y="156.529219" style="fill: #ffffff; stroke: #1f77b4"/>
     <use xlink:href="#m694fdc3b96" x="225.410201" y="153.883219" style="fill: #ffffff; stroke: #1f77b4"/>
     <use xlink:href="#m694fdc3b96" x="133.000053" y="163.711219" style="fill: #ffffff; stroke: #1f77b4"/>
     <use xlink:href="#m694fdc3b96" x="130.050793" y="136.873219" style="fill: #ffffff; stroke: #1f77b4"/>
     <use xlink:href="#m694fdc3b96" x="140.864746" y="146.701219" style="fill: #ffffff; stroke: #1f77b4"/>
     <use xlink:href="#m694fdc3b96" x="201.693235" y="167.113219" style="fill: #ffffff; stroke: #1f77b4"/>
     <use xlink:href="#m694fdc3b96" x="208.574841" y="156.907219" style="fill: #ffffff; stroke: #1f77b4"/>
     <use xlink:href="#m694fdc3b96" x="117.885095" y="167.491219" style="fill: #ffffff; stroke: #1f77b4"/>
     <use xlink:href="#m694fdc3b96" x="139.635888" y="166.357219" style="fill: #ffffff; stroke: #1f77b4"/>
     <use xlink:href="#m694fdc3b96" x="109.037315" y="112.681219" style="fill: #ffffff; stroke: #1f77b4"/>
     <use xlink:href="#m694fdc3b96" x="152.661786" y="165.223219" style="fill: #ffffff; stroke: #1f77b4"/>
     <use xlink:href="#m694fdc3b96" x="154.382188" y="165.223219" style="fill: #ffffff; stroke: #1f77b4"/>
     <use xlink:href="#m694fdc3b96" x="106.702484" y="155.017219" style="fill: #ffffff; stroke: #1f77b4"/>
     <use xlink:href="#m694fdc3b96" x="128.330391" y="131.203219" style="fill: #ffffff; stroke: #1f77b4"/>
     <use xlink:href="#m694fdc3b96" x="90.727326" y="159.553219" style="fill: #ffffff; stroke: #1f77b4"/>
     <use xlink:href="#m694fdc3b96" x="166.670772" y="161.065219" style="fill: #ffffff; stroke: #1f77b4"/>
     <use xlink:href="#m694fdc3b96" x="120.957241" y="150.481219" style="fill: #ffffff; stroke: #1f77b4"/>
     <use xlink:href="#m694fdc3b96" x="143.322463" y="159.553219" style="fill: #ffffff; stroke: #1f77b4"/>
     <use xlink:href="#m694fdc3b96" x="138.161258" y="164.089219" style="fill: #ffffff; stroke: #1f77b4"/>
     <use xlink:href="#m694fdc3b96" x="175.27278" y="158.041219" style="fill: #ffffff; stroke: #1f77b4"/>
     <use xlink:href="#m694fdc3b96" x="182.031501" y="151.993219" style="fill: #ffffff; stroke: #1f77b4"/>
     <use xlink:href="#m694fdc3b96" x="224.55" y="155.773219" style="fill: #ffffff; stroke: #1f77b4"/>
     <use xlink:href="#m694fdc3b96" x="153.521987" y="155.773219" style="fill: #ffffff; stroke: #1f77b4"/>
     <use xlink:href="#m694fdc3b96" x="217.053964" y="150.481219" style="fill: #ffffff; stroke: #1f77b4"/>
     <use xlink:href="#m694fdc3b96" x="293.243182" y="159.175219" style="fill: #ffffff; stroke: #1f77b4"/>
     <use xlink:href="#m694fdc3b96" x="154.750846" y="153.127219" style="fill: #ffffff; stroke: #1f77b4"/>
     <use xlink:href="#m694fdc3b96" x="146.271723" y="153.883219" style="fill: #ffffff; stroke: #1f77b4"/>
     <use xlink:href="#m694fdc3b96" x="164.335941" y="140.653219" style="fill: #ffffff; stroke: #1f77b4"/>
     <use xlink:href="#m694fdc3b96" x="139.758774" y="138.007219" style="fill: #ffffff; stroke: #1f77b4"/>
     <use xlink:href="#m694fdc3b96" x="64.061099" y="92.269219" style="fill: #ffffff; stroke: #1f77b4"/>
     <use xlink:href="#m694fdc3b96" x="151.801586" y="153.883219" style="fill: #ffffff; stroke: #1f77b4"/>
     <use xlink:href="#m694fdc3b96" x="194.074313" y="164.845219" style="fill: #ffffff; stroke: #1f77b4"/>
     <use xlink:href="#m694fdc3b96" x="131.156765" y="138.007219" style="fill: #ffffff; stroke: #1f77b4"/>
     <use xlink:href="#m694fdc3b96" x="220.863425" y="128.557219" style="fill: #ffffff; stroke: #1f77b4"/>
     <use xlink:href="#m694fdc3b96" x="99.943763" y="98.695219" style="fill: #ffffff; stroke: #1f77b4"/>
     <use xlink:href="#m694fdc3b96" x="124.889588" y="139.897219" style="fill: #ffffff; stroke: #1f77b4"/>
     <use xlink:href="#m694fdc3b96" x="129.190592" y="143.677219" style="fill: #ffffff; stroke: #1f77b4"/>
     <use xlink:href="#m694fdc3b96" x="129.559249" y="156.529219" style="fill: #ffffff; stroke: #1f77b4"/>
     <use xlink:href="#m694fdc3b96" x="137.915486" y="144.433219" style="fill: #ffffff; stroke: #1f77b4"/>
     <use xlink:href="#m694fdc3b96" x="185.840962" y="146.701219" style="fill: #ffffff; stroke: #1f77b4"/>
     <use xlink:href="#m694fdc3b96" x="162.00111" y="160.687219" style="fill: #ffffff; stroke: #1f77b4"/>
     <use xlink:href="#m694fdc3b96" x="118.499524" y="151.615219" style="fill: #ffffff; stroke: #1f77b4"/>
     <use xlink:href="#m694fdc3b96" x="167.89963" y="151.993219" style="fill: #ffffff; stroke: #1f77b4"/>
    </g>
   </g>
   <g id="line2d_12">
    <path d="M 26.925 83.573914 
L 239.270834 175.051219 
" clip-path="url(#p9fbd4737b2)" style="fill: none; stroke: #1f77b4; stroke-width: 1.5; stroke-linecap: square"/>
   </g>
   <g id="line2d_13">
    <path d="M 26.925 111.583708 
L 285.733636 175.051219 
" clip-path="url(#p9fbd4737b2)" style="fill: none; stroke-dasharray: 1.5,2.475; stroke-dashoffset: 0; stroke: #1f77b4; stroke-width: 1.5"/>
   </g>
   <g id="patch_3">
    <path d="M 26.925 175.051219 
L 26.925 8.731219 
" style="fill: none; stroke: #000000; stroke-width: 0.8; stroke-linejoin: miter; stroke-linecap: square"/>
   </g>
   <g id="patch_4">
    <path d="M 305.925 175.051219 
L 305.925 8.731219 
" style="fill: none; stroke: #000000; stroke-width: 0.8; stroke-linejoin: miter; stroke-linecap: square"/>
   </g>
   <g id="patch_5">
    <path d="M 26.925 175.051219 
L 305.925 175.051219 
" style="fill: none; stroke: #000000; stroke-width: 0.8; stroke-linejoin: miter; stroke-linecap: square"/>
   </g>
   <g id="patch_6">
    <path d="M 26.925 8.731219 
L 305.925 8.731219 
" style="fill: none; stroke: #000000; stroke-width: 0.8; stroke-linejoin: miter; stroke-linecap: square"/>
   </g>
  </g>
 </g>
 <defs>
  <clipPath id="p9fbd4737b2">
   <rect x="26.925" y="8.731219" width="279" height="166.32"/>
  </clipPath>
 </defs>
</svg>
