<?xml version="1.0" encoding="utf-8" standalone="no"?>
<!DOCTYPE svg PUBLIC "-//W3C//DTD SVG 1.1//EN"
  "http://www.w3.org/Graphics/SVG/1.1/DTD/svg11.dtd">
<svg xmlns:xlink="http://www.w3.org/1999/xlink" width="328.678877pt" height="197.398125pt" viewBox="0 0 328.678877 197.398125" xmlns="http://www.w3.org/2000/svg" version="1.1">
 <metadata>
  <rdf:RDF xmlns:dc="http://purl.org/dc/elements/1.1/" xmlns:cc="http://creativecommons.org/ns#" xmlns:rdf="http://www.w3.org/1999/02/22-rdf-syntax-ns#">
   <cc:Work>
    <dc:type rdf:resource="http://purl.org/dc/dcmitype/StillImage"/>
    <dc:date>2026-02-11T00:16:29.645483</dc:date>
    <dc:format>image/svg+xml</dc:format>
    <dc:creator>
     <cc:Agent>
      <dc:title>Matplotlib v3.9.1.post1, https://matplotlib.org/</dc:title>
     </cc:Agent>
    </dc:creator>
   </cc:Work>
  </rdf:RDF>
 </metadata>
 <defs>
  <style type="text/css">*{stroke-linejoin: round; stroke-linecap: butt}</style>
 </defs>
 <g id="figure_1">
  <g id="patch_1">
   <path d="M 0 197.398125 
L 328.678877 197.398125 
L 328.678877 0 
L 0 0 
z
" style="fill: #ffffff"/>
  </g>
  <g id="axes_1">
   <g id="patch_2">
    <path d="M 36.465625 173.52 
L 315.465625 173.52 
L 315.465625 7.2 
L 36.465625 7.2 
z
" style="fill: #ffffff"/>
   </g>
   <g id="PathCollection_1">
    <defs>
     <path id="mdb85896c8b" d="M 0 3 
C 0.795609 3 1.55874 2.683901 2.12132 2.12132 
C 2.683901 1.55874 3 0.795609 3 0 
C 3 -0.795609 2.683901 -1.55874 2.12132 -2.12132 
C 1.55874 -2.683901 0.795609 -3 0 -3 
C -0.795609 -3 -1.55874 -2.683901 -2.12132 -2.12132 
C -2.683901 -1.55874 -3 -0.795609 -3 0 
C -3 0.795609 -2.683901 1.55874 -2.12132 2.12132 
C -1.55874 2.683901 -0.795609 3 0 3 
z
" style="stroke: #1f77b4"/>
    </defs>
    <g clip-path="url(#p5c90dfd6db)">
     <use xlink:href="#mdb85896c8b" x="84.548121" y="30.893402" style="fill: #1f77b4; stroke: #1f77b4"/>
     <use xlink:href="#mdb85896c8b" x="50.226806" y="35.099014" style="fill: #1f77b4; stroke: #1f77b4"/>
     <use xlink:href="#mdb85896c8b" x="177.744192" y="105.444847" style="fill: #1f77b4; stroke: #1f77b4"/>
     <use xlink:href="#mdb85896c8b" x="49.147443" y="14.76" style="fill: #1f77b4; stroke: #1f77b4"/>
     <use xlink:href="#mdb85896c8b" x="119.422892" y="41.446984" style="fill: #1f77b4; stroke: #1f77b4"/>
     <use xlink:href="#mdb85896c8b" x="217.027576" y="66.076663" style="fill: #1f77b4; stroke: #1f77b4"/>
     <use xlink:href="#mdb85896c8b" x="173.195288" y="66.400615" style="fill: #1f77b4; stroke: #1f77b4"/>
     <use xlink:href="#mdb85896c8b" x="146.253306" y="74.916611" style="fill: #1f77b4; stroke: #1f77b4"/>
     <use xlink:href="#mdb85896c8b" x="177.464317" y="96.29713" style="fill: #1f77b4; stroke: #1f77b4"/>
     <use xlink:href="#mdb85896c8b" x="212.236767" y="125.947496" style="fill: #1f77b4; stroke: #1f77b4"/>
     <use xlink:href="#mdb85896c8b" x="224.55503" y="137.605443" style="fill: #1f77b4; stroke: #1f77b4"/>
     <use xlink:href="#mdb85896c8b" x="221.249759" y="92.714887" style="fill: #1f77b4; stroke: #1f77b4"/>
     <use xlink:href="#mdb85896c8b" x="225.048867" y="92.277268" style="fill: #1f77b4; stroke: #1f77b4"/>
     <use xlink:href="#mdb85896c8b" x="202.929738" y="142.89827" style="fill: #1f77b4; stroke: #1f77b4"/>
     <use xlink:href="#mdb85896c8b" x="265.415719" y="117.977307" style="fill: #1f77b4; stroke: #1f77b4"/>
     <use xlink:href="#mdb85896c8b" x="266.943882" y="115.095695" style="fill: #1f77b4; stroke: #1f77b4"/>
     <use xlink:href="#mdb85896c8b" x="243.37088" y="133.310893" style="fill: #1f77b4; stroke: #1f77b4"/>
     <use xlink:href="#mdb85896c8b" x="239.439183" y="127.894899" style="fill: #1f77b4; stroke: #1f77b4"/>
     <use xlink:href="#mdb85896c8b" x="251.070455" y="124.67295" style="fill: #1f77b4; stroke: #1f77b4"/>
     <use xlink:href="#mdb85896c8b" x="95.240795" y="37.396644" style="fill: #1f77b4; stroke: #1f77b4"/>
     <use xlink:href="#mdb85896c8b" x="252.928858" y="136.150327" style="fill: #1f77b4; stroke: #1f77b4"/>
     <use xlink:href="#mdb85896c8b" x="196.633696" y="120.957286" style="fill: #1f77b4; stroke: #1f77b4"/>
     <use xlink:href="#mdb85896c8b" x="208.389794" y="120.353098" style="fill: #1f77b4; stroke: #1f77b4"/>
     <use xlink:href="#mdb85896c8b" x="164.84752" y="68.369982" style="fill: #1f77b4; stroke: #1f77b4"/>
     <use xlink:href="#mdb85896c8b" x="248.109478" y="129.217726" style="fill: #1f77b4; stroke: #1f77b4"/>
     <use xlink:href="#mdb85896c8b" x="135.616396" y="61.050532" style="fill: #1f77b4; stroke: #1f77b4"/>
     <use xlink:href="#mdb85896c8b" x="251.63876" y="105.444847" style="fill: #1f77b4; stroke: #1f77b4"/>
     <use xlink:href="#mdb85896c8b" x="178.580363" y="80.455778" style="fill: #1f77b4; stroke: #1f77b4"/>
     <use xlink:href="#mdb85896c8b" x="189.77511" y="81.221615" style="fill: #1f77b4; stroke: #1f77b4"/>
     <use xlink:href="#mdb85896c8b" x="135.807049" y="42.181673" style="fill: #1f77b4; stroke: #1f77b4"/>
     <use xlink:href="#mdb85896c8b" x="183.357761" y="117.977307" style="fill: #1f77b4; stroke: #1f77b4"/>
     <use xlink:href="#mdb85896c8b" x="188.489908" y="138.342198" style="fill: #1f77b4; stroke: #1f77b4"/>
     <use xlink:href="#mdb85896c8b" x="247.859783" y="135.431764" style="fill: #1f77b4; stroke: #1f77b4"/>
     <use xlink:href="#mdb85896c8b" x="146.42957" y="63.21395" style="fill: #1f77b4; stroke: #1f77b4"/>
     <use xlink:href="#mdb85896c8b" x="152.121251" y="99.083693" style="fill: #1f77b4; stroke: #1f77b4"/>
     <use xlink:href="#mdb85896c8b" x="182.280544" y="87.602896" style="fill: #1f77b4; stroke: #1f77b4"/>
     <use xlink:href="#mdb85896c8b" x="98.541747" y="33.972483" style="fill: #1f77b4; stroke: #1f77b4"/>
     <use xlink:href="#mdb85896c8b" x="156.606518" y="78.197766" style="fill: #1f77b4; stroke: #1f77b4"/>
     <use xlink:href="#mdb85896c8b" x="276.443891" y="142.122221" style="fill: #1f77b4; stroke: #1f77b4"/>
     <use xlink:href="#mdb85896c8b" x="262.081852" y="132.615233" style="fill: #1f77b4; stroke: #1f77b4"/>
     <use xlink:href="#mdb85896c8b" x="273.649411" y="144.471374" style="fill: #1f77b4; stroke: #1f77b4"/>
     <use xlink:href="#mdb85896c8b" x="270.020196" y="140.590517" style="fill: #1f77b4; stroke: #1f77b4"/>
     <use xlink:href="#mdb85896c8b" x="268.024968" y="135.431764" style="fill: #1f77b4; stroke: #1f77b4"/>
     <use xlink:href="#mdb85896c8b" x="199.163468" y="156.356382" style="fill: #1f77b4; stroke: #1f77b4"/>
     <use xlink:href="#mdb85896c8b" x="196.268412" y="108.0204" style="fill: #1f77b4; stroke: #1f77b4"/>
     <use xlink:href="#mdb85896c8b" x="206.594118" y="122.795352" style="fill: #1f77b4; stroke: #1f77b4"/>
     <use xlink:href="#mdb85896c8b" x="253.409495" y="164.950683" style="fill: #1f77b4; stroke: #1f77b4"/>
     <use xlink:href="#mdb85896c8b" x="257.815064" y="141.35301" style="fill: #1f77b4; stroke: #1f77b4"/>
     <use xlink:href="#mdb85896c8b" x="183.625732" y="165.96" style="fill: #1f77b4; stroke: #1f77b4"/>
     <use xlink:href="#mdb85896c8b" x="205.459612" y="162.966395" style="fill: #1f77b4; stroke: #1f77b4"/>
     <use xlink:href="#mdb85896c8b" x="173.628297" y="79.6966" style="fill: #1f77b4; stroke: #1f77b4"/>
     <use xlink:href="#mdb85896c8b" x="217.027576" y="160.072045" style="fill: #1f77b4; stroke: #1f77b4"/>
     <use xlink:href="#mdb85896c8b" x="218.484142" y="160.072045" style="fill: #1f77b4; stroke: #1f77b4"/>
     <use xlink:href="#mdb85896c8b" x="170.862239" y="137.605443" style="fill: #1f77b4; stroke: #1f77b4"/>
     <use xlink:href="#mdb85896c8b" x="194.550608" y="100.511053" style="fill: #1f77b4; stroke: #1f77b4"/>
     <use xlink:href="#mdb85896c8b" x="150.250471" y="146.885489" style="fill: #1f77b4; stroke: #1f77b4"/>
     <use xlink:href="#mdb85896c8b" x="228.456216" y="150.211792" style="fill: #1f77b4; stroke: #1f77b4"/>
     <use xlink:href="#mdb85896c8b" x="186.931394" y="129.217726" style="fill: #1f77b4; stroke: #1f77b4"/>
     <use xlink:href="#mdb85896c8b" x="208.835018" y="146.885489" style="fill: #1f77b4; stroke: #1f77b4"/>
     <use xlink:href="#mdb85896c8b" x="204.085541" y="157.270577" style="fill: #1f77b4; stroke: #1f77b4"/>
     <use xlink:href="#mdb85896c8b" x="235.024089" y="143.681279" style="fill: #1f77b4; stroke: #1f77b4"/>
     <use xlink:href="#mdb85896c8b" x="239.97005" y="131.925072" style="fill: #1f77b4; stroke: #1f77b4"/>
     <use xlink:href="#mdb85896c8b" x="267.521535" y="139.085223" style="fill: #1f77b4; stroke: #1f77b4"/>
     <use xlink:href="#mdb85896c8b" x="217.757817" y="139.085223" style="fill: #1f77b4; stroke: #1f77b4"/>
     <use xlink:href="#mdb85896c8b" x="263.053426" y="129.217726" style="fill: #1f77b4; stroke: #1f77b4"/>
     <use xlink:href="#mdb85896c8b" x="302.783807" y="146.073344" style="fill: #1f77b4; stroke: #1f77b4"/>
     <use xlink:href="#mdb85896c8b" x="218.794236" y="134.012141" style="fill: #1f77b4; stroke: #1f77b4"/>
     <use xlink:href="#mdb85896c8b" x="211.476063" y="135.431764" style="fill: #1f77b4; stroke: #1f77b4"/>
     <use xlink:href="#mdb85896c8b" x="226.617154" y="113.411304" style="fill: #1f77b4; stroke: #1f77b4"/>
     <use xlink:href="#mdb85896c8b" x="205.573491" y="109.603009" style="fill: #1f77b4; stroke: #1f77b4"/>
     <use xlink:href="#mdb85896c8b" x="106.812928" y="61.356329" style="fill: #1f77b4; stroke: #1f77b4"/>
     <use xlink:href="#mdb85896c8b" x="216.293378" y="135.431764" style="fill: #1f77b4; stroke: #1f77b4"/>
     <use xlink:href="#mdb85896c8b" x="248.358713" y="159.128199" style="fill: #1f77b4; stroke: #1f77b4"/>
     <use xlink:href="#mdb85896c8b" x="197.361322" y="109.603009" style="fill: #1f77b4; stroke: #1f77b4"/>
     <use xlink:href="#mdb85896c8b" x="265.342518" y="97.216137" style="fill: #1f77b4; stroke: #1f77b4"/>
     <use xlink:href="#mdb85896c8b" x="162.521315" y="66.725773" style="fill: #1f77b4; stroke: #1f77b4"/>
     <use xlink:href="#mdb85896c8b" x="191.048233" y="112.306164" style="fill: #1f77b4; stroke: #1f77b4"/>
     <use xlink:href="#mdb85896c8b" x="195.412233" y="117.977307" style="fill: #1f77b4; stroke: #1f77b4"/>
     <use xlink:href="#mdb85896c8b" x="195.77983" y="140.590517" style="fill: #1f77b4; stroke: #1f77b4"/>
     <use xlink:href="#mdb85896c8b" x="203.855168" y="119.157121" style="fill: #1f77b4; stroke: #1f77b4"/>
     <use xlink:href="#mdb85896c8b" x="242.6802" y="122.795352" style="fill: #1f77b4; stroke: #1f77b4"/>
     <use xlink:href="#mdb85896c8b" x="224.752781" y="149.36826" style="fill: #1f77b4; stroke: #1f77b4"/>
     <use xlink:href="#mdb85896c8b" x="184.29335" y="131.240324" style="fill: #1f77b4; stroke: #1f77b4"/>
     <use xlink:href="#mdb85896c8b" x="229.414206" y="131.925072" style="fill: #1f77b4; stroke: #1f77b4"/>
    </g>
   </g>
   <g id="matplotlib.axis_1">
    <g id="xtick_1">
     <g id="line2d_1">
      <defs>
       <path id="m652388805c" d="M 0 0 
L 0 3.5 
" style="stroke: #000000; stroke-width: 0.8"/>
      </defs>
      <g>
       <use xlink:href="#m652388805c" x="39.427447" y="173.52" style="stroke: #000000; stroke-width: 0.8"/>
      </g>
     </g>
     <g id="text_1">
      <!-- 1.25 -->
      <g transform="translate(28.294634 188.118438) scale(0.1 -0.1)">
       <defs>
        <path id="DejaVuSans-31" d="M 794 531 
L 1825 531 
L 1825 4091 
L 703 3866 
L 703 4441 
L 1819 4666 
L 2450 4666 
L 2450 531 
L 3481 531 
L 3481 0 
L 794 0 
L 794 531 
z
" transform="scale(0.015625)"/>
        <path id="DejaVuSans-2e" d="M 684 794 
L 1344 794 
L 1344 0 
L 684 0 
L 684 794 
z
" transform="scale(0.015625)"/>
        <path id="DejaVuSans-32" d="M 1228 531 
L 3431 531 
L 3431 0 
L 469 0 
L 469 531 
Q 828 903 1448 1529 
Q 2069 2156 2228 2338 
Q 2531 2678 2651 2914 
Q 2772 3150 2772 3378 
Q 2772 3750 2511 3984 
Q 2250 4219 1831 4219 
Q 1534 4219 1204 4116 
Q 875 4013 500 3803 
L 500 4441 
Q 881 4594 1212 4672 
Q 1544 4750 1819 4750 
Q 2544 4750 2975 4387 
Q 3406 4025 3406 3419 
Q 3406 3131 3298 2873 
Q 3191 2616 2906 2266 
Q 2828 2175 2409 1742 
Q 1991 1309 1228 531 
z
" transform="scale(0.015625)"/>
        <path id="DejaVuSans-35" d="M 691 4666 
L 3169 4666 
L 3169 4134 
L 1269 4134 
L 1269 2991 
Q 1406 3038 1543 3061 
Q 1681 3084 1819 3084 
Q 2600 3084 3056 2656 
Q 3513 2228 3513 1497 
Q 3513 744 3044 326 
Q 2575 -91 1722 -91 
Q 1428 -91 1123 -41 
Q 819 9 494 109 
L 494 744 
Q 775 591 1075 516 
Q 1375 441 1709 441 
Q 2250 441 2565 725 
Q 2881 1009 2881 1497 
Q 2881 1984 2565 2268 
Q 2250 2553 1709 2553 
Q 1456 2553 1204 2497 
Q 953 2441 691 2322 
L 691 4666 
z
" transform="scale(0.015625)"/>
       </defs>
       <use xlink:href="#DejaVuSans-31"/>
       <use xlink:href="#DejaVuSans-2e" x="63.623047"/>
       <use xlink:href="#DejaVuSans-32" x="95.410156"/>
       <use xlink:href="#DejaVuSans-35" x="159.033203"/>
      </g>
     </g>
    </g>
    <g id="xtick_2">
     <g id="line2d_2">
      <g>
       <use xlink:href="#m652388805c" x="73.292274" y="173.52" style="stroke: #000000; stroke-width: 0.8"/>
      </g>
     </g>
     <g id="text_2">
      <!-- 1.50 -->
      <g transform="translate(62.159461 188.118438) scale(0.1 -0.1)">
       <defs>
        <path id="DejaVuSans-30" d="M 2034 4250 
Q 1547 4250 1301 3770 
Q 1056 3291 1056 2328 
Q 1056 1369 1301 889 
Q 1547 409 2034 409 
Q 2525 409 2770 889 
Q 3016 1369 3016 2328 
Q 3016 3291 2770 3770 
Q 2525 4250 2034 4250 
z
M 2034 4750 
Q 2819 4750 3233 4129 
Q 3647 3509 3647 2328 
Q 3647 1150 3233 529 
Q 2819 -91 2034 -91 
Q 1250 -91 836 529 
Q 422 1150 422 2328 
Q 422 3509 836 4129 
Q 1250 4750 2034 4750 
z
" transform="scale(0.015625)"/>
       </defs>
       <use xlink:href="#DejaVuSans-31"/>
       <use xlink:href="#DejaVuSans-2e" x="63.623047"/>
       <use xlink:href="#DejaVuSans-35" x="95.410156"/>
       <use xlink:href="#DejaVuSans-30" x="159.033203"/>
      </g>
     </g>
    </g>
    <g id="xtick_3">
     <g id="line2d_3">
      <g>
       <use xlink:href="#m652388805c" x="107.157101" y="173.52" style="stroke: #000000; stroke-width: 0.8"/>
      </g>
     </g>
     <g id="text_3">
      <!-- 1.75 -->
      <g transform="translate(96.024289 188.118438) scale(0.1 -0.1)">
       <defs>
        <path id="DejaVuSans-37" d="M 525 4666 
L 3525 4666 
L 3525 4397 
L 1831 0 
L 1172 0 
L 2766 4134 
L 525 4134 
L 525 4666 
z
" transform="scale(0.015625)"/>
       </defs>
       <use xlink:href="#DejaVuSans-31"/>
       <use xlink:href="#DejaVuSans-2e" x="63.623047"/>
       <use xlink:href="#DejaVuSans-37" x="95.410156"/>
       <use xlink:href="#DejaVuSans-35" x="159.033203"/>
      </g>
     </g>
    </g>
    <g id="xtick_4">
     <g id="line2d_4">
      <g>
       <use xlink:href="#m652388805c" x="141.021929" y="173.52" style="stroke: #000000; stroke-width: 0.8"/>
      </g>
     </g>
     <g id="text_4">
      <!-- 2.00 -->
      <g transform="translate(129.889116 188.118438) scale(0.1 -0.1)">
       <use xlink:href="#DejaVuSans-32"/>
       <use xlink:href="#DejaVuSans-2e" x="63.623047"/>
       <use xlink:href="#DejaVuSans-30" x="95.410156"/>
       <use xlink:href="#DejaVuSans-30" x="159.033203"/>
      </g>
     </g>
    </g>
    <g id="xtick_5">
     <g id="line2d_5">
      <g>
       <use xlink:href="#m652388805c" x="174.886756" y="173.52" style="stroke: #000000; stroke-width: 0.8"/>
      </g>
     </g>
     <g id="text_5">
      <!-- 2.25 -->
      <g transform="translate(163.753943 188.118438) scale(0.1 -0.1)">
       <use xlink:href="#DejaVuSans-32"/>
       <use xlink:href="#DejaVuSans-2e" x="63.623047"/>
       <use xlink:href="#DejaVuSans-32" x="95.410156"/>
       <use xlink:href="#DejaVuSans-35" x="159.033203"/>
      </g>
     </g>
    </g>
    <g id="xtick_6">
     <g id="line2d_6">
      <g>
       <use xlink:href="#m652388805c" x="208.751583" y="173.52" style="stroke: #000000; stroke-width: 0.8"/>
      </g>
     </g>
     <g id="text_6">
      <!-- 2.50 -->
      <g transform="translate(197.618771 188.118438) scale(0.1 -0.1)">
       <use xlink:href="#DejaVuSans-32"/>
       <use xlink:href="#DejaVuSans-2e" x="63.623047"/>
       <use xlink:href="#DejaVuSans-35" x="95.410156"/>
       <use xlink:href="#DejaVuSans-30" x="159.033203"/>
      </g>
     </g>
    </g>
    <g id="xtick_7">
     <g id="line2d_7">
      <g>
       <use xlink:href="#m652388805c" x="242.61641" y="173.52" style="stroke: #000000; stroke-width: 0.8"/>
      </g>
     </g>
     <g id="text_7">
      <!-- 2.75 -->
      <g transform="translate(231.483598 188.118438) scale(0.1 -0.1)">
       <use xlink:href="#DejaVuSans-32"/>
       <use xlink:href="#DejaVuSans-2e" x="63.623047"/>
       <use xlink:href="#DejaVuSans-37" x="95.410156"/>
       <use xlink:href="#DejaVuSans-35" x="159.033203"/>
      </g>
     </g>
    </g>
    <g id="xtick_8">
     <g id="line2d_8">
      <g>
       <use xlink:href="#m652388805c" x="276.481238" y="173.52" style="stroke: #000000; stroke-width: 0.8"/>
      </g>
     </g>
     <g id="text_8">
      <!-- 3.00 -->
      <g transform="translate(265.348425 188.118438) scale(0.1 -0.1)">
       <defs>
        <path id="DejaVuSans-33" d="M 2597 2516 
Q 3050 2419 3304 2112 
Q 3559 1806 3559 1356 
Q 3559 666 3084 287 
Q 2609 -91 1734 -91 
Q 1441 -91 1130 -33 
Q 819 25 488 141 
L 488 750 
Q 750 597 1062 519 
Q 1375 441 1716 441 
Q 2309 441 2620 675 
Q 2931 909 2931 1356 
Q 2931 1769 2642 2001 
Q 2353 2234 1838 2234 
L 1294 2234 
L 1294 2753 
L 1863 2753 
Q 2328 2753 2575 2939 
Q 2822 3125 2822 3475 
Q 2822 3834 2567 4026 
Q 2313 4219 1838 4219 
Q 1578 4219 1281 4162 
Q 984 4106 628 3988 
L 628 4550 
Q 988 4650 1302 4700 
Q 1616 4750 1894 4750 
Q 2613 4750 3031 4423 
Q 3450 4097 3450 3541 
Q 3450 3153 3228 2886 
Q 3006 2619 2597 2516 
z
" transform="scale(0.015625)"/>
       </defs>
       <use xlink:href="#DejaVuSans-33"/>
       <use xlink:href="#DejaVuSans-2e" x="63.623047"/>
       <use xlink:href="#DejaVuSans-30" x="95.410156"/>
       <use xlink:href="#DejaVuSans-30" x="159.033203"/>
      </g>
     </g>
    </g>
    <g id="xtick_9">
     <g id="line2d_9">
      <g>
       <use xlink:href="#m652388805c" x="310.346065" y="173.52" style="stroke: #000000; stroke-width: 0.8"/>
      </g>
     </g>
     <g id="text_9">
      <!-- 3.25 -->
      <g transform="translate(299.213252 188.118438) scale(0.1 -0.1)">
       <use xlink:href="#DejaVuSans-33"/>
       <use xlink:href="#DejaVuSans-2e" x="63.623047"/>
       <use xlink:href="#DejaVuSans-32" x="95.410156"/>
       <use xlink:href="#DejaVuSans-35" x="159.033203"/>
      </g>
     </g>
    </g>
   </g>
   <g id="matplotlib.axis_2">
    <g id="ytick_1">
     <g id="line2d_10">
      <defs>
       <path id="m400b018dbf" d="M 0 0 
L -3.5 0 
" style="stroke: #000000; stroke-width: 0.8"/>
      </defs>
      <g>
       <use xlink:href="#m400b018dbf" x="36.465625" y="157.383358" style="stroke: #000000; stroke-width: 0.8"/>
      </g>
     </g>
     <g id="text_10">
      <!-- 2.25 -->
      <g transform="translate(7.2 161.182577) scale(0.1 -0.1)">
       <use xlink:href="#DejaVuSans-32"/>
       <use xlink:href="#DejaVuSans-2e" x="63.623047"/>
       <use xlink:href="#DejaVuSans-32" x="95.410156"/>
       <use xlink:href="#DejaVuSans-35" x="159.033203"/>
      </g>
     </g>
    </g>
    <g id="ytick_2">
     <g id="line2d_11">
      <g>
       <use xlink:href="#m400b018dbf" x="36.465625" y="135.55713" style="stroke: #000000; stroke-width: 0.8"/>
      </g>
     </g>
     <g id="text_11">
      <!-- 2.50 -->
      <g transform="translate(7.2 139.356349) scale(0.1 -0.1)">
       <use xlink:href="#DejaVuSans-32"/>
       <use xlink:href="#DejaVuSans-2e" x="63.623047"/>
       <use xlink:href="#DejaVuSans-35" x="95.410156"/>
       <use xlink:href="#DejaVuSans-30" x="159.033203"/>
      </g>
     </g>
    </g>
    <g id="ytick_3">
     <g id="line2d_12">
      <g>
       <use xlink:href="#m400b018dbf" x="36.465625" y="113.730902" style="stroke: #000000; stroke-width: 0.8"/>
      </g>
     </g>
     <g id="text_12">
      <!-- 2.75 -->
      <g transform="translate(7.2 117.530121) scale(0.1 -0.1)">
       <use xlink:href="#DejaVuSans-32"/>
       <use xlink:href="#DejaVuSans-2e" x="63.623047"/>
       <use xlink:href="#DejaVuSans-37" x="95.410156"/>
       <use xlink:href="#DejaVuSans-35" x="159.033203"/>
      </g>
     </g>
    </g>
    <g id="ytick_4">
     <g id="line2d_13">
      <g>
       <use xlink:href="#m400b018dbf" x="36.465625" y="91.904674" style="stroke: #000000; stroke-width: 0.8"/>
      </g>
     </g>
     <g id="text_13">
      <!-- 3.00 -->
      <g transform="translate(7.2 95.703893) scale(0.1 -0.1)">
       <use xlink:href="#DejaVuSans-33"/>
       <use xlink:href="#DejaVuSans-2e" x="63.623047"/>
       <use xlink:href="#DejaVuSans-30" x="95.410156"/>
       <use xlink:href="#DejaVuSans-30" x="159.033203"/>
      </g>
     </g>
    </g>
    <g id="ytick_5">
     <g id="line2d_14">
      <g>
       <use xlink:href="#m400b018dbf" x="36.465625" y="70.078446" style="stroke: #000000; stroke-width: 0.8"/>
      </g>
     </g>
     <g id="text_14">
      <!-- 3.25 -->
      <g transform="translate(7.2 73.877665) scale(0.1 -0.1)">
       <use xlink:href="#DejaVuSans-33"/>
       <use xlink:href="#DejaVuSans-2e" x="63.623047"/>
       <use xlink:href="#DejaVuSans-32" x="95.410156"/>
       <use xlink:href="#DejaVuSans-35" x="159.033203"/>
      </g>
     </g>
    </g>
    <g id="ytick_6">
     <g id="line2d_15">
      <g>
       <use xlink:href="#m400b018dbf" x="36.465625" y="48.252218" style="stroke: #000000; stroke-width: 0.8"/>
      </g>
     </g>
     <g id="text_15">
      <!-- 3.50 -->
      <g transform="translate(7.2 52.051437) scale(0.1 -0.1)">
       <use xlink:href="#DejaVuSans-33"/>
       <use xlink:href="#DejaVuSans-2e" x="63.623047"/>
       <use xlink:href="#DejaVuSans-35" x="95.410156"/>
       <use xlink:href="#DejaVuSans-30" x="159.033203"/>
      </g>
     </g>
    </g>
    <g id="ytick_7">
     <g id="line2d_16">
      <g>
       <use xlink:href="#m400b018dbf" x="36.465625" y="26.425991" style="stroke: #000000; stroke-width: 0.8"/>
      </g>
     </g>
     <g id="text_16">
      <!-- 3.75 -->
      <g transform="translate(7.2 30.225209) scale(0.1 -0.1)">
       <use xlink:href="#DejaVuSans-33"/>
       <use xlink:href="#DejaVuSans-2e" x="63.623047"/>
       <use xlink:href="#DejaVuSans-37" x="95.410156"/>
       <use xlink:href="#DejaVuSans-35" x="159.033203"/>
      </g>
     </g>
    </g>
   </g>
   <g id="line2d_17">
    <path d="M 36.465625 25.648234 
L 315.465625 173.315161 
" clip-path="url(#p5c90dfd6db)" style="fill: none; stroke: #000000; stroke-width: 0.5; stroke-linecap: square"/>
   </g>
   <g id="patch_3">
    <path d="M 36.465625 173.52 
L 36.465625 7.2 
" style="fill: none; stroke: #000000; stroke-width: 0.8; stroke-linejoin: miter; stroke-linecap: square"/>
   </g>
   <g id="patch_4">
    <path d="M 315.465625 173.52 
L 315.465625 7.2 
" style="fill: none; stroke: #000000; stroke-width: 0.8; stroke-linejoin: miter; stroke-linecap: square"/>
   </g>
   <g id="patch_5">
    <path d="M 36.465625 173.52 
L 315.465625 173.52 
" style="fill: none; stroke: #000000; stroke-width: 0.8; stroke-linejoin: miter; stroke-linecap: square"/>
   </g>
   <g id="patch_6">
    <path d="M 36.465625 7.2 
L 315.465625 7.2 
" style="fill: none; stroke: #000000; stroke-width: 0.8; stroke-linejoin: miter; stroke-linecap: square"/>
   </g>
  </g>
 </g>
 <defs>
  <clipPath id="p5c90dfd6db">
   <rect x="36.465625" y="7.2" width="279" height="166.32"/>
  </clipPath>
 </defs>
</svg>
