<?xml version="1.0" encoding="utf-8" standalone="no"?>
<!DOCTYPE svg PUBLIC "-//W3C//DTD SVG 1.1//EN"
  "http://www.w3.org/Graphics/SVG/1.1/DTD/svg11.dtd">
<svg xmlns:xlink="http://www.w3.org/1999/xlink" width="326.803125pt" height="214.12628pt" viewBox="0 0 326.803125 214.12628" xmlns="http://www.w3.org/2000/svg" version="1.1">
 <metadata>
  <rdf:RDF xmlns:dc="http://purl.org/dc/elements/1.1/" xmlns:cc="http://creativecommons.org/ns#" xmlns:rdf="http://www.w3.org/1999/02/22-rdf-syntax-ns#">
   <cc:Work>
    <dc:type rdf:resource="http://purl.org/dc/dcmitype/StillImage"/>
    <dc:date>2026-02-11T00:16:29.777404</dc:date>
    <dc:format>image/svg+xml</dc:format>
    <dc:creator>
     <cc:Agent>
      <dc:title>Matplotlib v3.9.1.post1, https://matplotlib.org/</dc:title>
     </cc:Agent>
    </dc:creator>
   </cc:Work>
  </rdf:RDF>
 </metadata>
 <defs>
  <style type="text/css">*{stroke-linejoin: round; stroke-linecap: butt}</style>
 </defs>
 <g id="figure_1">
  <g id="patch_1">
   <path d="M 0 214.12628 
L 326.803125 214.12628 
L 326.803125 0 
L 0 0 
z
" style="fill: #ffffff"/>
  </g>
  <g id="axes_1">
   <g id="patch_2">
    <path d="M 40.603125 176.57003 
L 319.603125 176.57003 
L 319.603125 10.25003 
L 40.603125 10.25003 
z
" style="fill: #ffffff"/>
   </g>
   <g id="PathCollection_1">
    <defs>
     <path id="m1588e7a43f" d="M 0 2.236068 
C 0.593012 2.236068 1.161816 2.000462 1.581139 1.581139 
C 2.000462 1.161816 2.236068 0.593012 2.236068 0 
C 2.236068 -0.593012 2.000462 -1.161816 1.581139 -1.581139 
C 1.161816 -2.000462 0.593012 -2.236068 0 -2.236068 
C -0.593012 -2.236068 -1.161816 -2.000462 -1.581139 -1.581139 
C -2.000462 -1.161816 -2.236068 -0.593012 -2.236068 0 
C -2.236068 0.593012 -2.000462 1.161816 -1.581139 1.581139 
C -1.161816 2.000462 -0.593012 2.236068 0 2.236068 
z
" style="stroke: #1f77b4"/>
    </defs>
    <g clip-path="url(#p8a920ad1d1)">
     <use xlink:href="#m1588e7a43f" x="85.319595" y="113.161381" style="fill: #1f77b4; stroke: #1f77b4"/>
     <use xlink:href="#m1588e7a43f" x="53.284943" y="70.934354" style="fill: #1f77b4; stroke: #1f77b4"/>
     <use xlink:href="#m1588e7a43f" x="213.573021" y="134.955976" style="fill: #1f77b4; stroke: #1f77b4"/>
     <use xlink:href="#m1588e7a43f" x="161.44495" y="27.345165" style="fill: #1f77b4; stroke: #1f77b4"/>
     <use xlink:href="#m1588e7a43f" x="53.514582" y="75.02084" style="fill: #1f77b4; stroke: #1f77b4"/>
     <use xlink:href="#m1588e7a43f" x="112.531826" y="70.934354" style="fill: #1f77b4; stroke: #1f77b4"/>
     <use xlink:href="#m1588e7a43f" x="163.396882" y="55.95057" style="fill: #1f77b4; stroke: #1f77b4"/>
     <use xlink:href="#m1588e7a43f" x="158.459642" y="110.437057" style="fill: #1f77b4; stroke: #1f77b4"/>
     <use xlink:href="#m1588e7a43f" x="152.029747" y="90.004624" style="fill: #1f77b4; stroke: #1f77b4"/>
     <use xlink:href="#m1588e7a43f" x="156.27807" y="69.572192" style="fill: #1f77b4; stroke: #1f77b4"/>
     <use xlink:href="#m1588e7a43f" x="189.001639" y="115.885705" style="fill: #1f77b4; stroke: #1f77b4"/>
     <use xlink:href="#m1588e7a43f" x="188.083083" y="50.501921" style="fill: #1f77b4; stroke: #1f77b4"/>
     <use xlink:href="#m1588e7a43f" x="162.593145" y="42.328948" style="fill: #1f77b4; stroke: #1f77b4"/>
     <use xlink:href="#m1588e7a43f" x="160.641213" y="47.777597" style="fill: #1f77b4; stroke: #1f77b4"/>
     <use xlink:href="#m1588e7a43f" x="126.53981" y="107.712732" style="fill: #1f77b4; stroke: #1f77b4"/>
     <use xlink:href="#m1588e7a43f" x="147.207327" y="30.069489" style="fill: #1f77b4; stroke: #1f77b4"/>
     <use xlink:href="#m1588e7a43f" x="137.103207" y="61.399219" style="fill: #1f77b4; stroke: #1f77b4"/>
     <use xlink:href="#m1588e7a43f" x="123.784141" y="76.383003" style="fill: #1f77b4; stroke: #1f77b4"/>
     <use xlink:href="#m1588e7a43f" x="177.749324" y="76.383003" style="fill: #1f77b4; stroke: #1f77b4"/>
     <use xlink:href="#m1588e7a43f" x="183.83476" y="76.383003" style="fill: #1f77b4; stroke: #1f77b4"/>
     <use xlink:href="#m1588e7a43f" x="105.413014" y="70.934354" style="fill: #1f77b4; stroke: #1f77b4"/>
     <use xlink:href="#m1588e7a43f" x="252.152386" y="79.107327" style="fill: #1f77b4; stroke: #1f77b4"/>
     <use xlink:href="#m1588e7a43f" x="186.24597" y="87.2803" style="fill: #1f77b4; stroke: #1f77b4"/>
     <use xlink:href="#m1588e7a43f" x="222.414125" y="98.177597" style="fill: #1f77b4; stroke: #1f77b4"/>
     <use xlink:href="#m1588e7a43f" x="116.894968" y="23.258678" style="fill: #1f77b4; stroke: #1f77b4"/>
     <use xlink:href="#m1588e7a43f" x="261.22313" y="23.258678" style="fill: #1f77b4; stroke: #1f77b4"/>
     <use xlink:href="#m1588e7a43f" x="121.832209" y="38.242462" style="fill: #1f77b4; stroke: #1f77b4"/>
     <use xlink:href="#m1588e7a43f" x="193.479601" y="115.885705" style="fill: #1f77b4; stroke: #1f77b4"/>
     <use xlink:href="#m1588e7a43f" x="90.371655" y="43.691111" style="fill: #1f77b4; stroke: #1f77b4"/>
     <use xlink:href="#m1588e7a43f" x="202.205886" y="99.539759" style="fill: #1f77b4; stroke: #1f77b4"/>
     <use xlink:href="#m1588e7a43f" x="127.228727" y="43.691111" style="fill: #1f77b4; stroke: #1f77b4"/>
     <use xlink:href="#m1588e7a43f" x="228.269922" y="121.334354" style="fill: #1f77b4; stroke: #1f77b4"/>
     <use xlink:href="#m1588e7a43f" x="242.277906" y="129.507327" style="fill: #1f77b4; stroke: #1f77b4"/>
     <use xlink:href="#m1588e7a43f" x="265.701092" y="143.128948" style="fill: #1f77b4; stroke: #1f77b4"/>
     <use xlink:href="#m1588e7a43f" x="174.304738" y="84.555976" style="fill: #1f77b4; stroke: #1f77b4"/>
     <use xlink:href="#m1588e7a43f" x="192.216586" y="80.469489" style="fill: #1f77b4; stroke: #1f77b4"/>
     <use xlink:href="#m1588e7a43f" x="187.164527" y="137.6803" style="fill: #1f77b4; stroke: #1f77b4"/>
     <use xlink:href="#m1588e7a43f" x="119.650637" y="90.004624" style="fill: #1f77b4; stroke: #1f77b4"/>
     <use xlink:href="#m1588e7a43f" x="147.551785" y="104.988408" style="fill: #1f77b4; stroke: #1f77b4"/>
     <use xlink:href="#m1588e7a43f" x="254.219138" y="124.058678" style="fill: #1f77b4; stroke: #1f77b4"/>
     <use xlink:href="#m1588e7a43f" x="245.952131" y="109.074894" style="fill: #1f77b4; stroke: #1f77b4"/>
     <use xlink:href="#m1588e7a43f" x="250.774552" y="88.642462" style="fill: #1f77b4; stroke: #1f77b4"/>
     <use xlink:href="#m1588e7a43f" x="271.901347" y="140.404624" style="fill: #1f77b4; stroke: #1f77b4"/>
     <use xlink:href="#m1588e7a43f" x="265.701092" y="102.264084" style="fill: #1f77b4; stroke: #1f77b4"/>
     <use xlink:href="#m1588e7a43f" x="243.65574" y="128.145165" style="fill: #1f77b4; stroke: #1f77b4"/>
     <use xlink:href="#m1588e7a43f" x="221.954847" y="125.42084" style="fill: #1f77b4; stroke: #1f77b4"/>
     <use xlink:href="#m1588e7a43f" x="225.973531" y="133.593813" style="fill: #1f77b4; stroke: #1f77b4"/>
     <use xlink:href="#m1588e7a43f" x="273.73846" y="149.939759" style="fill: #1f77b4; stroke: #1f77b4"/>
     <use xlink:href="#m1588e7a43f" x="254.678416" y="134.955976" style="fill: #1f77b4; stroke: #1f77b4"/>
     <use xlink:href="#m1588e7a43f" x="306.921307" y="140.404624" style="fill: #1f77b4; stroke: #1f77b4"/>
     <use xlink:href="#m1588e7a43f" x="278.79052" y="169.01003" style="fill: #1f77b4; stroke: #1f77b4"/>
     <use xlink:href="#m1588e7a43f" x="173.730641" y="99.539759" style="fill: #1f77b4; stroke: #1f77b4"/>
     <use xlink:href="#m1588e7a43f" x="262.830603" y="158.112732" style="fill: #1f77b4; stroke: #1f77b4"/>
     <use xlink:href="#m1588e7a43f" x="245.952131" y="126.783003" style="fill: #1f77b4; stroke: #1f77b4"/>
     <use xlink:href="#m1588e7a43f" x="229.532937" y="117.247867" style="fill: #1f77b4; stroke: #1f77b4"/>
     <use xlink:href="#m1588e7a43f" x="179.930896" y="141.766786" style="fill: #1f77b4; stroke: #1f77b4"/>
     <use xlink:href="#m1588e7a43f" x="158.689281" y="110.437057" style="fill: #1f77b4; stroke: #1f77b4"/>
     <use xlink:href="#m1588e7a43f" x="278.216422" y="132.231651" style="fill: #1f77b4; stroke: #1f77b4"/>
     <use xlink:href="#m1588e7a43f" x="206.22457" y="109.074894" style="fill: #1f77b4; stroke: #1f77b4"/>
     <use xlink:href="#m1588e7a43f" x="218.625081" y="130.869489" style="fill: #1f77b4; stroke: #1f77b4"/>
     <use xlink:href="#m1588e7a43f" x="242.737184" y="136.318138" style="fill: #1f77b4; stroke: #1f77b4"/>
     <use xlink:href="#m1588e7a43f" x="266.504829" y="118.61003" style="fill: #1f77b4; stroke: #1f77b4"/>
     <use xlink:href="#m1588e7a43f" x="264.667716" y="110.437057" style="fill: #1f77b4; stroke: #1f77b4"/>
     <use xlink:href="#m1588e7a43f" x="304.969375" y="80.469489" style="fill: #1f77b4; stroke: #1f77b4"/>
     <use xlink:href="#m1588e7a43f" x="303.70636" y="57.312732" style="fill: #1f77b4; stroke: #1f77b4"/>
     <use xlink:href="#m1588e7a43f" x="272.245806" y="88.642462" style="fill: #1f77b4; stroke: #1f77b4"/>
     <use xlink:href="#m1588e7a43f" x="289.124278" y="125.42084" style="fill: #1f77b4; stroke: #1f77b4"/>
     <use xlink:href="#m1588e7a43f" x="271.901347" y="110.437057" style="fill: #1f77b4; stroke: #1f77b4"/>
     <use xlink:href="#m1588e7a43f" x="261.22313" y="68.21003" style="fill: #1f77b4; stroke: #1f77b4"/>
     <use xlink:href="#m1588e7a43f" x="199.335398" y="70.934354" style="fill: #1f77b4; stroke: #1f77b4"/>
     <use xlink:href="#m1588e7a43f" x="209.898796" y="58.674894" style="fill: #1f77b4; stroke: #1f77b4"/>
     <use xlink:href="#m1588e7a43f" x="68.555942" y="17.81003" style="fill: #1f77b4; stroke: #1f77b4"/>
     <use xlink:href="#m1588e7a43f" x="280.512813" y="72.296516" style="fill: #1f77b4; stroke: #1f77b4"/>
     <use xlink:href="#m1588e7a43f" x="265.126994" y="100.901921" style="fill: #1f77b4; stroke: #1f77b4"/>
     <use xlink:href="#m1588e7a43f" x="204.731916" y="122.696516" style="fill: #1f77b4; stroke: #1f77b4"/>
     <use xlink:href="#m1588e7a43f" x="144.222019" y="92.728948" style="fill: #1f77b4; stroke: #1f77b4"/>
     <use xlink:href="#m1588e7a43f" x="288.55018" y="58.674894" style="fill: #1f77b4; stroke: #1f77b4"/>
     <use xlink:href="#m1588e7a43f" x="148.585161" y="92.728948" style="fill: #1f77b4; stroke: #1f77b4"/>
     <use xlink:href="#m1588e7a43f" x="222.184486" y="98.177597" style="fill: #1f77b4; stroke: #1f77b4"/>
     <use xlink:href="#m1588e7a43f" x="202.435526" y="70.934354" style="fill: #1f77b4; stroke: #1f77b4"/>
     <use xlink:href="#m1588e7a43f" x="288.435361" y="110.437057" style="fill: #1f77b4; stroke: #1f77b4"/>
     <use xlink:href="#m1588e7a43f" x="237.455485" y="109.074894" style="fill: #1f77b4; stroke: #1f77b4"/>
     <use xlink:href="#m1588e7a43f" x="276.14967" y="70.934354" style="fill: #1f77b4; stroke: #1f77b4"/>
     <use xlink:href="#m1588e7a43f" x="255.252514" y="149.939759" style="fill: #1f77b4; stroke: #1f77b4"/>
     <use xlink:href="#m1588e7a43f" x="194.627797" y="87.2803" style="fill: #1f77b4; stroke: #1f77b4"/>
     <use xlink:href="#m1588e7a43f" x="298.080202" y="151.301921" style="fill: #1f77b4; stroke: #1f77b4"/>
    </g>
   </g>
   <g id="matplotlib.axis_1">
    <g id="xtick_1">
     <g id="line2d_1">
      <defs>
       <path id="md974c8b9ef" d="M 0 0 
L 0 3.5 
" style="stroke: #000000; stroke-width: 0.8"/>
      </defs>
      <g>
       <use xlink:href="#md974c8b9ef" x="54.433139" y="176.57003" style="stroke: #000000; stroke-width: 0.8"/>
      </g>
     </g>
     <g id="text_1">
      <!-- 10 -->
      <g transform="translate(48.070639 191.168467) scale(0.1 -0.1)">
       <defs>
        <path id="DejaVuSans-31" d="M 794 531 
L 1825 531 
L 1825 4091 
L 703 3866 
L 703 4441 
L 1819 4666 
L 2450 4666 
L 2450 531 
L 3481 531 
L 3481 0 
L 794 0 
L 794 531 
z
" transform="scale(0.015625)"/>
        <path id="DejaVuSans-30" d="M 2034 4250 
Q 1547 4250 1301 3770 
Q 1056 3291 1056 2328 
Q 1056 1369 1301 889 
Q 1547 409 2034 409 
Q 2525 409 2770 889 
Q 3016 1369 3016 2328 
Q 3016 3291 2770 3770 
Q 2525 4250 2034 4250 
z
M 2034 4750 
Q 2819 4750 3233 4129 
Q 3647 3509 3647 2328 
Q 3647 1150 3233 529 
Q 2819 -91 2034 -91 
Q 1250 -91 836 529 
Q 422 1150 422 2328 
Q 422 3509 836 4129 
Q 1250 4750 2034 4750 
z
" transform="scale(0.015625)"/>
       </defs>
       <use xlink:href="#DejaVuSans-31"/>
       <use xlink:href="#DejaVuSans-30" x="63.623047"/>
      </g>
     </g>
    </g>
    <g id="xtick_2">
     <g id="line2d_2">
      <g>
       <use xlink:href="#md974c8b9ef" x="111.842909" y="176.57003" style="stroke: #000000; stroke-width: 0.8"/>
      </g>
     </g>
     <g id="text_2">
      <!-- 15 -->
      <g transform="translate(105.480409 191.168467) scale(0.1 -0.1)">
       <defs>
        <path id="DejaVuSans-35" d="M 691 4666 
L 3169 4666 
L 3169 4134 
L 1269 4134 
L 1269 2991 
Q 1406 3038 1543 3061 
Q 1681 3084 1819 3084 
Q 2600 3084 3056 2656 
Q 3513 2228 3513 1497 
Q 3513 744 3044 326 
Q 2575 -91 1722 -91 
Q 1428 -91 1123 -41 
Q 819 9 494 109 
L 494 744 
Q 775 591 1075 516 
Q 1375 441 1709 441 
Q 2250 441 2565 725 
Q 2881 1009 2881 1497 
Q 2881 1984 2565 2268 
Q 2250 2553 1709 2553 
Q 1456 2553 1204 2497 
Q 953 2441 691 2322 
L 691 4666 
z
" transform="scale(0.015625)"/>
       </defs>
       <use xlink:href="#DejaVuSans-31"/>
       <use xlink:href="#DejaVuSans-35" x="63.623047"/>
      </g>
     </g>
    </g>
    <g id="xtick_3">
     <g id="line2d_3">
      <g>
       <use xlink:href="#md974c8b9ef" x="169.252678" y="176.57003" style="stroke: #000000; stroke-width: 0.8"/>
      </g>
     </g>
     <g id="text_3">
      <!-- 20 -->
      <g transform="translate(162.890178 191.168467) scale(0.1 -0.1)">
       <defs>
        <path id="DejaVuSans-32" d="M 1228 531 
L 3431 531 
L 3431 0 
L 469 0 
L 469 531 
Q 828 903 1448 1529 
Q 2069 2156 2228 2338 
Q 2531 2678 2651 2914 
Q 2772 3150 2772 3378 
Q 2772 3750 2511 3984 
Q 2250 4219 1831 4219 
Q 1534 4219 1204 4116 
Q 875 4013 500 3803 
L 500 4441 
Q 881 4594 1212 4672 
Q 1544 4750 1819 4750 
Q 2544 4750 2975 4387 
Q 3406 4025 3406 3419 
Q 3406 3131 3298 2873 
Q 3191 2616 2906 2266 
Q 2828 2175 2409 1742 
Q 1991 1309 1228 531 
z
" transform="scale(0.015625)"/>
       </defs>
       <use xlink:href="#DejaVuSans-32"/>
       <use xlink:href="#DejaVuSans-30" x="63.623047"/>
      </g>
     </g>
    </g>
    <g id="xtick_4">
     <g id="line2d_4">
      <g>
       <use xlink:href="#md974c8b9ef" x="226.662448" y="176.57003" style="stroke: #000000; stroke-width: 0.8"/>
      </g>
     </g>
     <g id="text_4">
      <!-- 25 -->
      <g transform="translate(220.299948 191.168467) scale(0.1 -0.1)">
       <use xlink:href="#DejaVuSans-32"/>
       <use xlink:href="#DejaVuSans-35" x="63.623047"/>
      </g>
     </g>
    </g>
    <g id="xtick_5">
     <g id="line2d_5">
      <g>
       <use xlink:href="#md974c8b9ef" x="284.072218" y="176.57003" style="stroke: #000000; stroke-width: 0.8"/>
      </g>
     </g>
     <g id="text_5">
      <!-- 30 -->
      <g transform="translate(277.709718 191.168467) scale(0.1 -0.1)">
       <defs>
        <path id="DejaVuSans-33" d="M 2597 2516 
Q 3050 2419 3304 2112 
Q 3559 1806 3559 1356 
Q 3559 666 3084 287 
Q 2609 -91 1734 -91 
Q 1441 -91 1130 -33 
Q 819 25 488 141 
L 488 750 
Q 750 597 1062 519 
Q 1375 441 1716 441 
Q 2309 441 2620 675 
Q 2931 909 2931 1356 
Q 2931 1769 2642 2001 
Q 2353 2234 1838 2234 
L 1294 2234 
L 1294 2753 
L 1863 2753 
Q 2328 2753 2575 2939 
Q 2822 3125 2822 3475 
Q 2822 3834 2567 4026 
Q 2313 4219 1838 4219 
Q 1578 4219 1281 4162 
Q 984 4106 628 3988 
L 628 4550 
Q 988 4650 1302 4700 
Q 1616 4750 1894 4750 
Q 2613 4750 3031 4423 
Q 3450 4097 3450 3541 
Q 3450 3153 3228 2886 
Q 3006 2619 2597 2516 
z
" transform="scale(0.015625)"/>
       </defs>
       <use xlink:href="#DejaVuSans-33"/>
       <use xlink:href="#DejaVuSans-30" x="63.623047"/>
      </g>
     </g>
    </g>
    <g id="text_6">
     <!-- aged -->
     <g transform="translate(167.614063 204.846592) scale(0.1 -0.1)">
      <defs>
       <path id="DejaVuSans-61" d="M 2194 1759 
Q 1497 1759 1228 1600 
Q 959 1441 959 1056 
Q 959 750 1161 570 
Q 1363 391 1709 391 
Q 2188 391 2477 730 
Q 2766 1069 2766 1631 
L 2766 1759 
L 2194 1759 
z
M 3341 1997 
L 3341 0 
L 2766 0 
L 2766 531 
Q 2569 213 2275 61 
Q 1981 -91 1556 -91 
Q 1019 -91 701 211 
Q 384 513 384 1019 
Q 384 1609 779 1909 
Q 1175 2209 1959 2209 
L 2766 2209 
L 2766 2266 
Q 2766 2663 2505 2880 
Q 2244 3097 1772 3097 
Q 1472 3097 1187 3025 
Q 903 2953 641 2809 
L 641 3341 
Q 956 3463 1253 3523 
Q 1550 3584 1831 3584 
Q 2591 3584 2966 3190 
Q 3341 2797 3341 1997 
z
" transform="scale(0.015625)"/>
       <path id="DejaVuSans-67" d="M 2906 1791 
Q 2906 2416 2648 2759 
Q 2391 3103 1925 3103 
Q 1463 3103 1205 2759 
Q 947 2416 947 1791 
Q 947 1169 1205 825 
Q 1463 481 1925 481 
Q 2391 481 2648 825 
Q 2906 1169 2906 1791 
z
M 3481 434 
Q 3481 -459 3084 -895 
Q 2688 -1331 1869 -1331 
Q 1566 -1331 1297 -1286 
Q 1028 -1241 775 -1147 
L 775 -588 
Q 1028 -725 1275 -790 
Q 1522 -856 1778 -856 
Q 2344 -856 2625 -561 
Q 2906 -266 2906 331 
L 2906 616 
Q 2728 306 2450 153 
Q 2172 0 1784 0 
Q 1141 0 747 490 
Q 353 981 353 1791 
Q 353 2603 747 3093 
Q 1141 3584 1784 3584 
Q 2172 3584 2450 3431 
Q 2728 3278 2906 2969 
L 2906 3500 
L 3481 3500 
L 3481 434 
z
" transform="scale(0.015625)"/>
       <path id="DejaVuSans-65" d="M 3597 1894 
L 3597 1613 
L 953 1613 
Q 991 1019 1311 708 
Q 1631 397 2203 397 
Q 2534 397 2845 478 
Q 3156 559 3463 722 
L 3463 178 
Q 3153 47 2828 -22 
Q 2503 -91 2169 -91 
Q 1331 -91 842 396 
Q 353 884 353 1716 
Q 353 2575 817 3079 
Q 1281 3584 2069 3584 
Q 2775 3584 3186 3129 
Q 3597 2675 3597 1894 
z
M 3022 2063 
Q 3016 2534 2758 2815 
Q 2500 3097 2075 3097 
Q 1594 3097 1305 2825 
Q 1016 2553 972 2059 
L 3022 2063 
z
" transform="scale(0.015625)"/>
       <path id="DejaVuSans-64" d="M 2906 2969 
L 2906 4863 
L 3481 4863 
L 3481 0 
L 2906 0 
L 2906 525 
Q 2725 213 2448 61 
Q 2172 -91 1784 -91 
Q 1150 -91 751 415 
Q 353 922 353 1747 
Q 353 2572 751 3078 
Q 1150 3584 1784 3584 
Q 2172 3584 2448 3432 
Q 2725 3281 2906 2969 
z
M 947 1747 
Q 947 1113 1208 752 
Q 1469 391 1925 391 
Q 2381 391 2643 752 
Q 2906 1113 2906 1747 
Q 2906 2381 2643 2742 
Q 2381 3103 1925 3103 
Q 1469 3103 1208 2742 
Q 947 2381 947 1747 
z
" transform="scale(0.015625)"/>
      </defs>
      <use xlink:href="#DejaVuSans-61"/>
      <use xlink:href="#DejaVuSans-67" x="61.279297"/>
      <use xlink:href="#DejaVuSans-65" x="124.755859"/>
      <use xlink:href="#DejaVuSans-64" x="186.279297"/>
     </g>
    </g>
   </g>
   <g id="matplotlib.axis_2">
    <g id="ytick_1">
     <g id="line2d_6">
      <defs>
       <path id="m9d5f693fa4" d="M 0 0 
L -3.5 0 
" style="stroke: #000000; stroke-width: 0.8"/>
      </defs>
      <g>
       <use xlink:href="#m9d5f693fa4" x="40.603125" y="174.458678" style="stroke: #000000; stroke-width: 0.8"/>
      </g>
     </g>
     <g id="text_7">
      <!-- 18 -->
      <g transform="translate(20.878125 178.257897) scale(0.1 -0.1)">
       <defs>
        <path id="DejaVuSans-38" d="M 2034 2216 
Q 1584 2216 1326 1975 
Q 1069 1734 1069 1313 
Q 1069 891 1326 650 
Q 1584 409 2034 409 
Q 2484 409 2743 651 
Q 3003 894 3003 1313 
Q 3003 1734 2745 1975 
Q 2488 2216 2034 2216 
z
M 1403 2484 
Q 997 2584 770 2862 
Q 544 3141 544 3541 
Q 544 4100 942 4425 
Q 1341 4750 2034 4750 
Q 2731 4750 3128 4425 
Q 3525 4100 3525 3541 
Q 3525 3141 3298 2862 
Q 3072 2584 2669 2484 
Q 3125 2378 3379 2068 
Q 3634 1759 3634 1313 
Q 3634 634 3220 271 
Q 2806 -91 2034 -91 
Q 1263 -91 848 271 
Q 434 634 434 1313 
Q 434 1759 690 2068 
Q 947 2378 1403 2484 
z
M 1172 3481 
Q 1172 3119 1398 2916 
Q 1625 2713 2034 2713 
Q 2441 2713 2670 2916 
Q 2900 3119 2900 3481 
Q 2900 3844 2670 4047 
Q 2441 4250 2034 4250 
Q 1625 4250 1398 4047 
Q 1172 3844 1172 3481 
z
" transform="scale(0.015625)"/>
       </defs>
       <use xlink:href="#DejaVuSans-31"/>
       <use xlink:href="#DejaVuSans-38" x="63.623047"/>
      </g>
     </g>
    </g>
    <g id="ytick_2">
     <g id="line2d_7">
      <g>
       <use xlink:href="#m9d5f693fa4" x="40.603125" y="147.215435" style="stroke: #000000; stroke-width: 0.8"/>
      </g>
     </g>
     <g id="text_8">
      <!-- 20 -->
      <g transform="translate(20.878125 151.014654) scale(0.1 -0.1)">
       <use xlink:href="#DejaVuSans-32"/>
       <use xlink:href="#DejaVuSans-30" x="63.623047"/>
      </g>
     </g>
    </g>
    <g id="ytick_3">
     <g id="line2d_8">
      <g>
       <use xlink:href="#m9d5f693fa4" x="40.603125" y="119.972192" style="stroke: #000000; stroke-width: 0.8"/>
      </g>
     </g>
     <g id="text_9">
      <!-- 22 -->
      <g transform="translate(20.878125 123.77141) scale(0.1 -0.1)">
       <use xlink:href="#DejaVuSans-32"/>
       <use xlink:href="#DejaVuSans-32" x="63.623047"/>
      </g>
     </g>
    </g>
    <g id="ytick_4">
     <g id="line2d_9">
      <g>
       <use xlink:href="#m9d5f693fa4" x="40.603125" y="92.728948" style="stroke: #000000; stroke-width: 0.8"/>
      </g>
     </g>
     <g id="text_10">
      <!-- 24 -->
      <g transform="translate(20.878125 96.528167) scale(0.1 -0.1)">
       <defs>
        <path id="DejaVuSans-34" d="M 2419 4116 
L 825 1625 
L 2419 1625 
L 2419 4116 
z
M 2253 4666 
L 3047 4666 
L 3047 1625 
L 3713 1625 
L 3713 1100 
L 3047 1100 
L 3047 0 
L 2419 0 
L 2419 1100 
L 313 1100 
L 313 1709 
L 2253 4666 
z
" transform="scale(0.015625)"/>
       </defs>
       <use xlink:href="#DejaVuSans-32"/>
       <use xlink:href="#DejaVuSans-34" x="63.623047"/>
      </g>
     </g>
    </g>
    <g id="ytick_5">
     <g id="line2d_10">
      <g>
       <use xlink:href="#m9d5f693fa4" x="40.603125" y="65.485705" style="stroke: #000000; stroke-width: 0.8"/>
      </g>
     </g>
     <g id="text_11">
      <!-- 26 -->
      <g transform="translate(20.878125 69.284924) scale(0.1 -0.1)">
       <defs>
        <path id="DejaVuSans-36" d="M 2113 2584 
Q 1688 2584 1439 2293 
Q 1191 2003 1191 1497 
Q 1191 994 1439 701 
Q 1688 409 2113 409 
Q 2538 409 2786 701 
Q 3034 994 3034 1497 
Q 3034 2003 2786 2293 
Q 2538 2584 2113 2584 
z
M 3366 4563 
L 3366 3988 
Q 3128 4100 2886 4159 
Q 2644 4219 2406 4219 
Q 1781 4219 1451 3797 
Q 1122 3375 1075 2522 
Q 1259 2794 1537 2939 
Q 1816 3084 2150 3084 
Q 2853 3084 3261 2657 
Q 3669 2231 3669 1497 
Q 3669 778 3244 343 
Q 2819 -91 2113 -91 
Q 1303 -91 875 529 
Q 447 1150 447 2328 
Q 447 3434 972 4092 
Q 1497 4750 2381 4750 
Q 2619 4750 2861 4703 
Q 3103 4656 3366 4563 
z
" transform="scale(0.015625)"/>
       </defs>
       <use xlink:href="#DejaVuSans-32"/>
       <use xlink:href="#DejaVuSans-36" x="63.623047"/>
      </g>
     </g>
    </g>
    <g id="ytick_6">
     <g id="line2d_11">
      <g>
       <use xlink:href="#m9d5f693fa4" x="40.603125" y="38.242462" style="stroke: #000000; stroke-width: 0.8"/>
      </g>
     </g>
     <g id="text_12">
      <!-- 28 -->
      <g transform="translate(20.878125 42.041681) scale(0.1 -0.1)">
       <use xlink:href="#DejaVuSans-32"/>
       <use xlink:href="#DejaVuSans-38" x="63.623047"/>
      </g>
     </g>
    </g>
    <g id="ytick_7">
     <g id="line2d_12">
      <g>
       <use xlink:href="#m9d5f693fa4" x="40.603125" y="10.999219" style="stroke: #000000; stroke-width: 0.8"/>
      </g>
     </g>
     <g id="text_13">
      <!-- 30 -->
      <g transform="translate(20.878125 14.798437) scale(0.1 -0.1)">
       <use xlink:href="#DejaVuSans-33"/>
       <use xlink:href="#DejaVuSans-30" x="63.623047"/>
      </g>
     </g>
    </g>
    <g id="text_14">
     <!-- smoke -->
     <g transform="translate(14.798438 109.73503) rotate(-90) scale(0.1 -0.1)">
      <defs>
       <path id="DejaVuSans-73" d="M 2834 3397 
L 2834 2853 
Q 2591 2978 2328 3040 
Q 2066 3103 1784 3103 
Q 1356 3103 1142 2972 
Q 928 2841 928 2578 
Q 928 2378 1081 2264 
Q 1234 2150 1697 2047 
L 1894 2003 
Q 2506 1872 2764 1633 
Q 3022 1394 3022 966 
Q 3022 478 2636 193 
Q 2250 -91 1575 -91 
Q 1294 -91 989 -36 
Q 684 19 347 128 
L 347 722 
Q 666 556 975 473 
Q 1284 391 1588 391 
Q 1994 391 2212 530 
Q 2431 669 2431 922 
Q 2431 1156 2273 1281 
Q 2116 1406 1581 1522 
L 1381 1569 
Q 847 1681 609 1914 
Q 372 2147 372 2553 
Q 372 3047 722 3315 
Q 1072 3584 1716 3584 
Q 2034 3584 2315 3537 
Q 2597 3491 2834 3397 
z
" transform="scale(0.015625)"/>
       <path id="DejaVuSans-6d" d="M 3328 2828 
Q 3544 3216 3844 3400 
Q 4144 3584 4550 3584 
Q 5097 3584 5394 3201 
Q 5691 2819 5691 2113 
L 5691 0 
L 5113 0 
L 5113 2094 
Q 5113 2597 4934 2840 
Q 4756 3084 4391 3084 
Q 3944 3084 3684 2787 
Q 3425 2491 3425 1978 
L 3425 0 
L 2847 0 
L 2847 2094 
Q 2847 2600 2669 2842 
Q 2491 3084 2119 3084 
Q 1678 3084 1418 2786 
Q 1159 2488 1159 1978 
L 1159 0 
L 581 0 
L 581 3500 
L 1159 3500 
L 1159 2956 
Q 1356 3278 1631 3431 
Q 1906 3584 2284 3584 
Q 2666 3584 2933 3390 
Q 3200 3197 3328 2828 
z
" transform="scale(0.015625)"/>
       <path id="DejaVuSans-6f" d="M 1959 3097 
Q 1497 3097 1228 2736 
Q 959 2375 959 1747 
Q 959 1119 1226 758 
Q 1494 397 1959 397 
Q 2419 397 2687 759 
Q 2956 1122 2956 1747 
Q 2956 2369 2687 2733 
Q 2419 3097 1959 3097 
z
M 1959 3584 
Q 2709 3584 3137 3096 
Q 3566 2609 3566 1747 
Q 3566 888 3137 398 
Q 2709 -91 1959 -91 
Q 1206 -91 779 398 
Q 353 888 353 1747 
Q 353 2609 779 3096 
Q 1206 3584 1959 3584 
z
" transform="scale(0.015625)"/>
       <path id="DejaVuSans-6b" d="M 581 4863 
L 1159 4863 
L 1159 1991 
L 2875 3500 
L 3609 3500 
L 1753 1863 
L 3688 0 
L 2938 0 
L 1159 1709 
L 1159 0 
L 581 0 
L 581 4863 
z
" transform="scale(0.015625)"/>
      </defs>
      <use xlink:href="#DejaVuSans-73"/>
      <use xlink:href="#DejaVuSans-6d" x="52.099609"/>
      <use xlink:href="#DejaVuSans-6f" x="149.511719"/>
      <use xlink:href="#DejaVuSans-6b" x="210.693359"/>
      <use xlink:href="#DejaVuSans-65" x="264.978516"/>
     </g>
    </g>
   </g>
   <g id="line2d_13">
    <path d="M 40.603125 50.949608 
L 319.603125 126.600561 
" clip-path="url(#p8a920ad1d1)" style="fill: none; stroke: #1f77b4; stroke-width: 1.5; stroke-linecap: square"/>
   </g>
   <g id="patch_3">
    <path d="M 40.603125 176.57003 
L 40.603125 10.25003 
" style="fill: none; stroke: #000000; stroke-width: 0.8; stroke-linejoin: miter; stroke-linecap: square"/>
   </g>
   <g id="patch_4">
    <path d="M 319.603125 176.57003 
L 319.603125 10.25003 
" style="fill: none; stroke: #000000; stroke-width: 0.8; stroke-linejoin: miter; stroke-linecap: square"/>
   </g>
   <g id="patch_5">
    <path d="M 40.603125 176.57003 
L 319.603125 176.57003 
" style="fill: none; stroke: #000000; stroke-width: 0.8; stroke-linejoin: miter; stroke-linecap: square"/>
   </g>
   <g id="patch_6">
    <path d="M 40.603125 10.25003 
L 319.603125 10.25003 
" style="fill: none; stroke: #000000; stroke-width: 0.8; stroke-linejoin: miter; stroke-linecap: square"/>
   </g>
  </g>
 </g>
 <defs>
  <clipPath id="p8a920ad1d1">
   <rect x="40.603125" y="10.25003" width="279" height="166.32"/>
  </clipPath>
 </defs>
</svg>
