<?xml version="1.0" encoding="utf-8" standalone="no"?>
<!DOCTYPE svg PUBLIC "-//W3C//DTD SVG 1.1//EN"
  "http://www.w3.org/Graphics/SVG/1.1/DTD/svg11.dtd">
<svg xmlns:xlink="http://www.w3.org/1999/xlink" width="365.1058pt" height="211.07625pt" viewBox="0 0 365.1058 211.07625" xmlns="http://www.w3.org/2000/svg" version="1.1">
 <metadata>
  <rdf:RDF xmlns:dc="http://purl.org/dc/elements/1.1/" xmlns:cc="http://creativecommons.org/ns#" xmlns:rdf="http://www.w3.org/1999/02/22-rdf-syntax-ns#">
   <cc:Work>
    <dc:type rdf:resource="http://purl.org/dc/dcmitype/StillImage"/>
    <dc:date>2026-02-11T00:16:29.819539</dc:date>
    <dc:format>image/svg+xml</dc:format>
    <dc:creator>
     <cc:Agent>
      <dc:title>Matplotlib v3.9.1.post1, https://matplotlib.org/</dc:title>
     </cc:Agent>
    </dc:creator>
   </cc:Work>
  </rdf:RDF>
 </metadata>
 <defs>
  <style type="text/css">*{stroke-linejoin: round; stroke-linecap: butt}</style>
 </defs>
 <g id="figure_1">
  <g id="patch_1">
   <path d="M 0 211.07625 
L 365.1058 211.07625 
L 365.1058 0 
L 0 0 
z
" style="fill: #ffffff"/>
  </g>
  <g id="axes_1">
   <g id="patch_2">
    <path d="M 66.053125 173.52 
L 345.053125 173.52 
L 345.053125 7.2 
L 66.053125 7.2 
z
" style="fill: #ffffff"/>
   </g>
   <g id="PathCollection_1">
    <defs>
     <path id="m5c95c122b3" d="M 0 2.236068 
C 0.593012 2.236068 1.161816 2.000462 1.581139 1.581139 
C 2.000462 1.161816 2.236068 0.593012 2.236068 0 
C 2.236068 -0.593012 2.000462 -1.161816 1.581139 -1.581139 
C 1.161816 -2.000462 0.593012 -2.236068 0 -2.236068 
C -0.593012 -2.236068 -1.161816 -2.000462 -1.581139 -1.581139 
C -2.000462 -1.161816 -2.236068 -0.593012 -2.236068 0 
C -2.236068 0.593012 -2.000462 1.161816 -1.581139 1.581139 
C -1.161816 2.000462 -0.593012 2.236068 0 2.236068 
z
" style="stroke: #1f77b4"/>
    </defs>
    <g clip-path="url(#p3b250c1358)">
     <use xlink:href="#m5c95c122b3" x="79.090329" y="164.297352" style="fill: #1f77b4; stroke: #1f77b4"/>
     <use xlink:href="#m5c95c122b3" x="79.252347" y="165.108679" style="fill: #1f77b4; stroke: #1f77b4"/>
     <use xlink:href="#m5c95c122b3" x="78.734943" y="164.695397" style="fill: #1f77b4; stroke: #1f77b4"/>
     <use xlink:href="#m5c95c122b3" x="80.492042" y="164.931558" style="fill: #1f77b4; stroke: #1f77b4"/>
     <use xlink:href="#m5c95c122b3" x="79.883331" y="165.573382" style="fill: #1f77b4; stroke: #1f77b4"/>
     <use xlink:href="#m5c95c122b3" x="79.715516" y="165.96" style="fill: #1f77b4; stroke: #1f77b4"/>
     <use xlink:href="#m5c95c122b3" x="81.085573" y="165.706699" style="fill: #1f77b4; stroke: #1f77b4"/>
     <use xlink:href="#m5c95c122b3" x="81.183516" y="164.518277" style="fill: #1f77b4; stroke: #1f77b4"/>
     <use xlink:href="#m5c95c122b3" x="80.883737" y="165.390548" style="fill: #1f77b4; stroke: #1f77b4"/>
     <use xlink:href="#m5c95c122b3" x="81.047128" y="163.621247" style="fill: #1f77b4; stroke: #1f77b4"/>
     <use xlink:href="#m5c95c122b3" x="82.705826" y="163.329855" style="fill: #1f77b4; stroke: #1f77b4"/>
     <use xlink:href="#m5c95c122b3" x="83.626291" y="162.962282" style="fill: #1f77b4; stroke: #1f77b4"/>
     <use xlink:href="#m5c95c122b3" x="83.487081" y="162.758499" style="fill: #1f77b4; stroke: #1f77b4"/>
     <use xlink:href="#m5c95c122b3" x="83.758789" y="161.949077" style="fill: #1f77b4; stroke: #1f77b4"/>
     <use xlink:href="#m5c95c122b3" x="84.213415" y="161.427238" style="fill: #1f77b4; stroke: #1f77b4"/>
     <use xlink:href="#m5c95c122b3" x="84.88498" y="161.958599" style="fill: #1f77b4; stroke: #1f77b4"/>
     <use xlink:href="#m5c95c122b3" x="86.950782" y="160.46355" style="fill: #1f77b4; stroke: #1f77b4"/>
     <use xlink:href="#m5c95c122b3" x="87.640654" y="161.89575" style="fill: #1f77b4; stroke: #1f77b4"/>
     <use xlink:href="#m5c95c122b3" x="86.061592" y="162.398544" style="fill: #1f77b4; stroke: #1f77b4"/>
     <use xlink:href="#m5c95c122b3" x="86.83682" y="162.251896" style="fill: #1f77b4; stroke: #1f77b4"/>
     <use xlink:href="#m5c95c122b3" x="89.045875" y="161.194886" style="fill: #1f77b4; stroke: #1f77b4"/>
     <use xlink:href="#m5c95c122b3" x="90.264365" y="160.033128" style="fill: #1f77b4; stroke: #1f77b4"/>
     <use xlink:href="#m5c95c122b3" x="91.179719" y="159.252274" style="fill: #1f77b4; stroke: #1f77b4"/>
     <use xlink:href="#m5c95c122b3" x="92.503474" y="158.284776" style="fill: #1f77b4; stroke: #1f77b4"/>
     <use xlink:href="#m5c95c122b3" x="93.136289" y="157.863877" style="fill: #1f77b4; stroke: #1f77b4"/>
     <use xlink:href="#m5c95c122b3" x="93.459866" y="157.555345" style="fill: #1f77b4; stroke: #1f77b4"/>
     <use xlink:href="#m5c95c122b3" x="93.427753" y="157.608671" style="fill: #1f77b4; stroke: #1f77b4"/>
     <use xlink:href="#m5c95c122b3" x="93.957514" y="157.018269" style="fill: #1f77b4; stroke: #1f77b4"/>
     <use xlink:href="#m5c95c122b3" x="92.482649" y="157.210626" style="fill: #1f77b4; stroke: #1f77b4"/>
     <use xlink:href="#m5c95c122b3" x="92.650541" y="156.477385" style="fill: #1f77b4; stroke: #1f77b4"/>
     <use xlink:href="#m5c95c122b3" x="93.547283" y="156.342164" style="fill: #1f77b4; stroke: #1f77b4"/>
     <use xlink:href="#m5c95c122b3" x="94.332123" y="155.113747" style="fill: #1f77b4; stroke: #1f77b4"/>
     <use xlink:href="#m5c95c122b3" x="96.158178" y="155.269918" style="fill: #1f77b4; stroke: #1f77b4"/>
     <use xlink:href="#m5c95c122b3" x="97.614202" y="153.706306" style="fill: #1f77b4; stroke: #1f77b4"/>
     <use xlink:href="#m5c95c122b3" x="98.509647" y="152.615014" style="fill: #1f77b4; stroke: #1f77b4"/>
     <use xlink:href="#m5c95c122b3" x="100.146453" y="151.586573" style="fill: #1f77b4; stroke: #1f77b4"/>
     <use xlink:href="#m5c95c122b3" x="102.066638" y="151.156151" style="fill: #1f77b4; stroke: #1f77b4"/>
     <use xlink:href="#m5c95c122b3" x="103.50916" y="150.5029" style="fill: #1f77b4; stroke: #1f77b4"/>
     <use xlink:href="#m5c95c122b3" x="103.935639" y="149.880121" style="fill: #1f77b4; stroke: #1f77b4"/>
     <use xlink:href="#m5c95c122b3" x="104.888141" y="149.952493" style="fill: #1f77b4; stroke: #1f77b4"/>
     <use xlink:href="#m5c95c122b3" x="104.730472" y="149.417322" style="fill: #1f77b4; stroke: #1f77b4"/>
     <use xlink:href="#m5c95c122b3" x="104.845882" y="149.002136" style="fill: #1f77b4; stroke: #1f77b4"/>
     <use xlink:href="#m5c95c122b3" x="106.709468" y="148.379358" style="fill: #1f77b4; stroke: #1f77b4"/>
     <use xlink:href="#m5c95c122b3" x="107.089797" y="148.741217" style="fill: #1f77b4; stroke: #1f77b4"/>
     <use xlink:href="#m5c95c122b3" x="107.521768" y="148.207951" style="fill: #1f77b4; stroke: #1f77b4"/>
     <use xlink:href="#m5c95c122b3" x="108.998692" y="148.112725" style="fill: #1f77b4; stroke: #1f77b4"/>
     <use xlink:href="#m5c95c122b3" x="109.270324" y="147.034765" style="fill: #1f77b4; stroke: #1f77b4"/>
     <use xlink:href="#m5c95c122b3" x="110.235565" y="146.012037" style="fill: #1f77b4; stroke: #1f77b4"/>
     <use xlink:href="#m5c95c122b3" x="110.610784" y="145.471153" style="fill: #1f77b4; stroke: #1f77b4"/>
     <use xlink:href="#m5c95c122b3" x="111.930191" y="145.172143" style="fill: #1f77b4; stroke: #1f77b4"/>
     <use xlink:href="#m5c95c122b3" x="111.634531" y="144.612213" style="fill: #1f77b4; stroke: #1f77b4"/>
     <use xlink:href="#m5c95c122b3" x="112.2035" y="144.277017" style="fill: #1f77b4; stroke: #1f77b4"/>
     <use xlink:href="#m5c95c122b3" x="113.714674" y="143.983721" style="fill: #1f77b4; stroke: #1f77b4"/>
     <use xlink:href="#m5c95c122b3" x="113.522068" y="143.515208" style="fill: #1f77b4; stroke: #1f77b4"/>
     <use xlink:href="#m5c95c122b3" x="115.052617" y="142.907666" style="fill: #1f77b4; stroke: #1f77b4"/>
     <use xlink:href="#m5c95c122b3" x="114.983203" y="142.437249" style="fill: #1f77b4; stroke: #1f77b4"/>
     <use xlink:href="#m5c95c122b3" x="113.126559" y="143.924681" style="fill: #1f77b4; stroke: #1f77b4"/>
     <use xlink:href="#m5c95c122b3" x="114.424379" y="142.97242" style="fill: #1f77b4; stroke: #1f77b4"/>
     <use xlink:href="#m5c95c122b3" x="116.412071" y="141.89446" style="fill: #1f77b4; stroke: #1f77b4"/>
     <use xlink:href="#m5c95c122b3" x="117.610422" y="141.740194" style="fill: #1f77b4; stroke: #1f77b4"/>
     <use xlink:href="#m5c95c122b3" x="120.610572" y="140.599385" style="fill: #1f77b4; stroke: #1f77b4"/>
     <use xlink:href="#m5c95c122b3" x="120.955203" y="140.233717" style="fill: #1f77b4; stroke: #1f77b4"/>
     <use xlink:href="#m5c95c122b3" x="121.901298" y="140.319421" style="fill: #1f77b4; stroke: #1f77b4"/>
     <use xlink:href="#m5c95c122b3" x="122.873023" y="139.209084" style="fill: #1f77b4; stroke: #1f77b4"/>
     <use xlink:href="#m5c95c122b3" x="123.333446" y="138.94626" style="fill: #1f77b4; stroke: #1f77b4"/>
     <use xlink:href="#m5c95c122b3" x="125.48941" y="138.064467" style="fill: #1f77b4; stroke: #1f77b4"/>
     <use xlink:href="#m5c95c122b3" x="125.352946" y="137.643567" style="fill: #1f77b4; stroke: #1f77b4"/>
     <use xlink:href="#m5c95c122b3" x="127.088992" y="136.578939" style="fill: #1f77b4; stroke: #1f77b4"/>
     <use xlink:href="#m5c95c122b3" x="128.60131" y="135.537166" style="fill: #1f77b4; stroke: #1f77b4"/>
     <use xlink:href="#m5c95c122b3" x="128.859287" y="135.537166" style="fill: #1f77b4; stroke: #1f77b4"/>
     <use xlink:href="#m5c95c122b3" x="130.595714" y="134.242091" style="fill: #1f77b4; stroke: #1f77b4"/>
     <use xlink:href="#m5c95c122b3" x="131.952117" y="133.725965" style="fill: #1f77b4; stroke: #1f77b4"/>
     <use xlink:href="#m5c95c122b3" x="135.259979" y="133.068905" style="fill: #1f77b4; stroke: #1f77b4"/>
     <use xlink:href="#m5c95c122b3" x="135.723224" y="131.722408" style="fill: #1f77b4; stroke: #1f77b4"/>
     <use xlink:href="#m5c95c122b3" x="138.217793" y="130.899655" style="fill: #1f77b4; stroke: #1f77b4"/>
     <use xlink:href="#m5c95c122b3" x="140.278103" y="129.596962" style="fill: #1f77b4; stroke: #1f77b4"/>
     <use xlink:href="#m5c95c122b3" x="142.407828" y="128.957042" style="fill: #1f77b4; stroke: #1f77b4"/>
     <use xlink:href="#m5c95c122b3" x="143.064671" y="128.858007" style="fill: #1f77b4; stroke: #1f77b4"/>
     <use xlink:href="#m5c95c122b3" x="144.080638" y="127.461993" style="fill: #1f77b4; stroke: #1f77b4"/>
     <use xlink:href="#m5c95c122b3" x="145.15206" y="127.31344" style="fill: #1f77b4; stroke: #1f77b4"/>
     <use xlink:href="#m5c95c122b3" x="145.657564" y="126.839214" style="fill: #1f77b4; stroke: #1f77b4"/>
     <use xlink:href="#m5c95c122b3" x="148.473652" y="125.538425" style="fill: #1f77b4; stroke: #1f77b4"/>
     <use xlink:href="#m5c95c122b3" x="148.26129" y="125.559375" style="fill: #1f77b4; stroke: #1f77b4"/>
     <use xlink:href="#m5c95c122b3" x="149.371081" y="124.496652" style="fill: #1f77b4; stroke: #1f77b4"/>
     <use xlink:href="#m5c95c122b3" x="148.461523" y="123.772934" style="fill: #1f77b4; stroke: #1f77b4"/>
     <use xlink:href="#m5c95c122b3" x="152.180074" y="123.540582" style="fill: #1f77b4; stroke: #1f77b4"/>
     <use xlink:href="#m5c95c122b3" x="153.394215" y="122.195989" style="fill: #1f77b4; stroke: #1f77b4"/>
     <use xlink:href="#m5c95c122b3" x="154.573192" y="121.083749" style="fill: #1f77b4; stroke: #1f77b4"/>
     <use xlink:href="#m5c95c122b3" x="156.352259" y="119.485855" style="fill: #1f77b4; stroke: #1f77b4"/>
     <use xlink:href="#m5c95c122b3" x="155.35704" y="119.832478" style="fill: #1f77b4; stroke: #1f77b4"/>
     <use xlink:href="#m5c95c122b3" x="158.145743" y="119.057337" style="fill: #1f77b4; stroke: #1f77b4"/>
     <use xlink:href="#m5c95c122b3" x="159.297945" y="118.061272" style="fill: #1f77b4; stroke: #1f77b4"/>
     <use xlink:href="#m5c95c122b3" x="160.193925" y="118.853553" style="fill: #1f77b4; stroke: #1f77b4"/>
     <use xlink:href="#m5c95c122b3" x="157.619414" y="118.434559" style="fill: #1f77b4; stroke: #1f77b4"/>
     <use xlink:href="#m5c95c122b3" x="161.609596" y="117.038544" style="fill: #1f77b4; stroke: #1f77b4"/>
     <use xlink:href="#m5c95c122b3" x="163.02092" y="116.318635" style="fill: #1f77b4; stroke: #1f77b4"/>
     <use xlink:href="#m5c95c122b3" x="166.544348" y="116.482423" style="fill: #1f77b4; stroke: #1f77b4"/>
     <use xlink:href="#m5c95c122b3" x="167.684498" y="113.896083" style="fill: #1f77b4; stroke: #1f77b4"/>
     <use xlink:href="#m5c95c122b3" x="171.750425" y="112.275334" style="fill: #1f77b4; stroke: #1f77b4"/>
     <use xlink:href="#m5c95c122b3" x="173.704402" y="110.448898" style="fill: #1f77b4; stroke: #1f77b4"/>
     <use xlink:href="#m5c95c122b3" x="178.097797" y="109.837546" style="fill: #1f77b4; stroke: #1f77b4"/>
     <use xlink:href="#m5c95c122b3" x="181.152106" y="107.873984" style="fill: #1f77b4; stroke: #1f77b4"/>
     <use xlink:href="#m5c95c122b3" x="183.527526" y="107.016949" style="fill: #1f77b4; stroke: #1f77b4"/>
     <use xlink:href="#m5c95c122b3" x="189.496247" y="104.862935" style="fill: #1f77b4; stroke: #1f77b4"/>
     <use xlink:href="#m5c95c122b3" x="191.726355" y="102.474664" style="fill: #1f77b4; stroke: #1f77b4"/>
     <use xlink:href="#m5c95c122b3" x="196.458737" y="101.79475" style="fill: #1f77b4; stroke: #1f77b4"/>
     <use xlink:href="#m5c95c122b3" x="199.518766" y="101.099599" style="fill: #1f77b4; stroke: #1f77b4"/>
     <use xlink:href="#m5c95c122b3" x="204.102861" y="99.035098" style="fill: #1f77b4; stroke: #1f77b4"/>
     <use xlink:href="#m5c95c122b3" x="208.242398" y="96.433521" style="fill: #1f77b4; stroke: #1f77b4"/>
     <use xlink:href="#m5c95c122b3" x="205.160781" y="95.692662" style="fill: #1f77b4; stroke: #1f77b4"/>
     <use xlink:href="#m5c95c122b3" x="211.267262" y="95.094642" style="fill: #1f77b4; stroke: #1f77b4"/>
     <use xlink:href="#m5c95c122b3" x="211.450333" y="96.248782" style="fill: #1f77b4; stroke: #1f77b4"/>
     <use xlink:href="#m5c95c122b3" x="215.803377" y="94.12524" style="fill: #1f77b4; stroke: #1f77b4"/>
     <use xlink:href="#m5c95c122b3" x="217.965215" y="92.679708" style="fill: #1f77b4; stroke: #1f77b4"/>
     <use xlink:href="#m5c95c122b3" x="222.121534" y="90.420945" style="fill: #1f77b4; stroke: #1f77b4"/>
     <use xlink:href="#m5c95c122b3" x="224.507557" y="88.188845" style="fill: #1f77b4; stroke: #1f77b4"/>
     <use xlink:href="#m5c95c122b3" x="226.674735" y="88.219317" style="fill: #1f77b4; stroke: #1f77b4"/>
     <use xlink:href="#m5c95c122b3" x="231.604376" y="84.947349" style="fill: #1f77b4; stroke: #1f77b4"/>
     <use xlink:href="#m5c95c122b3" x="228.584088" y="84.292193" style="fill: #1f77b4; stroke: #1f77b4"/>
     <use xlink:href="#m5c95c122b3" x="234.489572" y="81.795365" style="fill: #1f77b4; stroke: #1f77b4"/>
     <use xlink:href="#m5c95c122b3" x="232.869929" y="81.966772" style="fill: #1f77b4; stroke: #1f77b4"/>
     <use xlink:href="#m5c95c122b3" x="235.304543" y="82.635259" style="fill: #1f77b4; stroke: #1f77b4"/>
     <use xlink:href="#m5c95c122b3" x="235.348556" y="80.947852" style="fill: #1f77b4; stroke: #1f77b4"/>
     <use xlink:href="#m5c95c122b3" x="238.37426" y="80.210802" style="fill: #1f77b4; stroke: #1f77b4"/>
     <use xlink:href="#m5c95c122b3" x="243.4991" y="79.275682" style="fill: #1f77b4; stroke: #1f77b4"/>
     <use xlink:href="#m5c95c122b3" x="244.966184" y="77.862527" style="fill: #1f77b4; stroke: #1f77b4"/>
     <use xlink:href="#m5c95c122b3" x="244.899363" y="76.950261" style="fill: #1f77b4; stroke: #1f77b4"/>
     <use xlink:href="#m5c95c122b3" x="247.86061" y="76.677914" style="fill: #1f77b4; stroke: #1f77b4"/>
     <use xlink:href="#m5c95c122b3" x="248.275647" y="74.758156" style="fill: #1f77b4; stroke: #1f77b4"/>
     <use xlink:href="#m5c95c122b3" x="255.59032" y="74.765774" style="fill: #1f77b4; stroke: #1f77b4"/>
     <use xlink:href="#m5c95c122b3" x="252.625945" y="74.190608" style="fill: #1f77b4; stroke: #1f77b4"/>
     <use xlink:href="#m5c95c122b3" x="258.043088" y="73.906835" style="fill: #1f77b4; stroke: #1f77b4"/>
     <use xlink:href="#m5c95c122b3" x="258.378489" y="73.068845" style="fill: #1f77b4; stroke: #1f77b4"/>
     <use xlink:href="#m5c95c122b3" x="260.885568" y="73.280247" style="fill: #1f77b4; stroke: #1f77b4"/>
     <use xlink:href="#m5c95c122b3" x="259.968765" y="71.120519" style="fill: #1f77b4; stroke: #1f77b4"/>
     <use xlink:href="#m5c95c122b3" x="261.583373" y="69.907338" style="fill: #1f77b4; stroke: #1f77b4"/>
     <use xlink:href="#m5c95c122b3" x="267.835319" y="69.132198" style="fill: #1f77b4; stroke: #1f77b4"/>
     <use xlink:href="#m5c95c122b3" x="271.818484" y="68.595123" style="fill: #1f77b4; stroke: #1f77b4"/>
     <use xlink:href="#m5c95c122b3" x="271.93092" y="69.210283" style="fill: #1f77b4; stroke: #1f77b4"/>
     <use xlink:href="#m5c95c122b3" x="273.436525" y="69.421685" style="fill: #1f77b4; stroke: #1f77b4"/>
     <use xlink:href="#m5c95c122b3" x="277.33357" y="72.017549" style="fill: #1f77b4; stroke: #1f77b4"/>
     <use xlink:href="#m5c95c122b3" x="273.796335" y="72.137534" style="fill: #1f77b4; stroke: #1f77b4"/>
     <use xlink:href="#m5c95c122b3" x="271.581712" y="72.390835" style="fill: #1f77b4; stroke: #1f77b4"/>
     <use xlink:href="#m5c95c122b3" x="266.141609" y="72.78888" style="fill: #1f77b4; stroke: #1f77b4"/>
     <use xlink:href="#m5c95c122b3" x="264.399842" y="70.640579" style="fill: #1f77b4; stroke: #1f77b4"/>
     <use xlink:href="#m5c95c122b3" x="264.606255" y="69.164575" style="fill: #1f77b4; stroke: #1f77b4"/>
     <use xlink:href="#m5c95c122b3" x="275.990058" y="67.092455" style="fill: #1f77b4; stroke: #1f77b4"/>
     <use xlink:href="#m5c95c122b3" x="271.834121" y="66.081154" style="fill: #1f77b4; stroke: #1f77b4"/>
     <use xlink:href="#m5c95c122b3" x="271.760359" y="64.294712" style="fill: #1f77b4; stroke: #1f77b4"/>
     <use xlink:href="#m5c95c122b3" x="280.951202" y="63.014873" style="fill: #1f77b4; stroke: #1f77b4"/>
     <use xlink:href="#m5c95c122b3" x="281.905002" y="62.597783" style="fill: #1f77b4; stroke: #1f77b4"/>
     <use xlink:href="#m5c95c122b3" x="286.476205" y="60.312357" style="fill: #1f77b4; stroke: #1f77b4"/>
     <use xlink:href="#m5c95c122b3" x="286.871333" y="58.925865" style="fill: #1f77b4; stroke: #1f77b4"/>
     <use xlink:href="#m5c95c122b3" x="288.355046" y="57.27274" style="fill: #1f77b4; stroke: #1f77b4"/>
     <use xlink:href="#m5c95c122b3" x="287.466542" y="54.446429" style="fill: #1f77b4; stroke: #1f77b4"/>
     <use xlink:href="#m5c95c122b3" x="289.913055" y="52.779972" style="fill: #1f77b4; stroke: #1f77b4"/>
     <use xlink:href="#m5c95c122b3" x="292.040338" y="52.378118" style="fill: #1f77b4; stroke: #1f77b4"/>
     <use xlink:href="#m5c95c122b3" x="292.069935" y="50.738325" style="fill: #1f77b4; stroke: #1f77b4"/>
     <use xlink:href="#m5c95c122b3" x="290.215808" y="48.228165" style="fill: #1f77b4; stroke: #1f77b4"/>
     <use xlink:href="#m5c95c122b3" x="292.175506" y="48.169125" style="fill: #1f77b4; stroke: #1f77b4"/>
     <use xlink:href="#m5c95c122b3" x="296.064999" y="46.929281" style="fill: #1f77b4; stroke: #1f77b4"/>
     <use xlink:href="#m5c95c122b3" x="297.764507" y="44.403885" style="fill: #1f77b4; stroke: #1f77b4"/>
     <use xlink:href="#m5c95c122b3" x="299.90102" y="42.62887" style="fill: #1f77b4; stroke: #1f77b4"/>
     <use xlink:href="#m5c95c122b3" x="301.865752" y="40.840524" style="fill: #1f77b4; stroke: #1f77b4"/>
     <use xlink:href="#m5c95c122b3" x="305.094816" y="39.714952" style="fill: #1f77b4; stroke: #1f77b4"/>
     <use xlink:href="#m5c95c122b3" x="308.50802" y="37.522847" style="fill: #1f77b4; stroke: #1f77b4"/>
     <use xlink:href="#m5c95c122b3" x="316.023613" y="36.580108" style="fill: #1f77b4; stroke: #1f77b4"/>
     <use xlink:href="#m5c95c122b3" x="319.810815" y="34.610833" style="fill: #1f77b4; stroke: #1f77b4"/>
     <use xlink:href="#m5c95c122b3" x="325.77267" y="33.30814" style="fill: #1f77b4; stroke: #1f77b4"/>
     <use xlink:href="#m5c95c122b3" x="324.02625" y="31.232211" style="fill: #1f77b4; stroke: #1f77b4"/>
     <use xlink:href="#m5c95c122b3" x="324.223738" y="32.068296" style="fill: #1f77b4; stroke: #1f77b4"/>
     <use xlink:href="#m5c95c122b3" x="327.477441" y="30.902728" style="fill: #1f77b4; stroke: #1f77b4"/>
     <use xlink:href="#m5c95c122b3" x="330.079031" y="28.504935" style="fill: #1f77b4; stroke: #1f77b4"/>
     <use xlink:href="#m5c95c122b3" x="322.678925" y="30.638" style="fill: #1f77b4; stroke: #1f77b4"/>
     <use xlink:href="#m5c95c122b3" x="327.059887" y="30.651331" style="fill: #1f77b4; stroke: #1f77b4"/>
     <use xlink:href="#m5c95c122b3" x="324.732599" y="31.178884" style="fill: #1f77b4; stroke: #1f77b4"/>
     <use xlink:href="#m5c95c122b3" x="319.753987" y="35.043159" style="fill: #1f77b4; stroke: #1f77b4"/>
     <use xlink:href="#m5c95c122b3" x="322.924545" y="32.317788" style="fill: #1f77b4; stroke: #1f77b4"/>
     <use xlink:href="#m5c95c122b3" x="321.76441" y="32.355879" style="fill: #1f77b4; stroke: #1f77b4"/>
     <use xlink:href="#m5c95c122b3" x="320.924801" y="31.390286" style="fill: #1f77b4; stroke: #1f77b4"/>
     <use xlink:href="#m5c95c122b3" x="320.956305" y="31.373145" style="fill: #1f77b4; stroke: #1f77b4"/>
     <use xlink:href="#m5c95c122b3" x="327.31611" y="31.224593" style="fill: #1f77b4; stroke: #1f77b4"/>
     <use xlink:href="#m5c95c122b3" x="327.197419" y="30.285663" style="fill: #1f77b4; stroke: #1f77b4"/>
     <use xlink:href="#m5c95c122b3" x="325.122082" y="30.180914" style="fill: #1f77b4; stroke: #1f77b4"/>
     <use xlink:href="#m5c95c122b3" x="327.454405" y="29.417201" style="fill: #1f77b4; stroke: #1f77b4"/>
     <use xlink:href="#m5c95c122b3" x="329.033925" y="28.588734" style="fill: #1f77b4; stroke: #1f77b4"/>
     <use xlink:href="#m5c95c122b3" x="325.687313" y="28.034518" style="fill: #1f77b4; stroke: #1f77b4"/>
     <use xlink:href="#m5c95c122b3" x="323.231342" y="27.046071" style="fill: #1f77b4; stroke: #1f77b4"/>
     <use xlink:href="#m5c95c122b3" x="327.221447" y="24.568288" style="fill: #1f77b4; stroke: #1f77b4"/>
     <use xlink:href="#m5c95c122b3" x="328.149922" y="23.977886" style="fill: #1f77b4; stroke: #1f77b4"/>
     <use xlink:href="#m5c95c122b3" x="328.243059" y="23.456047" style="fill: #1f77b4; stroke: #1f77b4"/>
     <use xlink:href="#m5c95c122b3" x="329.866516" y="21.934334" style="fill: #1f77b4; stroke: #1f77b4"/>
     <use xlink:href="#m5c95c122b3" x="332.371307" y="22.263817" style="fill: #1f77b4; stroke: #1f77b4"/>
     <use xlink:href="#m5c95c122b3" x="331.838952" y="21.484867" style="fill: #1f77b4; stroke: #1f77b4"/>
     <use xlink:href="#m5c95c122b3" x="329.847675" y="20.420239" style="fill: #1f77b4; stroke: #1f77b4"/>
     <use xlink:href="#m5c95c122b3" x="331.630175" y="20.408812" style="fill: #1f77b4; stroke: #1f77b4"/>
     <use xlink:href="#m5c95c122b3" x="332.244149" y="18.254798" style="fill: #1f77b4; stroke: #1f77b4"/>
     <use xlink:href="#m5c95c122b3" x="330.810933" y="18.001496" style="fill: #1f77b4; stroke: #1f77b4"/>
     <use xlink:href="#m5c95c122b3" x="329.879941" y="17.146366" style="fill: #1f77b4; stroke: #1f77b4"/>
     <use xlink:href="#m5c95c122b3" x="330.27812" y="14.76" style="fill: #1f77b4; stroke: #1f77b4"/>
    </g>
   </g>
   <g id="matplotlib.axis_1">
    <g id="xtick_1">
     <g id="line2d_1">
      <defs>
       <path id="m2d926a1f85" d="M 0 0 
L 0 3.5 
" style="stroke: #000000; stroke-width: 0.8"/>
      </defs>
      <g>
       <use xlink:href="#m2d926a1f85" x="71.839961" y="173.52" style="stroke: #000000; stroke-width: 0.8"/>
      </g>
     </g>
     <g id="text_1">
      <!-- 50000 -->
      <g transform="translate(55.933711 188.118438) scale(0.1 -0.1)">
       <defs>
        <path id="DejaVuSans-35" d="M 691 4666 
L 3169 4666 
L 3169 4134 
L 1269 4134 
L 1269 2991 
Q 1406 3038 1543 3061 
Q 1681 3084 1819 3084 
Q 2600 3084 3056 2656 
Q 3513 2228 3513 1497 
Q 3513 744 3044 326 
Q 2575 -91 1722 -91 
Q 1428 -91 1123 -41 
Q 819 9 494 109 
L 494 744 
Q 775 591 1075 516 
Q 1375 441 1709 441 
Q 2250 441 2565 725 
Q 2881 1009 2881 1497 
Q 2881 1984 2565 2268 
Q 2250 2553 1709 2553 
Q 1456 2553 1204 2497 
Q 953 2441 691 2322 
L 691 4666 
z
" transform="scale(0.015625)"/>
        <path id="DejaVuSans-30" d="M 2034 4250 
Q 1547 4250 1301 3770 
Q 1056 3291 1056 2328 
Q 1056 1369 1301 889 
Q 1547 409 2034 409 
Q 2525 409 2770 889 
Q 3016 1369 3016 2328 
Q 3016 3291 2770 3770 
Q 2525 4250 2034 4250 
z
M 2034 4750 
Q 2819 4750 3233 4129 
Q 3647 3509 3647 2328 
Q 3647 1150 3233 529 
Q 2819 -91 2034 -91 
Q 1250 -91 836 529 
Q 422 1150 422 2328 
Q 422 3509 836 4129 
Q 1250 4750 2034 4750 
z
" transform="scale(0.015625)"/>
       </defs>
       <use xlink:href="#DejaVuSans-35"/>
       <use xlink:href="#DejaVuSans-30" x="63.623047"/>
       <use xlink:href="#DejaVuSans-30" x="127.246094"/>
       <use xlink:href="#DejaVuSans-30" x="190.869141"/>
       <use xlink:href="#DejaVuSans-30" x="254.492188"/>
      </g>
     </g>
    </g>
    <g id="xtick_2">
     <g id="line2d_2">
      <g>
       <use xlink:href="#m2d926a1f85" x="109.979723" y="173.52" style="stroke: #000000; stroke-width: 0.8"/>
      </g>
     </g>
     <g id="text_2">
      <!-- 100000 -->
      <g transform="translate(90.892223 188.118438) scale(0.1 -0.1)">
       <defs>
        <path id="DejaVuSans-31" d="M 794 531 
L 1825 531 
L 1825 4091 
L 703 3866 
L 703 4441 
L 1819 4666 
L 2450 4666 
L 2450 531 
L 3481 531 
L 3481 0 
L 794 0 
L 794 531 
z
" transform="scale(0.015625)"/>
       </defs>
       <use xlink:href="#DejaVuSans-31"/>
       <use xlink:href="#DejaVuSans-30" x="63.623047"/>
       <use xlink:href="#DejaVuSans-30" x="127.246094"/>
       <use xlink:href="#DejaVuSans-30" x="190.869141"/>
       <use xlink:href="#DejaVuSans-30" x="254.492188"/>
       <use xlink:href="#DejaVuSans-30" x="318.115234"/>
      </g>
     </g>
    </g>
    <g id="xtick_3">
     <g id="line2d_3">
      <g>
       <use xlink:href="#m2d926a1f85" x="148.119486" y="173.52" style="stroke: #000000; stroke-width: 0.8"/>
      </g>
     </g>
     <g id="text_3">
      <!-- 150000 -->
      <g transform="translate(129.031986 188.118438) scale(0.1 -0.1)">
       <use xlink:href="#DejaVuSans-31"/>
       <use xlink:href="#DejaVuSans-35" x="63.623047"/>
       <use xlink:href="#DejaVuSans-30" x="127.246094"/>
       <use xlink:href="#DejaVuSans-30" x="190.869141"/>
       <use xlink:href="#DejaVuSans-30" x="254.492188"/>
       <use xlink:href="#DejaVuSans-30" x="318.115234"/>
      </g>
     </g>
    </g>
    <g id="xtick_4">
     <g id="line2d_4">
      <g>
       <use xlink:href="#m2d926a1f85" x="186.259249" y="173.52" style="stroke: #000000; stroke-width: 0.8"/>
      </g>
     </g>
     <g id="text_4">
      <!-- 200000 -->
      <g transform="translate(167.171749 188.118438) scale(0.1 -0.1)">
       <defs>
        <path id="DejaVuSans-32" d="M 1228 531 
L 3431 531 
L 3431 0 
L 469 0 
L 469 531 
Q 828 903 1448 1529 
Q 2069 2156 2228 2338 
Q 2531 2678 2651 2914 
Q 2772 3150 2772 3378 
Q 2772 3750 2511 3984 
Q 2250 4219 1831 4219 
Q 1534 4219 1204 4116 
Q 875 4013 500 3803 
L 500 4441 
Q 881 4594 1212 4672 
Q 1544 4750 1819 4750 
Q 2544 4750 2975 4387 
Q 3406 4025 3406 3419 
Q 3406 3131 3298 2873 
Q 3191 2616 2906 2266 
Q 2828 2175 2409 1742 
Q 1991 1309 1228 531 
z
" transform="scale(0.015625)"/>
       </defs>
       <use xlink:href="#DejaVuSans-32"/>
       <use xlink:href="#DejaVuSans-30" x="63.623047"/>
       <use xlink:href="#DejaVuSans-30" x="127.246094"/>
       <use xlink:href="#DejaVuSans-30" x="190.869141"/>
       <use xlink:href="#DejaVuSans-30" x="254.492188"/>
       <use xlink:href="#DejaVuSans-30" x="318.115234"/>
      </g>
     </g>
    </g>
    <g id="xtick_5">
     <g id="line2d_5">
      <g>
       <use xlink:href="#m2d926a1f85" x="224.399012" y="173.52" style="stroke: #000000; stroke-width: 0.8"/>
      </g>
     </g>
     <g id="text_5">
      <!-- 250000 -->
      <g transform="translate(205.311512 188.118438) scale(0.1 -0.1)">
       <use xlink:href="#DejaVuSans-32"/>
       <use xlink:href="#DejaVuSans-35" x="63.623047"/>
       <use xlink:href="#DejaVuSans-30" x="127.246094"/>
       <use xlink:href="#DejaVuSans-30" x="190.869141"/>
       <use xlink:href="#DejaVuSans-30" x="254.492188"/>
       <use xlink:href="#DejaVuSans-30" x="318.115234"/>
      </g>
     </g>
    </g>
    <g id="xtick_6">
     <g id="line2d_6">
      <g>
       <use xlink:href="#m2d926a1f85" x="262.538774" y="173.52" style="stroke: #000000; stroke-width: 0.8"/>
      </g>
     </g>
     <g id="text_6">
      <!-- 300000 -->
      <g transform="translate(243.451274 188.118438) scale(0.1 -0.1)">
       <defs>
        <path id="DejaVuSans-33" d="M 2597 2516 
Q 3050 2419 3304 2112 
Q 3559 1806 3559 1356 
Q 3559 666 3084 287 
Q 2609 -91 1734 -91 
Q 1441 -91 1130 -33 
Q 819 25 488 141 
L 488 750 
Q 750 597 1062 519 
Q 1375 441 1716 441 
Q 2309 441 2620 675 
Q 2931 909 2931 1356 
Q 2931 1769 2642 2001 
Q 2353 2234 1838 2234 
L 1294 2234 
L 1294 2753 
L 1863 2753 
Q 2328 2753 2575 2939 
Q 2822 3125 2822 3475 
Q 2822 3834 2567 4026 
Q 2313 4219 1838 4219 
Q 1578 4219 1281 4162 
Q 984 4106 628 3988 
L 628 4550 
Q 988 4650 1302 4700 
Q 1616 4750 1894 4750 
Q 2613 4750 3031 4423 
Q 3450 4097 3450 3541 
Q 3450 3153 3228 2886 
Q 3006 2619 2597 2516 
z
" transform="scale(0.015625)"/>
       </defs>
       <use xlink:href="#DejaVuSans-33"/>
       <use xlink:href="#DejaVuSans-30" x="63.623047"/>
       <use xlink:href="#DejaVuSans-30" x="127.246094"/>
       <use xlink:href="#DejaVuSans-30" x="190.869141"/>
       <use xlink:href="#DejaVuSans-30" x="254.492188"/>
       <use xlink:href="#DejaVuSans-30" x="318.115234"/>
      </g>
     </g>
    </g>
    <g id="xtick_7">
     <g id="line2d_7">
      <g>
       <use xlink:href="#m2d926a1f85" x="300.678537" y="173.52" style="stroke: #000000; stroke-width: 0.8"/>
      </g>
     </g>
     <g id="text_7">
      <!-- 350000 -->
      <g transform="translate(281.591037 188.118438) scale(0.1 -0.1)">
       <use xlink:href="#DejaVuSans-33"/>
       <use xlink:href="#DejaVuSans-35" x="63.623047"/>
       <use xlink:href="#DejaVuSans-30" x="127.246094"/>
       <use xlink:href="#DejaVuSans-30" x="190.869141"/>
       <use xlink:href="#DejaVuSans-30" x="254.492188"/>
       <use xlink:href="#DejaVuSans-30" x="318.115234"/>
      </g>
     </g>
    </g>
    <g id="xtick_8">
     <g id="line2d_8">
      <g>
       <use xlink:href="#m2d926a1f85" x="338.8183" y="173.52" style="stroke: #000000; stroke-width: 0.8"/>
      </g>
     </g>
     <g id="text_8">
      <!-- 400000 -->
      <g transform="translate(319.7308 188.118438) scale(0.1 -0.1)">
       <defs>
        <path id="DejaVuSans-34" d="M 2419 4116 
L 825 1625 
L 2419 1625 
L 2419 4116 
z
M 2253 4666 
L 3047 4666 
L 3047 1625 
L 3713 1625 
L 3713 1100 
L 3047 1100 
L 3047 0 
L 2419 0 
L 2419 1100 
L 313 1100 
L 313 1709 
L 2253 4666 
z
" transform="scale(0.015625)"/>
       </defs>
       <use xlink:href="#DejaVuSans-34"/>
       <use xlink:href="#DejaVuSans-30" x="63.623047"/>
       <use xlink:href="#DejaVuSans-30" x="127.246094"/>
       <use xlink:href="#DejaVuSans-30" x="190.869141"/>
       <use xlink:href="#DejaVuSans-30" x="254.492188"/>
       <use xlink:href="#DejaVuSans-30" x="318.115234"/>
      </g>
     </g>
    </g>
    <g id="text_9">
     <!-- yd -->
     <g transform="translate(199.419531 201.796563) scale(0.1 -0.1)">
      <defs>
       <path id="DejaVuSans-79" d="M 2059 -325 
Q 1816 -950 1584 -1140 
Q 1353 -1331 966 -1331 
L 506 -1331 
L 506 -850 
L 844 -850 
Q 1081 -850 1212 -737 
Q 1344 -625 1503 -206 
L 1606 56 
L 191 3500 
L 800 3500 
L 1894 763 
L 2988 3500 
L 3597 3500 
L 2059 -325 
z
" transform="scale(0.015625)"/>
       <path id="DejaVuSans-64" d="M 2906 2969 
L 2906 4863 
L 3481 4863 
L 3481 0 
L 2906 0 
L 2906 525 
Q 2725 213 2448 61 
Q 2172 -91 1784 -91 
Q 1150 -91 751 415 
Q 353 922 353 1747 
Q 353 2572 751 3078 
Q 1150 3584 1784 3584 
Q 2172 3584 2448 3432 
Q 2725 3281 2906 2969 
z
M 947 1747 
Q 947 1113 1208 752 
Q 1469 391 1925 391 
Q 2381 391 2643 752 
Q 2906 1113 2906 1747 
Q 2906 2381 2643 2742 
Q 2381 3103 1925 3103 
Q 1469 3103 1208 2742 
Q 947 2381 947 1747 
z
" transform="scale(0.015625)"/>
      </defs>
      <use xlink:href="#DejaVuSans-79"/>
      <use xlink:href="#DejaVuSans-64" x="59.179688"/>
     </g>
    </g>
   </g>
   <g id="matplotlib.axis_2">
    <g id="ytick_1">
     <g id="line2d_9">
      <defs>
       <path id="m58851d3c87" d="M 0 0 
L -3.5 0 
" style="stroke: #000000; stroke-width: 0.8"/>
      </defs>
      <g>
       <use xlink:href="#m58851d3c87" x="66.053125" y="167.710256" style="stroke: #000000; stroke-width: 0.8"/>
      </g>
     </g>
     <g id="text_10">
      <!-- 50000 -->
      <g transform="translate(27.240625 171.509474) scale(0.1 -0.1)">
       <use xlink:href="#DejaVuSans-35"/>
       <use xlink:href="#DejaVuSans-30" x="63.623047"/>
       <use xlink:href="#DejaVuSans-30" x="127.246094"/>
       <use xlink:href="#DejaVuSans-30" x="190.869141"/>
       <use xlink:href="#DejaVuSans-30" x="254.492188"/>
      </g>
     </g>
    </g>
    <g id="ytick_2">
     <g id="line2d_10">
      <g>
       <use xlink:href="#m58851d3c87" x="66.053125" y="143.903731" style="stroke: #000000; stroke-width: 0.8"/>
      </g>
     </g>
     <g id="text_11">
      <!-- 100000 -->
      <g transform="translate(20.878125 147.70295) scale(0.1 -0.1)">
       <use xlink:href="#DejaVuSans-31"/>
       <use xlink:href="#DejaVuSans-30" x="63.623047"/>
       <use xlink:href="#DejaVuSans-30" x="127.246094"/>
       <use xlink:href="#DejaVuSans-30" x="190.869141"/>
       <use xlink:href="#DejaVuSans-30" x="254.492188"/>
       <use xlink:href="#DejaVuSans-30" x="318.115234"/>
      </g>
     </g>
    </g>
    <g id="ytick_3">
     <g id="line2d_11">
      <g>
       <use xlink:href="#m58851d3c87" x="66.053125" y="120.097206" style="stroke: #000000; stroke-width: 0.8"/>
      </g>
     </g>
     <g id="text_12">
      <!-- 150000 -->
      <g transform="translate(20.878125 123.896425) scale(0.1 -0.1)">
       <use xlink:href="#DejaVuSans-31"/>
       <use xlink:href="#DejaVuSans-35" x="63.623047"/>
       <use xlink:href="#DejaVuSans-30" x="127.246094"/>
       <use xlink:href="#DejaVuSans-30" x="190.869141"/>
       <use xlink:href="#DejaVuSans-30" x="254.492188"/>
       <use xlink:href="#DejaVuSans-30" x="318.115234"/>
      </g>
     </g>
    </g>
    <g id="ytick_4">
     <g id="line2d_12">
      <g>
       <use xlink:href="#m58851d3c87" x="66.053125" y="96.290681" style="stroke: #000000; stroke-width: 0.8"/>
      </g>
     </g>
     <g id="text_13">
      <!-- 200000 -->
      <g transform="translate(20.878125 100.0899) scale(0.1 -0.1)">
       <use xlink:href="#DejaVuSans-32"/>
       <use xlink:href="#DejaVuSans-30" x="63.623047"/>
       <use xlink:href="#DejaVuSans-30" x="127.246094"/>
       <use xlink:href="#DejaVuSans-30" x="190.869141"/>
       <use xlink:href="#DejaVuSans-30" x="254.492188"/>
       <use xlink:href="#DejaVuSans-30" x="318.115234"/>
      </g>
     </g>
    </g>
    <g id="ytick_5">
     <g id="line2d_13">
      <g>
       <use xlink:href="#m58851d3c87" x="66.053125" y="72.484157" style="stroke: #000000; stroke-width: 0.8"/>
      </g>
     </g>
     <g id="text_14">
      <!-- 250000 -->
      <g transform="translate(20.878125 76.283375) scale(0.1 -0.1)">
       <use xlink:href="#DejaVuSans-32"/>
       <use xlink:href="#DejaVuSans-35" x="63.623047"/>
       <use xlink:href="#DejaVuSans-30" x="127.246094"/>
       <use xlink:href="#DejaVuSans-30" x="190.869141"/>
       <use xlink:href="#DejaVuSans-30" x="254.492188"/>
       <use xlink:href="#DejaVuSans-30" x="318.115234"/>
      </g>
     </g>
    </g>
    <g id="ytick_6">
     <g id="line2d_14">
      <g>
       <use xlink:href="#m58851d3c87" x="66.053125" y="48.677632" style="stroke: #000000; stroke-width: 0.8"/>
      </g>
     </g>
     <g id="text_15">
      <!-- 300000 -->
      <g transform="translate(20.878125 52.476851) scale(0.1 -0.1)">
       <use xlink:href="#DejaVuSans-33"/>
       <use xlink:href="#DejaVuSans-30" x="63.623047"/>
       <use xlink:href="#DejaVuSans-30" x="127.246094"/>
       <use xlink:href="#DejaVuSans-30" x="190.869141"/>
       <use xlink:href="#DejaVuSans-30" x="254.492188"/>
       <use xlink:href="#DejaVuSans-30" x="318.115234"/>
      </g>
     </g>
    </g>
    <g id="ytick_7">
     <g id="line2d_15">
      <g>
       <use xlink:href="#m58851d3c87" x="66.053125" y="24.871107" style="stroke: #000000; stroke-width: 0.8"/>
      </g>
     </g>
     <g id="text_16">
      <!-- 350000 -->
      <g transform="translate(20.878125 28.670326) scale(0.1 -0.1)">
       <use xlink:href="#DejaVuSans-33"/>
       <use xlink:href="#DejaVuSans-35" x="63.623047"/>
       <use xlink:href="#DejaVuSans-30" x="127.246094"/>
       <use xlink:href="#DejaVuSans-30" x="190.869141"/>
       <use xlink:href="#DejaVuSans-30" x="254.492188"/>
       <use xlink:href="#DejaVuSans-30" x="318.115234"/>
      </g>
     </g>
    </g>
    <g id="text_17">
     <!-- ce -->
     <g transform="translate(14.798438 96.185781) rotate(-90) scale(0.1 -0.1)">
      <defs>
       <path id="DejaVuSans-63" d="M 3122 3366 
L 3122 2828 
Q 2878 2963 2633 3030 
Q 2388 3097 2138 3097 
Q 1578 3097 1268 2742 
Q 959 2388 959 1747 
Q 959 1106 1268 751 
Q 1578 397 2138 397 
Q 2388 397 2633 464 
Q 2878 531 3122 666 
L 3122 134 
Q 2881 22 2623 -34 
Q 2366 -91 2075 -91 
Q 1284 -91 818 406 
Q 353 903 353 1747 
Q 353 2603 823 3093 
Q 1294 3584 2113 3584 
Q 2378 3584 2631 3529 
Q 2884 3475 3122 3366 
z
" transform="scale(0.015625)"/>
       <path id="DejaVuSans-65" d="M 3597 1894 
L 3597 1613 
L 953 1613 
Q 991 1019 1311 708 
Q 1631 397 2203 397 
Q 2534 397 2845 478 
Q 3156 559 3463 722 
L 3463 178 
Q 3153 47 2828 -22 
Q 2503 -91 2169 -91 
Q 1331 -91 842 396 
Q 353 884 353 1716 
Q 353 2575 817 3079 
Q 1281 3584 2069 3584 
Q 2775 3584 3186 3129 
Q 3597 2675 3597 1894 
z
M 3022 2063 
Q 3016 2534 2758 2815 
Q 2500 3097 2075 3097 
Q 1594 3097 1305 2825 
Q 1016 2553 972 2059 
L 3022 2063 
z
" transform="scale(0.015625)"/>
      </defs>
      <use xlink:href="#DejaVuSans-63"/>
      <use xlink:href="#DejaVuSans-65" x="54.980469"/>
     </g>
    </g>
   </g>
   <g id="line2d_16">
    <path d="M 66.053125 171.256549 
L 345.053125 21.176523 
" clip-path="url(#p3b250c1358)" style="fill: none; stroke: #000000; stroke-width: 0.5; stroke-linecap: square"/>
   </g>
   <g id="patch_3">
    <path d="M 66.053125 173.52 
L 66.053125 7.2 
" style="fill: none; stroke: #000000; stroke-width: 0.8; stroke-linejoin: miter; stroke-linecap: square"/>
   </g>
   <g id="patch_4">
    <path d="M 345.053125 173.52 
L 345.053125 7.2 
" style="fill: none; stroke: #000000; stroke-width: 0.8; stroke-linejoin: miter; stroke-linecap: square"/>
   </g>
   <g id="patch_5">
    <path d="M 66.053125 173.52 
L 345.053125 173.52 
" style="fill: none; stroke: #000000; stroke-width: 0.8; stroke-linejoin: miter; stroke-linecap: square"/>
   </g>
   <g id="patch_6">
    <path d="M 66.053125 7.2 
L 345.053125 7.2 
" style="fill: none; stroke: #000000; stroke-width: 0.8; stroke-linejoin: miter; stroke-linecap: square"/>
   </g>
  </g>
 </g>
 <defs>
  <clipPath id="p3b250c1358">
   <rect x="66.053125" y="7.2" width="279" height="166.32"/>
  </clipPath>
 </defs>
</svg>
